<?xml version="1.0" encoding="UTF-8"?>
<svg width="129px" height="37px" viewBox="0 0 129 37" version="1.1" xmlns="http://www.w3.org/2000/svg" xmlns:xlink="http://www.w3.org/1999/xlink">
    <!-- Generator: Sketch 59.1 (86144) - https://sketch.com -->
    <title>App Store</title>
    <desc>Created with Sketch.</desc>
    <g id="Artboards" stroke="none" stroke-width="1" fill="none" fill-rule="evenodd">
        <g id="MZ-mob-main" transform="translate(-36.000000, -553.000000)" fill-rule="nonzero">
            <g id="header" transform="translate(-48.000000, 0.000000)">
                <g id="Group-4" transform="translate(85.000000, 553.000000)">
                    <g id="App-Store">
                        <rect id="background" stroke="#FFFFFF" x="0" y="0.584615385" width="127" height="35" rx="17.5"></rect>
                        <g id="icon" transform="translate(21.000000, 5.584615)" fill="#FFFFFF">
                            <path d="M13.9420175,10.8399046 C13.9188114,8.26479778 16.0537748,7.01199994 16.1514006,6.95367453 C14.9422815,5.19352553 13.0681868,4.95303309 12.409613,4.93385761 C10.8355976,4.76846912 9.30879463,5.87425496 8.50698297,5.87425496 C7.68916718,5.87425496 6.45444126,4.94983717 5.12369002,4.97700243 C3.41123805,5.00336872 1.80921522,5.99330272 0.930583325,7.53053681 C-0.882695259,10.6649284 0.469661671,15.2710377 2.20692019,17.8045976 C3.07594956,19.0462098 4.09141758,20.430839 5.42056838,20.3821014 C6.72091159,20.3293688 7.20663979,19.5543599 8.77585393,19.5543599 C10.3306643,19.5543599 10.7867847,20.3821014 12.1423425,20.3501422 C13.5379108,20.3293688 14.4165428,19.1045352 15.255164,17.8517373 C16.2594292,16.4311541 16.6627356,15.0289473 16.6787398,14.9570393 C16.6467314,14.9466526 13.9692247,13.9263574 13.9420175,10.8399046" id="Fill-2"></path>
                            <path d="M11.3813417,3.26718906 C12.0807262,2.39390587 12.5592525,1.20582528 12.4264175,0.000167152517 C11.4141503,0.0449099324 10.1482161,0.699273088 9.41922379,1.5533808 C8.77425357,2.30601828 8.19810144,3.53964063 8.34694072,4.69975699 C9.48404086,4.78444869 10.651549,4.12688961 11.3813417,3.26718906" id="Fill-3"></path>
                        </g>
                        <g id="Group" transform="translate(44.000000, 15.584615)" fill="#FFFFFF">
                            <path d="M8.91059498,10.8439292 L7.12171035,10.8439292 L6.14180172,7.72072337 L2.73575275,7.72072337 L1.80231888,10.8439292 L0.0606967071,10.8439292 L3.43602507,0.211127152 L5.52030018,0.211127152 L8.91059498,10.8439292 L8.91059498,10.8439292 Z M5.84641125,6.4103991 L4.96023986,3.63474879 C4.86650262,3.35031255 4.69005605,2.68236676 4.43168786,1.63091143 L4.40017954,1.63091143 C4.2962021,2.0831331 4.12999574,2.75107889 3.90234815,3.63474879 L3.03114321,6.4103991 L5.84641125,6.4103991 L5.84641125,6.4103991 Z" id="Fill-4"></path>
                            <path d="M17.5738065,6.9161523 C17.5738065,8.22008477 17.2248519,9.25076664 16.526155,10.007399 C15.9007149,10.6809376 15.1232472,11.0173074 14.196115,11.0173074 C13.1949383,11.0173074 12.4749732,10.6553704 12.0377954,9.92909916 L12.0377954,13.9519544 L10.3584021,13.9519544 L10.3584021,5.69691156 C10.3584021,4.87795889 10.337134,4.03823279 10.2961732,3.17693428 L11.7731255,3.17693428 L11.8668627,4.39297911 L11.8983711,4.39297911 C12.4584314,3.4765511 13.3083682,3.01873659 14.4489693,3.01873659 C15.3406546,3.01873659 16.0850386,3.37587985 16.6805457,4.09096535 C17.2752653,4.80764881 17.5738065,5.74884514 17.5738065,6.9161523 L17.5738065,6.9161523 Z M15.862905,6.97847261 C15.862905,6.23222695 15.6974863,5.61701373 15.3650735,5.13283294 C15.0019402,4.62867769 14.514349,4.3754016 13.9030877,4.3754016 C13.4887533,4.3754016 13.1122289,4.51602176 12.7758777,4.79406617 C12.4387387,5.07290957 12.2181805,5.43804261 12.1149907,5.89106326 C12.063002,6.10119453 12.0370077,6.27297484 12.0370077,6.40880114 L12.0370077,7.68876422 C12.0370077,8.24485306 12.2055772,8.71545125 12.5427162,9.10055873 C12.8798551,9.48406831 13.3178207,9.67662202 13.8566129,9.67662202 C14.4891424,9.67662202 14.9814598,9.42813979 15.3335653,8.93517026 C15.6864584,8.44060277 15.862905,7.7886365 15.862905,6.97847261 L15.862905,6.97847261 Z" id="Fill-5"></path>
                            <path d="M26.2677387,6.9161523 C26.2677387,8.22008477 25.918784,9.25076664 25.2200871,10.007399 C24.5938594,10.6809376 23.8171794,11.0173074 22.8892595,11.0173074 C21.8888704,11.0173074 21.1689054,10.6553704 20.7309398,9.92909916 L20.7309398,13.9519544 L19.0515465,13.9519544 L19.0515465,5.69691156 C19.0515465,4.87795889 19.0302784,4.03823279 18.9893176,3.17693428 L20.4662699,3.17693428 L20.5600072,4.39297911 L20.5915155,4.39297911 C21.1507881,3.4765511 22.0007249,3.01873659 23.1421137,3.01873659 C24.0330113,3.01873659 24.778183,3.37587985 25.3744779,4.09096535 C25.9684096,4.80764881 26.2677387,5.74884514 26.2677387,6.9161523 L26.2677387,6.9161523 Z M24.5560493,6.97847261 C24.5560493,6.23222695 24.389843,5.61701373 24.0574302,5.13283294 C23.6950846,4.62867769 23.2082811,4.3754016 22.5970198,4.3754016 C22.1826855,4.3754016 21.8061611,4.51602176 21.4682344,4.79406617 C21.1318831,5.07290957 20.9113249,5.43804261 20.8081352,5.89106326 C20.7569341,6.10119453 20.7293644,6.27297484 20.7293644,6.40880114 L20.7293644,7.68876422 C20.7293644,8.24485306 20.8987216,8.71545125 21.2342851,9.10055873 C21.5714241,9.48326933 22.0093897,9.67662202 22.5497573,9.67662202 C23.1830745,9.67662202 23.6753919,9.42813979 24.0267096,8.93517026 C24.3796028,8.44060277 24.5560493,7.7886365 24.5560493,6.97847261 L24.5560493,6.97847261 Z" id="Fill-6"></path>
                            <path d="M35.9880542,7.86214253 C35.9880542,8.76658586 35.6769096,9.5024448 35.0561957,10.0705183 C34.3740406,10.6905254 33.4217018,11.0013279 32.2007545,11.0013279 C31.0727568,11.0013279 30.1684682,10.7808099 29.4863131,10.338975 L29.8746531,8.91919066 C30.61116,9.36102564 31.420136,9.58234262 32.3007935,9.58234262 C32.9341106,9.58234262 33.426428,9.43692854 33.7777458,9.14849741 C34.1306389,8.8584683 34.3078732,8.47256184 34.3078732,7.98997903 C34.3078732,7.55773178 34.1613595,7.1949957 33.871483,6.90017274 C33.5808188,6.60694774 33.100317,6.33209923 32.426039,6.08122007 C30.5906796,5.38690801 29.6722122,4.37060772 29.6722122,3.03551513 C29.6722122,2.16303093 29.9967478,1.4487444 30.643456,0.89025863 C31.2909519,0.33257184 32.1495535,0.0537284448 33.2176854,0.0537284448 C34.1715997,0.0537284448 34.966397,0.222312848 35.5973511,0.558682674 L35.1759273,1.94730681 C34.5819955,1.6213237 33.9116561,1.45833214 33.1617582,1.45833214 C32.5694019,1.45833214 32.1038665,1.60614311 31.7722415,1.90016709 C31.4926052,2.16303093 31.35003,2.48342118 31.35003,2.86373482 C31.35003,3.28319838 31.5115102,3.63155288 31.8336827,3.90400445 C32.1125313,4.15648156 32.6213906,4.43053109 33.3571097,4.72455507 C34.259823,5.09368301 34.9222854,5.52353328 35.3476476,6.01730182 C35.775373,6.51107035 35.9880542,7.12708255 35.9880542,7.86214253" id="Fill-7"></path>
                            <path d="M41.5547859,4.45529941 L39.7036724,4.45529941 L39.7036724,8.1777389 C39.7036724,9.1245281 40.0297834,9.59672419 40.683581,9.59672419 C40.9836977,9.59672419 41.2326134,9.57115692 41.4295403,9.51762535 L41.4760151,10.8111711 C41.1451778,10.9366106 40.7095753,10.9997299 40.1707831,10.9997299 C39.5067454,10.9997299 38.9892212,10.7935936 38.6142723,10.3837177 C38.2408988,9.97304292 38.054212,9.28512274 38.054212,8.31676111 L38.054212,4.4521035 L36.9522086,4.4521035 L36.9522086,3.17373836 L38.054212,3.17373836 L38.054212,1.76993364 L39.7036724,1.26497941 L39.7036724,3.17373836 L41.5547859,3.17373836 L41.5547859,4.45529941" id="Fill-8"></path>
                            <path d="M49.8903109,6.94731246 C49.8903109,8.1258053 49.5586859,9.09336794 48.8946482,9.85000032 C48.2006775,10.628205 47.2774839,11.0173074 46.1266426,11.0173074 C45.0159744,11.0173074 44.1329539,10.6441847 43.4744301,9.897939 C42.8159063,9.15169334 42.4866444,8.21049703 42.4866444,7.07514897 C42.4866444,5.88706837 42.8277219,4.91391291 43.5051507,4.15728054 C44.1841549,3.40064817 45.0994715,3.02113352 46.2503127,3.02113352 C47.3601931,3.02113352 48.2503031,3.3958543 48.9253687,4.14130098 C49.5697138,4.86597421 49.8903109,5.79997974 49.8903109,6.94731246 L49.8903109,6.94731246 Z M48.1494765,6.98646239 C48.1494765,6.28416054 47.999812,5.68173097 47.6996953,5.17757572 C47.3475898,4.56875432 46.8426691,4.2651426 46.1904469,4.2651426 C45.5185321,4.2651426 45.001008,4.56875432 44.650478,5.17757572 C44.3487858,5.68173097 44.1999091,6.29454726 44.1999091,7.01842152 C44.1999091,7.72152235 44.3487858,8.32554986 44.650478,8.82730822 C45.0136113,9.43692854 45.5201075,9.74133929 46.1770559,9.74133929 C46.8182501,9.74133929 47.3215955,9.42973776 47.6863042,8.81292658 C47.994298,8.29678666 48.1494765,7.69036219 48.1494765,6.98646239 L48.1494765,6.98646239 Z" id="Fill-9"></path>
                            <path d="M55.3514899,4.67501842 C55.1852835,4.64385828 55.0072615,4.62867769 54.8221501,4.62867769 C54.2313692,4.62867769 53.7744986,4.85319056 53.4531138,5.30701019 C53.1734775,5.70649929 53.0340532,6.21145352 53.0340532,6.8210739 L53.0340532,10.8439292 L51.3546599,10.8439292 L51.3546599,5.59144643 C51.3546599,4.7085755 51.338118,3.90240649 51.305822,3.17773326 L52.7685956,3.17773326 L52.8300368,4.64465725 L52.8765116,4.64465725 C53.0545336,4.140502 53.3333822,3.73382209 53.7162082,3.43021037 C54.0911572,3.15536186 54.4944636,3.01873659 54.9300661,3.01873659 C55.0852446,3.01873659 55.2254565,3.03072126 55.3499144,3.04989674 L55.3514899,4.67501842" id="Fill-10"></path>
                            <path d="M62.8622847,6.64769562 C62.8622847,6.9529053 62.842592,7.21017629 62.8008434,7.42030754 L57.7634514,7.42030754 C57.7815687,8.1777389 58.0265459,8.75779711 58.4936567,9.15728616 C58.9182312,9.5136305 59.4680513,9.69260162 60.1415416,9.69260162 C60.887501,9.69260162 61.5680806,9.57275489 62.1801297,9.32986548 L62.4432241,10.5123532 C61.7279853,10.8279496 60.8827747,10.9861473 59.9091677,10.9861473 C58.7370584,10.9861473 57.8170156,10.6361949 57.1474638,9.93788791 C56.4802752,9.23878195 56.1447117,8.29838462 56.1447117,7.12228869 C56.1447117,5.96696619 56.4550686,5.00419745 57.0789332,4.23637939 C57.7311554,3.41662774 58.6126006,3.00675192 59.7216933,3.00675192 C60.8110933,3.00675192 61.6358235,3.41662774 62.1950961,4.23637939 C62.6393634,4.88594867 62.8622847,5.69131871 62.8622847,6.64769562 L62.8622847,6.64769562 Z M61.2608745,6.20586068 C61.2726901,5.70010747 61.1624111,5.26546332 60.9347635,4.89633539 C60.6440992,4.42174233 60.1966811,4.18524478 59.5972354,4.18524478 C59.0474153,4.18524478 58.6007849,4.41614948 58.2604951,4.87955684 C57.9808588,5.2478858 57.8146524,5.69131871 57.7634514,6.20426272 L61.2608745,6.20586068 L61.2608745,6.20586068 Z" id="Fill-11"></path>
                        </g>
                        <g id="Available-on-the" transform="translate(45.000000, 6.584615)" fill="#FFFFFF">
                            <path d="M4.39187237,5.54959393 L3.51318622,5.54959393 L3.03254412,4.01475678 L1.36091647,4.01475678 L0.902300517,5.54959393 L0.0472138109,5.54959393 L1.70389513,0.323477446 L2.72653792,0.323477446 L4.39187237,5.54959393 L4.39187237,5.54959393 Z M2.88780083,3.37078035 L2.45278432,2.00612556 C2.40715872,1.86630438 2.32298735,1.54112024 2.19319037,1.0217844 L2.17745741,1.0217844 C2.12396533,1.24629728 2.04766044,1.57228039 1.93280979,2.00612556 L1.50565976,3.37078035 L2.88780083,3.37078035 L2.88780083,3.37078035 Z" id="Fill-12"></path>
                            <path d="M8.53436232,1.78161268 L7.12940847,5.54959393 L6.32781385,5.54959393 L4.96848558,1.78161268 L5.85425157,1.78161268 L6.4882901,3.77426434 C6.59527427,4.10743826 6.68652547,4.42543159 6.75496388,4.72744535 L6.77777667,4.72744535 C6.83913525,4.45659173 6.93038644,4.1385984 7.04445045,3.77426434 L7.67062246,1.78161268 L8.53436232,1.78161268" id="Fill-13"></path>
                            <path d="M11.5251992,5.54959393 L11.4638406,5.11574876 L11.4410278,5.11574876 C11.1893004,5.46490224 10.8227222,5.6350846 10.3570265,5.6350846 C9.69309529,5.6350846 9.21953299,5.1620895 9.21953299,4.52610284 C9.21953299,3.5960922 10.0132611,3.11510732 11.3875357,3.11510732 L11.3875357,3.04559621 C11.3875357,2.54943074 11.1279418,2.30094852 10.6166204,2.30094852 C10.2500423,2.30094852 9.92908979,2.39442897 9.64746965,2.58059089 L9.47991362,2.03009491 C9.82367887,1.81277284 10.2508289,1.7041118 10.7550705,1.7041118 C11.7242212,1.7041118 12.2135164,2.22344763 12.2135164,3.26291828 L12.2135164,4.65074344 C12.2135164,5.03105707 12.2292494,5.32588003 12.2670085,5.55039291 L11.5251992,5.54959393 L11.5251992,5.54959393 Z M11.4103485,3.67279411 C10.4939033,3.67279411 10.036074,3.89810596 10.036074,4.43262239 C10.036074,4.82811661 10.2728551,5.02146933 10.6008874,5.02146933 C11.0209576,5.02146933 11.4103485,4.6962852 11.4103485,4.25445025 L11.4103485,3.67279411 L11.4103485,3.67279411 Z" id="Fill-14"></path>
                            <path d="M14.4213342,1.16080661 C13.9378544,1.16080661 13.561045,0.943484537 13.561045,0.65665136 C13.561045,0.369818182 13.9503224,0.16048589 14.4490407,0.16048589 C14.9463738,0.16048589 15.3495045,0.369818182 15.3356513,0.65665136 C15.3356513,0.959464102 14.960227,1.16080661 14.4213342,1.16080661 L14.4213342,1.16080661 Z M13.7231284,1.78161268 L15.1749531,1.78161268 L15.1749531,5.54959393 L13.7231284,5.54959393 L13.7231284,1.78161268 Z" id="Fill-15"></path>
                            <polygon id="Fill-16" points="15.9422294 0.0526238317 16.7666368 0.0526238317 16.7666368 5.54959393 15.9422294 5.54959393"></polygon>
                            <path d="M20.2703683,5.54959393 L20.2082231,5.11574876 L20.1861969,5.11574876 C19.9344695,5.46490224 19.5678914,5.6350846 19.1021956,5.6350846 C18.4382644,5.6350846 17.9647021,5.1620895 17.9647021,4.52610284 C17.9647021,3.5960922 18.7584303,3.11510732 20.1327049,3.11510732 L20.1327049,3.04559621 C20.1327049,2.54943074 19.8731109,2.30094852 19.3617896,2.30094852 C18.9952114,2.30094852 18.6742589,2.39442897 18.3926389,2.58059089 L18.2242961,2.02929593 C18.5680614,1.81197385 18.9952114,1.70331282 19.499453,1.70331282 C20.4686037,1.70331282 20.9586856,2.22264865 20.9586856,3.26211931 L20.9586856,4.64994446 C20.9586856,5.03025809 20.9744186,5.32508106 21.0106044,5.54959393 L20.2703683,5.54959393 L20.2703683,5.54959393 Z M20.1555177,3.67279411 C19.2390724,3.67279411 18.7812431,3.89810596 18.7812431,4.43262239 C18.7812431,4.82811661 19.0180243,5.02146933 19.3460566,5.02146933 C19.7661267,5.02146933 20.1555177,4.6962852 20.1555177,4.25445025 L20.1555177,3.67279411 L20.1555177,3.67279411 Z" id="Fill-17"></path>
                            <path d="M24.2980076,5.6350846 C23.7717399,5.6350846 23.3831357,5.40977274 23.1306216,4.96793779 L23.1148886,4.96793779 L23.0676897,5.54959393 L22.3659994,5.54959393 C22.3880255,5.24758017 22.3958921,4.90561749 22.3958921,4.53409262 L22.3958921,0.0526238317 L23.2218727,0.0526238317 L23.2218727,2.33290765 L23.2368191,2.33290765 C23.4814667,1.91424306 23.8779374,1.70491077 24.4199381,1.70491077 C25.3135706,1.70491077 25.9397426,2.48071861 25.9397426,3.61207176 C25.9397426,4.78177587 25.2443456,5.6350846 24.2980076,5.6350846 L24.2980076,5.6350846 Z M24.1304515,2.36246984 C23.6561026,2.36246984 23.2218727,2.78113442 23.2218727,3.36279056 L23.2218727,4.02194759 C23.2218727,4.54128342 23.6120503,4.96793779 24.1155052,4.96793779 C24.7330242,4.96793779 25.1011755,4.45659173 25.1011755,3.64243294 C25.1003889,2.88260466 24.7180778,2.36246984 24.1304515,2.36246984 L24.1304515,2.36246984 Z" id="Fill-18"></path>
                            <polygon id="Fill-19" points="27.1598342 0.0526238317 27.983455 0.0526238317 27.983455 5.54959393 27.1598342 5.54959393"></polygon>
                            <path d="M32.4704968,3.86694582 L29.9957013,3.86694582 C30.0122209,4.58043336 30.4763434,4.98311838 31.1630874,4.98311838 C31.5304521,4.98311838 31.866351,4.92079807 32.163704,4.80494624 L32.2919277,5.38660238 C31.9410825,5.54160415 31.5288788,5.61910504 31.0482367,5.61910504 C29.8871438,5.61910504 29.2003998,4.87445734 29.2003998,3.71993383 C29.2003998,2.56461133 29.9036634,1.69612201 30.9561989,1.69612201 C31.9017501,1.69612201 32.4988162,2.40960956 32.4988162,3.48743117 C32.5011761,3.63444316 32.4940963,3.76627456 32.4704968,3.86694582 L32.4704968,3.86694582 Z M31.7153145,3.27010909 C31.7153145,2.68845295 31.4242546,2.27777815 30.8972002,2.27777815 C30.4236379,2.27777815 30.0507666,2.69644273 29.9957013,3.27010909 L31.7153145,3.27010909 L31.7153145,3.27010909 Z" id="Fill-20"></path>
                            <path d="M37.4672868,5.6350846 C36.3832855,5.6350846 35.6808086,4.81293602 35.6808086,3.69676346 C35.6808086,2.53345118 36.3982318,1.7041118 37.5294321,1.7041118 C38.5969138,1.7041118 39.3159104,2.48711044 39.3159104,3.63524214 C39.3159104,4.81293602 38.5748876,5.6350846 37.4672868,5.6350846 L37.4672868,5.6350846 Z M37.4987528,2.31612911 C36.90326,2.31612911 36.5217356,2.88180568 36.5217356,3.67279411 C36.5217356,4.44860195 36.9111265,5.01427853 37.4908863,5.01427853 C38.0706461,5.01427853 38.460037,4.40945202 38.460037,3.65681454 C38.460037,2.88979546 38.0785126,2.31612911 37.4987528,2.31612911 L37.4987528,2.31612911 Z" id="Fill-21"></path>
                            <path d="M43.7478869,5.54959393 L42.9250528,5.54959393 L42.9250528,3.38596093 C42.9250528,2.7196131 42.6725386,2.38564021 42.1761636,2.38564021 C41.687655,2.38564021 41.3509695,2.81229458 41.3509695,3.30846005 L41.3509695,5.54959393 L40.5281354,5.54959393 L40.5281354,2.85863531 C40.5281354,2.52546139 40.5186956,2.16831814 40.4966695,1.78081371 L41.2219592,1.78081371 L41.260505,2.36246984 L41.2841044,2.36246984 C41.5035793,1.95978483 41.9551154,1.70331282 42.4593569,1.70331282 C43.2365655,1.70331282 43.7478869,2.30813932 43.7478869,3.29248048 L43.7478869,5.54959393" id="Fill-22"></path>
                            <path d="M49.1419343,2.40960956 L48.2349288,2.40960956 L48.2349288,4.23926966 C48.2349288,4.70507396 48.3946184,4.93757662 48.7147843,4.93757662 C48.8595275,4.93757662 48.9830314,4.92159706 49.0813624,4.89842669 L49.1041752,5.53441334 C48.9436989,5.59673364 48.728944,5.6278938 48.4638435,5.6278938 C47.8132853,5.6278938 47.4262544,5.26355973 47.4262544,4.30957974 L47.4262544,2.40960956 L46.885827,2.40960956 L46.885827,1.78161268 L47.4262544,1.78161268 L47.4262544,1.0912955 L48.2349288,0.84281328 L48.2349288,1.78081371 L49.1419343,1.78081371 L49.1419343,2.40960956" id="Fill-23"></path>
                            <path d="M53.5078323,5.54959393 L52.6826383,5.54959393 L52.6826383,3.4019405 C52.6826383,2.72760288 52.4301242,2.38643919 51.9345358,2.38643919 C51.5073858,2.38643919 51.110915,2.68126215 51.110915,3.27809887 L51.110915,5.54959393 L50.2857209,5.54959393 L50.2857209,0.0526238317 L51.110915,0.0526238317 L51.110915,2.31612911 L51.126648,2.31612911 C51.3854552,1.9054543 51.7606865,1.70331282 52.2413286,1.70331282 C53.0271902,1.70331282 53.5078323,2.32331991 53.5078323,3.30846005 L53.5078323,5.54959393" id="Fill-24"></path>
                            <path d="M57.720334,3.86694582 L55.2463251,3.86694582 C55.2620581,4.58043336 55.7261805,4.98311838 56.4137112,4.98311838 C56.7818626,4.98311838 57.1169747,4.92079807 57.4127545,4.80494624 L57.5417649,5.38660238 C57.1917064,5.54160415 56.778716,5.61910504 56.2972872,5.61910504 C55.136981,5.61910504 54.450237,4.87445734 54.450237,3.71993383 C54.450237,2.56461133 55.152714,1.69612201 56.2052494,1.69612201 C57.1515873,1.69612201 57.7478667,2.40960956 57.7478667,3.48743117 C57.7510133,3.63444316 57.7431468,3.76627456 57.720334,3.86694582 L57.720334,3.86694582 Z M56.964365,3.27010909 C56.964365,2.68845295 56.6748785,2.27777815 56.147824,2.27777815 C55.6742618,2.27777815 55.3006038,2.69644273 55.2463251,3.27010909 L56.964365,3.27010909 L56.964365,3.27010909 Z" id="Fill-25"></path>
                        </g>
                    </g>
                </g>
            </g>
        </g>
    </g>
</svg>