<?xml version="1.0" encoding="UTF-8"?>
<svg width="132px" height="46px" viewBox="0 0 132 46" version="1.1" xmlns="http://www.w3.org/2000/svg" xmlns:xlink="http://www.w3.org/1999/xlink">
    <!-- Generator: Sketch 59.1 (86144) - https://sketch.com -->
    <title>App Store</title>
    <desc>Created with Sketch.</desc>
    <g id="Artboards" stroke="none" stroke-width="1" fill="none" fill-rule="evenodd">
        <g id="MZ-1920-mian" transform="translate(-1328.000000, -27.000000)">
            <g id="header">
                <g id="Group-4-Copy" transform="translate(1141.000000, 28.000000)">
                    <g id="App-Store" transform="translate(188.000000, 0.000000)">
                        <rect id="background" stroke="#FFFFFF" fill-rule="nonzero" x="0" y="0" width="129.976" height="44" rx="22"></rect>
                        <g id="icon" transform="translate(11.440000, 7.744000)" fill="#FFFFFF" fill-rule="nonzero">
                            <path d="M17.0139874,13.2487722 C16.9856681,10.1014195 19.5910473,8.57022215 19.7101838,8.49893554 C18.2346486,6.34764231 15.9476178,6.05370711 15.1439345,6.03027042 C13.2231021,5.82812893 11.359885,7.17964496 10.3814029,7.17964496 C9.38339046,7.17964496 7.87660628,6.04980099 6.25263867,6.08300297 C4.16286678,6.11522843 2.20785587,7.32514777 1.13562711,9.20398943 C-1.07718743,13.0349124 0.573146446,18.6646016 2.69319075,21.7611749 C3.75370116,23.2787008 4.99291637,24.9710255 6.61493091,24.9114572 C8.20179041,24.8470063 8.79454347,23.8997732 10.7095167,23.8997732 C12.6069124,23.8997732 13.1635339,24.9114572 14.8177739,24.872396 C16.5208403,24.8470063 17.5930691,23.3499874 18.6164714,21.81879 C19.8420152,20.0825216 20.3341858,18.3687134 20.3537163,18.2808258 C20.3146552,18.2681309 17.0471895,17.0211034 17.0139874,13.2487722" id="Fill-2"></path>
                            <path d="M13.8890949,3.99323107 C14.7425811,2.92588496 15.3265454,1.47378645 15.1644417,0.00020429752 C13.9291325,0.0548899174 12.3842638,0.854667107 11.494646,1.89857653 C10.7075637,2.81846678 10.0044628,4.32622744 10.1860972,5.74414744 C11.5737448,5.84765951 12.9985005,5.04397619 13.8890949,3.99323107" id="Fill-3"></path>
                        </g>
                        <g id="Group" transform="translate(40.392000, 19.184000)" fill="#FFFFFF" fill-rule="nonzero">
                            <path d="M11.0465487,13.2536913 L8.82885157,13.2536913 L7.61404959,9.43643967 L3.39153852,9.43643967 L2.23435173,13.2536913 L0.075246281,13.2536913 L4.25967273,0.258044297 L6.84356827,0.258044297 L11.0465487,13.2536913 L11.0465487,13.2536913 Z M7.24785124,7.83493223 L6.14925619,4.44247074 C6.03304926,4.09482645 5.81430678,3.27844826 5.49400529,1.9933362 L5.45494413,1.9933362 C5.32604231,2.54605157 5.11999471,3.36242975 4.83777785,4.44247074 L3.75773686,7.83493223 L7.24785124,7.83493223 L7.24785124,7.83493223 Z" id="Fill-4"></path>
                            <path d="M21.7864139,8.45307504 C21.7864139,10.0467703 21.3538116,11.3064926 20.4876304,12.2312655 C19.7122665,13.0544793 18.7484324,13.465598 17.5990579,13.465598 C16.3578896,13.465598 15.4653421,13.0232304 14.9233686,12.1355656 L14.9233686,17.0523888 L12.8414089,17.0523888 L12.8414089,6.9628919 C12.8414089,5.96194975 12.8150427,4.93561785 12.7642632,3.88291967 L14.5952549,3.88291967 L14.7114618,5.36919669 L14.750523,5.36919669 C15.444835,4.24911802 16.4985097,3.68956694 17.9125236,3.68956694 C19.0179544,3.68956694 19.9407742,4.12607537 20.6790301,5.00006876 C21.4163095,5.87601521 21.7864139,7.02636628 21.7864139,8.45307504 L21.7864139,8.45307504 Z M19.6653931,8.5292443 C19.6653931,7.61716628 19.460322,6.865239 19.0482267,6.27346248 C18.598047,5.65727273 17.9935755,5.34771306 17.2357891,5.34771306 C16.7221349,5.34771306 16.255354,5.51958215 15.8383762,5.85941421 C15.4204218,6.20022281 15.1469938,6.64649652 15.0190684,7.20018843 C14.9546175,7.45701554 14.9223921,7.66696925 14.9223921,7.83297918 L14.9223921,9.3973785 C14.9223921,10.0770426 15.1313693,10.6522182 15.5493237,11.1229051 C15.967278,11.591639 16.5102281,11.8269825 17.1781738,11.8269825 C17.9623266,11.8269825 18.5726572,11.523282 19.0091656,10.9207637 C19.4466506,10.3162923 19.6653931,9.51944462 19.6653931,8.5292443 L19.6653931,8.5292443 Z" id="Fill-5"></path>
                            <path d="M32.5643637,8.45307504 C32.5643637,10.0467703 32.1317613,11.3064926 31.2655802,12.2312655 C30.4892397,13.0544793 29.5263822,13.465598 28.3760311,13.465598 C27.1358394,13.465598 26.2432919,13.0232304 25.7003418,12.1355656 L25.7003418,17.0523888 L23.6183821,17.0523888 L23.6183821,6.9628919 C23.6183821,5.96194975 23.5920158,4.93561785 23.5412364,3.88291967 L25.3722281,3.88291967 L25.488435,5.36919669 L25.5274962,5.36919669 C26.2208317,4.24911802 27.2745064,3.68956694 28.6894969,3.68956694 C29.7939511,3.68956694 30.7177475,4.12607537 31.4569798,5.00006876 C32.1932826,5.87601521 32.5643637,7.02636628 32.5643637,8.45307504 L32.5643637,8.45307504 Z M30.4423662,8.5292443 C30.4423662,7.61716628 30.2363186,6.865239 29.8242234,6.27346248 C29.3750201,5.65727273 28.7715253,5.34771306 28.0137388,5.34771306 C27.5000847,5.34771306 27.0333038,5.51958215 26.6143729,5.85941421 C26.197395,6.20022281 25.9239669,6.64649652 25.7960417,7.20018843 C25.7325673,7.45701554 25.6983888,7.66696925 25.6983888,7.83297918 L25.6983888,9.3973785 C25.6983888,10.0770426 25.9083425,10.6522182 26.3243438,11.1229051 C26.7422982,11.5906625 27.2852482,11.8269825 27.9551471,11.8269825 C28.7402764,11.8269825 29.3506069,11.523282 29.7861388,10.9207637 C30.2236238,10.3162923 30.4423662,9.51944462 30.4423662,8.5292443 L30.4423662,8.5292443 Z" id="Fill-6"></path>
                            <path d="M44.6147306,9.60928531 C44.6147306,10.7147161 44.2290017,11.6140992 43.4594969,12.3084113 C42.6138228,13.0661977 41.4331994,13.4460674 39.9195795,13.4460674 C38.52119,13.4460674 37.4001349,13.1765454 36.5544608,12.636525 L37.0358896,10.901233 C37.9489442,11.4412536 38.9518393,11.7117521 40.0435987,11.7117521 C40.8287279,11.7117521 41.4390585,11.5340238 41.8745904,11.1814968 C42.3120753,10.8270168 42.5317944,10.3553534 42.5317944,9.76552993 C42.5317944,9.23722774 42.35016,8.79388364 41.9907974,8.43354446 C41.6304581,8.07515834 41.0347755,7.7392324 40.1988668,7.43260231 C37.9235544,6.58399868 36.7849216,5.34185388 36.7849216,3.71007405 C36.7849216,2.64370447 37.1872516,1.7706876 37.9889818,1.08809388 C38.7916886,0.406476694 39.8561051,0.0656680992 41.1802783,0.0656680992 C42.3628549,0.0656680992 43.3481726,0.271715703 44.1303723,0.68283438 L43.6079293,2.38004166 C42.8716264,1.98161785 42.0406004,1.78240595 41.1109448,1.78240595 C40.3765951,1.78240595 39.7994664,1.9630638 39.3883478,2.32242644 C39.04168,2.64370447 38.8649283,3.03529256 38.8649283,3.50012033 C38.8649283,4.01279802 39.0651167,4.43856463 39.464517,4.77156099 C39.8102082,5.08014413 40.4410459,5.41509355 41.3531239,5.7744562 C42.4722261,6.22561256 43.293487,6.75098512 43.8208126,7.35448 C44.3510677,7.95797488 44.6147306,8.71087868 44.6147306,9.60928531" id="Fill-7"></path>
                            <path d="M51.5158605,5.44536595 L49.2210176,5.44536595 L49.2210176,9.99501422 C49.2210176,11.152201 49.6253005,11.7293296 50.4358195,11.7293296 C50.807877,11.7293296 51.1164602,11.6980807 51.3605924,11.6326532 L51.4182076,13.2136536 C51.0080654,13.3669686 50.468045,13.4441144 49.8000992,13.4441144 C48.9768853,13.4441144 48.3353057,13.1921699 47.870478,12.6912106 C47.4076033,12.1892747 47.176166,11.3484833 47.176166,10.1649302 L47.176166,5.44145983 L45.810002,5.44145983 L45.810002,3.87901356 L47.176166,3.87901356 L47.176166,2.16325223 L49.2210176,1.54608595 L49.2210176,3.87901356 L51.5158605,3.87901356 L51.5158605,5.44536595" id="Fill-8"></path>
                            <path d="M61.8494896,8.49115967 C61.8494896,9.93153982 61.4383709,11.1141164 60.6151571,12.0388893 C59.754835,12.9900284 58.6103432,13.465598 57.1836344,13.465598 C55.8067286,13.465598 54.7120397,13.009559 53.8956615,12.097481 C53.0792833,11.185403 52.6710943,10.0350519 52.6710943,8.6474043 C52.6710943,7.19530579 53.0939313,6.00589356 53.9337462,5.08112066 C54.775514,4.15634776 55.9102407,3.69249653 57.3369494,3.69249653 C58.7128787,3.69249653 59.8163563,4.15048859 60.6532416,5.06159008 C61.4520423,5.94730182 61.8494896,7.08886413 61.8494896,8.49115967 L61.8494896,8.49115967 Z M59.6913607,8.53900958 C59.6913607,7.68064066 59.5058202,6.94433785 59.1337627,6.3281481 C58.6972542,5.58403306 58.0712992,5.21295207 57.2627333,5.21295207 C56.429754,5.21295207 55.7881746,5.58403306 55.3536192,6.3281481 C54.9796086,6.94433785 54.7950447,7.69333554 54.7950447,8.57807074 C54.7950447,9.43741621 54.9796086,10.1756721 55.3536192,10.7889323 C55.803799,11.5340238 56.4317071,11.9060814 57.2461322,11.9060814 C58.0410267,11.9060814 58.6650288,11.525235 59.1171617,10.7713547 C59.4989844,10.140517 59.6913607,9.39933157 59.6913607,8.53900958 L59.6913607,8.53900958 Z" id="Fill-9"></path>
                            <path d="M68.6197647,5.7139114 C68.4137171,5.67582678 68.1930215,5.65727273 67.9635372,5.65727273 C67.2311405,5.65727273 66.6647538,5.93167736 66.2663299,6.48634578 C65.9196622,6.97461024 65.7468165,7.59177653 65.7468165,8.3368681 L65.7468165,13.2536913 L63.6648568,13.2536913 L63.6648568,6.83399008 C63.6648568,5.75492562 63.6443497,4.76960794 63.604312,3.8838962 L65.4177263,3.8838962 L65.4938955,5.67680331 L65.5515107,5.67680331 C65.7722063,5.06061355 66.1178976,4.56356033 66.5924905,4.19247934 C67.0573183,3.85655339 67.5573012,3.68956694 68.0973217,3.68956694 C68.2896979,3.68956694 68.46352,3.70421488 68.6178116,3.72765157 L68.6197647,5.7139114" id="Fill-10"></path>
                            <path d="M77.9309679,8.12496132 C77.9309679,8.49799537 77.9065547,8.81243768 77.8547986,9.06926478 L71.6098962,9.06926478 C71.6323564,9.99501422 71.9360569,10.7039742 72.5151385,11.1922386 C73.0414876,11.6277706 73.7231048,11.8465131 74.558037,11.8465131 C75.48281,11.8465131 76.3265309,11.7000338 77.0852939,11.4031689 L77.4114546,12.8484317 C76.5247663,13.2341606 75.4769507,13.4275134 74.269961,13.4275134 C72.8168859,13.4275134 71.6763002,12.9997938 70.8462506,12.1463074 C70.0191305,11.2918446 69.6031293,10.1424701 69.6031293,8.70501951 C69.6031293,7.29295868 69.9878817,6.11624132 70.7612925,5.17779703 C71.5698585,4.17587834 72.6625944,3.67491901 74.0375471,3.67491901 C75.3880866,3.67491901 76.4105124,4.17587834 77.1038479,5.17779703 C77.6546103,5.97171504 77.9309679,6.9560562 77.9309679,8.12496132 L77.9309679,8.12496132 Z M75.9456847,7.58494083 C75.9603325,6.96679802 75.8236186,6.43556628 75.5414017,5.98440992 C75.1810624,5.40435174 74.626394,5.11529917 73.8832555,5.11529917 C73.2016383,5.11529917 72.6479464,5.39751604 72.226086,5.96390281 C71.8794182,6.41408265 71.6733706,6.9560562 71.6098962,7.58298777 L75.9456847,7.58494083 L75.9456847,7.58494083 Z" id="Fill-11"></path>
                        </g>
                        <text id="Доступно-в" font-family="Helvetica" font-size="10" font-weight="normal" fill="#FFFFFF">
                            <tspan x="41" y="14">Доступно в</tspan>
                        </text>
                    </g>
                </g>
            </g>
        </g>
    </g>
</svg>