<?xml version="1.0" encoding="UTF-8"?>
<svg width="64px" height="64px" viewBox="0 0 64 64" version="1.1" xmlns="http://www.w3.org/2000/svg" xmlns:xlink="http://www.w3.org/1999/xlink">
    <!-- Generator: Sketch 59.1 (86144) - https://sketch.com -->
    <title>Group 30 Copy</title>
    <desc>Created with Sketch.</desc>
    <g id="Artboards" stroke="none" stroke-width="1" fill="none" fill-rule="evenodd">
        <g id="MZ-1920-mian" transform="translate(-980.000000, -1098.000000)" fill-rule="nonzero">
            <g id="Group-35" transform="translate(980.000000, 1098.000000)">
                <g id="Group-30-Copy">
                    <g id="Group-28-Copy">
                        <path d="M32,64 C49.673112,64 64,49.673112 64,32 C64,14.326888 49.673112,0 32,0 C14.326888,0 0,14.326888 0,32 C0,49.673112 14.326888,64 32,64 Z M32,62.6382979 C15.0789353,62.6382979 1.36170213,48.9210647 1.36170213,32 C1.36170213,15.0789353 15.0789353,1.36170213 32,1.36170213 C48.9210647,1.36170213 62.6382979,15.0789353 62.6382979,32 C62.6382979,48.9210647 48.9210647,62.6382979 32,62.6382979 Z" id="Oval" fill="#DCDCDC"></path>
                        <path d="M31.6595745,16.3404255 C40.1740916,16.3404255 47.1352242,22.9912556 47.6312976,31.3812412 L50.9389837,27.3683537 L51.9895843,28.2346511 L47.0163326,34.2659533 L41.2858934,28.2719973 L42.270155,27.3310075 L46.2752418,31.5195114 C45.849451,23.8168826 39.4686015,17.7021277 31.6595745,17.7021277 C23.5750658,17.7021277 17.0212766,24.2559169 17.0212766,32.3404255 C17.0212766,40.4249342 23.5750658,46.9787234 31.6595745,46.9787234 C35.4176743,46.9787234 38.9496514,45.5570361 41.6372565,43.0515557 L41.9219551,42.7789796 L42.8766488,43.7499546 C39.904174,46.6725872 35.9126969,48.3404255 31.6595745,48.3404255 C22.8230185,48.3404255 15.6595745,41.1769815 15.6595745,32.3404255 C15.6595745,23.5038695 22.8230185,16.3404255 31.6595745,16.3404255 Z M28.2553191,25.718281 L28.830576,26.6269172 C31.8534861,31.4016984 33.3617021,34.6169376 33.3617021,36.4255319 C33.3617021,39.2457094 31.0754966,41.5319149 28.2553191,41.5319149 C25.4351417,41.5319149 23.1489362,39.2457094 23.1489362,36.4255319 C23.1489362,34.6169376 24.6571522,31.4016984 27.6800623,26.6269172 L27.6800623,26.6269172 L28.2553191,25.718281 Z M28.2553191,28.2752742 C25.7606077,32.3174559 24.5106383,35.0753345 24.5106383,36.4255319 C24.5106383,38.493662 26.187189,40.1702128 28.2553191,40.1702128 C30.3234493,40.1702128 32,38.493662 32,36.4255319 C32,35.0753345 30.7500306,32.3174559 28.2553191,28.2752742 Z M34.4115845,22.6021401 L34.9582356,23.4655926 C37.9811457,28.2403738 39.4893617,31.455613 39.4893617,33.2642073 C39.4893617,36.1117103 37.3466997,38.3795494 34.5513341,38.3795494 L34.5513341,38.3795494 L34.5513341,37.0178473 C36.5768215,37.0178473 38.1276596,35.3764073 38.1276596,33.2642073 C38.1276596,31.9086808 36.8678037,29.1343393 34.3533814,25.0660274 C34.3392977,25.0864243 34.3250178,25.1071101 34.3105319,25.128099 C34.2876374,25.1612711 33.7984174,25.8708808 33.6540465,26.0797175 C33.5703673,26.200762 33.4926083,26.3130307 33.4178195,26.4207554 C32.8541873,27.2326035 32.4175954,27.8457901 32.0146877,28.3849537 L32.0146877,28.3849537 L30.9239051,27.5698304 C31.3154493,27.0458733 31.7438964,26.4441257 32.2992608,25.6441867 C32.3735013,25.5372516 32.4507523,25.4257164 32.5339429,25.3053787 C32.677723,25.0973966 33.1665004,24.388429 33.1898316,24.3546239 C33.4479232,23.9806711 33.6414183,23.7017443 33.8253094,23.439194 L33.8253094,23.439194 L34.4115845,22.6021401 Z" id="Combined-Shape" fill="#FF5252"></path>
                    </g>
                </g>
            </g>
        </g>
    </g>
</svg>