<?xml version="1.0" encoding="UTF-8"?>
<svg width="64px" height="64px" viewBox="0 0 64 64" version="1.1" xmlns="http://www.w3.org/2000/svg" xmlns:xlink="http://www.w3.org/1999/xlink">
    <!-- Generator: Sketch 59.1 (86144) - https://sketch.com -->
    <title>Group 28 Copy</title>
    <desc>Created with Sketch.</desc>
    <g id="Artboards" stroke="none" stroke-width="1" fill="none" fill-rule="evenodd">
        <g id="MZ-1920-mian" transform="translate(-1365.000000, -1202.000000)" fill-rule="nonzero">
            <g id="Group-3-Copy" transform="translate(1365.000000, 1202.000000)">
                <g id="Group-28-Copy">
                    <path d="M32,64 C49.673112,64 64,49.673112 64,32 C64,14.326888 49.673112,0 32,0 C14.326888,0 0,14.326888 0,32 C0,49.673112 14.326888,64 32,64 Z M32,62.6382979 C15.0789353,62.6382979 1.36170213,48.9210647 1.36170213,32 C1.36170213,15.0789353 15.0789353,1.36170213 32,1.36170213 C48.9210647,1.36170213 62.6382979,15.0789353 62.6382979,32 C62.6382979,48.9210647 48.9210647,62.6382979 32,62.6382979 Z" id="Oval" fill="#DCDCDC"></path>
                    <path d="M39.7352941,22 C42.0906261,22 44,24.0520282 44,26.5833333 L44,29.236 L50,26 L50,41 L44,37.851 L44,39.4166667 C44,41.9479718 42.0906261,44 39.7352941,44 L19.2647059,44 C16.9093739,44 15,41.9479718 15,39.4166667 L15,26.5833333 C15,24.0520282 16.9093739,22 19.2647059,22 L39.7352941,22 Z M39.7352941,23.8333333 L19.2647059,23.8333333 C17.8515067,23.8333333 16.7058824,25.0645503 16.7058824,26.5833333 L16.7058824,39.4166667 C16.7058824,40.9354497 17.8515067,42.1666667 19.2647059,42.1666667 L39.7352941,42.1666667 C41.1484933,42.1666667 42.2941176,40.9354497 42.2941176,39.4166667 L42.2941176,26.5833333 C42.2941176,25.0645503 41.1484933,23.8333333 39.7352941,23.8333333 Z" id="Combined-Shape" fill="#FF5252"></path>
                </g>
            </g>
        </g>
    </g>
</svg>