<?xml version="1.0" encoding="UTF-8"?>
<svg width="64px" height="64px" viewBox="0 0 64 64" version="1.1" xmlns="http://www.w3.org/2000/svg" xmlns:xlink="http://www.w3.org/1999/xlink">
    <!-- Generator: Sketch 59.1 (86144) - https://sketch.com -->
    <title>Group 33</title>
    <desc>Created with Sketch.</desc>
    <defs>
        <rect id="path-1" x="0" y="0" width="36" height="36"></rect>
    </defs>
    <g id="Artboards" stroke="none" stroke-width="1" fill="none" fill-rule="evenodd">
        <g id="MZ-1920-mian" transform="translate(-595.000000, -1098.000000)">
            <g id="Group-2" transform="translate(595.000000, 1098.000000)">
                <g id="Group-33">
                    <g id="noun_disk_1734100">
                        <path d="M32,64 C49.673112,64 64,49.673112 64,32 C64,14.326888 49.673112,0 32,0 C14.326888,0 0,14.326888 0,32 C0,49.673112 14.326888,64 32,64 Z M32,62.6382979 C15.0789353,62.6382979 1.36170213,48.9210647 1.36170213,32 C1.36170213,15.0789353 15.0789353,1.36170213 32,1.36170213 C48.9210647,1.36170213 62.6382979,15.0789353 62.6382979,32 C62.6382979,48.9210647 48.9210647,62.6382979 32,62.6382979 Z" id="Oval" fill="#DCDCDC" fill-rule="nonzero"></path>
                        <rect id="Rectangle" x="14" y="14" width="36" height="36"></rect>
                        <g id="Clipped" transform="translate(14.000000, 14.000000)">
                            <mask id="mask-2" fill="white">
                                <use xlink:href="#path-1"></use>
                            </mask>
                            <g id="Rectangle"></g>
                            <g id="Group" mask="url(#mask-2)" fill="#FF5252">
                                <g transform="translate(3.164063, 3.234375)" id="Shape">
                                    <path d="M23.5425234,0.016453125 C24.1565625,0.0221484375 24.7626563,0.272882813 25.2015469,0.703617188 C26.4374297,1.93190625 27.6695859,3.16413281 28.8979453,4.40001563 C29.3276953,4.8380625 29.5792031,5.4354375 29.5851094,6.05896875 C29.6071172,13.0875469 29.6071172,20.1161953 29.5851094,27.1447734 C29.5735078,28.369125 28.5221953,29.49975 27.2178984,29.5118438 C18.9642656,29.5377188 10.7104922,29.5377188 2.45685938,29.5118438 C1.2290625,29.5004531 0.101953125,28.449 0.08971875,27.1447031 C0.0637734375,18.891 0.0637734375,10.6372266 0.08971875,2.38352344 C0.101320313,1.15010156 1.17253125,0.0283359375 2.45678906,0.016453125 C9.48529688,-0.005484375 16.5139453,-0.005484375 23.5425234,0.016453125 L23.5425234,0.016453125 Z M2.47253906,1.24333594 C1.87122656,1.24516406 1.32250781,1.76617969 1.31660156,2.3911875 C1.29065625,10.6422188 1.23890625,18.8936016 1.31667188,27.1442813 C1.32574219,27.7369453 1.83642188,28.279125 2.46445313,28.2848906 C10.7154141,28.3108359 18.9668672,28.3609688 27.2175469,28.2848203 C27.8123906,28.2756094 28.3523203,27.7599375 28.3581562,27.1370391 C28.3802344,20.1112031 28.4243203,13.0850156 28.3580859,6.05939063 C28.3535859,5.763375 28.231875,5.47305469 28.0249453,5.26211719 C26.7984844,4.02820313 25.5758203,2.79028125 24.3341719,1.57148438 C24.1219687,1.36582031 23.8303828,1.24607813 23.5348594,1.24333594 C16.5141562,1.22146875 9.4933125,1.24333594 2.47253906,1.24333594 Z"></path>
                                    <path d="M21.961125,0.018984375 C22.2683906,0.061875 22.5034453,0.315351562 22.518,0.629859375 C22.518,2.40117188 22.5239062,4.17248438 22.5179297,5.94379688 C22.5066094,7.17939844 21.4354687,8.29821094 20.1513516,8.310375 C16.6087266,8.32176563 13.0660313,8.32176563 9.52340625,8.310375 C8.29771875,8.29877344 7.16125781,7.24921875 7.15675781,5.92952344 L7.15675781,0.629859375 C7.17194531,0.301289063 7.43920313,0.0317109375 7.77023438,0.0163828125 L21.9045234,0.0163828125 C21.9233672,0.0172265625 21.9422812,0.018140625 21.961125,0.018984375 L21.961125,0.018984375 Z M8.38371094,1.24333594 C8.38371094,2.81010938 8.3694375,4.37695313 8.38378125,5.94365625 C8.39334375,6.5390625 8.90458594,7.07751563 9.53121094,7.08349219 C13.0711641,7.0948125 16.6113281,7.11703125 20.1511406,7.08342188 C20.7462656,7.074 21.2889375,6.55882031 21.2910469,5.92748438 L21.2910469,1.24333594 C16.988625,1.24333594 12.6861328,1.24333594 8.38371094,1.24333594 L8.38371094,1.24333594 Z"></path>
                                    <path d="M23.0960391,12.9728672 C24.3260156,12.9845391 25.4581875,14.0381016 25.4626172,15.3537188 L25.4626172,28.8983672 C25.4213438,29.158875 25.2831094,29.4024375 25.0387031,29.4818203 C24.9778828,29.5015781 24.9123516,29.5018594 24.8491406,29.5118438 L4.82561719,29.5118438 C4.69849219,29.4917344 4.56792188,29.4694453 4.46498438,29.3947031 C4.31022656,29.2822031 4.24314844,29.0940469 4.21214063,28.8983672 C4.21214063,24.37875 4.1968125,19.8589922 4.21221094,15.339375 C4.2238125,14.1107344 5.27800781,12.9852422 6.57878906,12.9728672 C12.0844688,12.9552188 17.5902891,12.9552188 23.0960391,12.9728672 Z M6.59510156,14.19975 C5.99596875,14.2016484 5.44507031,14.7128203 5.43909375,15.34725 C5.43909375,15.34725 5.43909375,28.2848906 5.43909375,28.2848906 L24.2356641,28.2848906 C24.2356641,23.9698125 24.2763047,19.6545938 24.2355938,15.3396563 C24.2261016,14.7423516 23.7148594,14.2057266 23.0881641,14.19975 C17.5905,14.1821016 12.0927656,14.19975 6.59510156,14.19975 Z"></path>
                                </g>
                            </g>
                        </g>
                    </g>
                </g>
            </g>
        </g>
    </g>
</svg>