<?xml version="1.0" encoding="UTF-8"?>
<svg width="64px" height="64px" viewBox="0 0 64 64" version="1.1" xmlns="http://www.w3.org/2000/svg" xmlns:xlink="http://www.w3.org/1999/xlink">
    <!-- Generator: Sketch 59.1 (86144) - https://sketch.com -->
    <title>Group 30</title>
    <desc>Created with Sketch.</desc>
    <g id="Artboards" stroke="none" stroke-width="1" fill="none" fill-rule="evenodd">
        <g id="MZ-1920-mian" transform="translate(-209.000000, -1202.000000)" fill-rule="nonzero">
            <g id="Group-32" transform="translate(209.000000, 1202.000000)">
                <g id="Group-30">
                    <g id="Group-28-Copy" fill="#DCDCDC">
                        <path d="M32,63.9690821 C49.6560365,63.9690821 63.9690821,49.6560365 63.9690821,32 C63.9690821,14.3439635 49.6560365,0.0309178744 32,0.0309178744 C14.3439635,0.0309178744 0.0309178744,14.3439635 0.0309178744,32 C0.0309178744,49.6560365 14.3439635,63.9690821 32,63.9690821 Z M32,62.6086957 C15.0952842,62.6086957 1.39130435,48.9047158 1.39130435,32 C1.39130435,15.0952842 15.0952842,1.39130435 32,1.39130435 C48.9047158,1.39130435 62.6086957,15.0952842 62.6086957,32 C62.6086957,48.9047158 48.9047158,62.6086957 32,62.6086957 Z" id="Oval"></path>
                    </g>
                    <g id="Group-29" transform="translate(16.355556, 16.355556)" fill="#FF5252">
                        <polygon id="Line-4" points="4.16872478 4.04644144 11.2478666 11.9121546 12.2658431 10.9959757 5.18670129 3.13026258"></polygon>
                        <path d="M8.21728395,12.6570111 C11.2428044,12.6570111 13.6954733,10.2043422 13.6954733,7.17882175 C13.6954733,4.15330134 11.2428044,1.70063245 8.21728395,1.70063245 C5.19176354,1.70063245 2.73909465,4.15330134 2.73909465,7.17882175 C2.73909465,10.2043422 5.19176354,12.6570111 8.21728395,12.6570111 Z M8.21728395,11.2874637 C5.94814365,11.2874637 4.10864198,9.44796206 4.10864198,7.17882175 C4.10864198,4.90968145 5.94814365,3.07017978 8.21728395,3.07017978 C10.4864243,3.07017978 12.3259259,4.90968145 12.3259259,7.17882175 C12.3259259,9.44796206 10.4864243,11.2874637 8.21728395,11.2874637 Z" id="Oval"></path>
                        <path d="M18.1578038,0 C22.1287993,0 25.3479272,3.21912792 25.3479272,7.19012346 L25.3479272,29.7876543 C25.3479272,33.7586499 22.1287993,36.9777778 18.1578038,36.9777778 C14.1868082,36.9777778 10.9676803,33.7586499 10.9676803,29.7876543 L10.9676803,7.19012346 C10.9676803,3.21912792 14.1868082,0 18.1578038,0 Z M18.1578038,1.36954733 C14.9431883,1.36954733 12.3372276,3.97550802 12.3372276,7.19012346 L12.3372276,29.7876543 C12.3372276,33.0022698 14.9431883,35.6082305 18.1578038,35.6082305 C21.3724192,35.6082305 23.9783799,33.0022698 23.9783799,29.7876543 L23.9783799,7.19012346 C23.9783799,3.97550802 21.3724192,1.36954733 18.1578038,1.36954733 Z" id="Rectangle" transform="translate(18.157804, 18.488889) rotate(-315.000000) translate(-18.157804, -18.488889) "></path>
                        <path d="M9.55954654,16.6250545 L16.4072832,16.6250545 L16.4072832,27.5814331 C16.4072832,29.4723834 14.8743651,31.0053014 12.9834149,31.0053014 C11.0924646,31.0053014 9.55954654,29.4723834 9.55954654,27.5814331 L9.55954654,16.6250545 Z M10.9290939,17.9946019 L10.9290939,27.5814331 C10.9290939,28.7160033 11.8488447,29.6357541 12.9834149,29.6357541 C14.117985,29.6357541 15.0377358,28.7160033 15.0377358,27.5814331 L15.0377358,17.9946019 L10.9290939,17.9946019 Z" id="Rectangle-Copy-24" transform="translate(12.983415, 23.815178) rotate(-315.000000) translate(-12.983415, -23.815178) "></path>
                    </g>
                </g>
            </g>
        </g>
    </g>
</svg>