<?xml version="1.0" encoding="UTF-8"?>
<svg width="64px" height="64px" viewBox="0 0 64 64" version="1.1" xmlns="http://www.w3.org/2000/svg" xmlns:xlink="http://www.w3.org/1999/xlink">
    <!-- Generator: Sketch 59.1 (86144) - https://sketch.com -->
    <title>Group 28</title>
    <desc>Created with Sketch.</desc>
    <g id="Artboards" stroke="none" stroke-width="1" fill="none" fill-rule="evenodd">
        <g id="MZ-1920-mian" transform="translate(-209.000000, -1098.000000)" fill-rule="nonzero">
            <g id="Group-7" transform="translate(209.000000, 1098.000000)">
                <g id="Group-28">
                    <path d="M32,64 C49.673112,64 64,49.673112 64,32 C64,14.326888 49.673112,0 32,0 C14.326888,0 0,14.326888 0,32 C0,49.673112 14.326888,64 32,64 Z M32,62.6382979 C15.0789353,62.6382979 1.36170213,48.9210647 1.36170213,32 C1.36170213,15.0789353 15.0789353,1.36170213 32,1.36170213 C48.9210647,1.36170213 62.6382979,15.0789353 62.6382979,32 C62.6382979,48.9210647 48.9210647,62.6382979 32,62.6382979 Z" id="Oval" fill="#DCDCDC"></path>
                    <g id="Group-27" transform="translate(11.377778, 19.911111)" fill="#FF5252">
                        <path d="M38.1709981,6.23267974 C39.848446,6.23267974 41.2082863,4.84212884 41.2082863,3.12679739 C41.2082863,1.41146593 39.848446,0.0209150327 38.1709981,0.0209150327 C36.4935502,0.0209150327 35.13371,1.41146593 35.13371,3.12679739 C35.13371,4.84212884 36.4935502,6.23267974 38.1709981,6.23267974 Z M38.1709981,4.85228758 C37.2390826,4.85228758 36.4836158,4.07975931 36.4836158,3.12679739 C36.4836158,2.17383546 37.2390826,1.40130719 38.1709981,1.40130719 C39.1029136,1.40130719 39.8583804,2.17383546 39.8583804,3.12679739 C39.8583804,4.07975931 39.1029136,4.85228758 38.1709981,4.85228758 Z" id="Oval"></path>
                        <path d="M27.3717514,20.0366013 C29.0491993,20.0366013 30.4090395,18.6460504 30.4090395,16.930719 C30.4090395,15.2153875 29.0491993,13.8248366 27.3717514,13.8248366 C25.6943035,13.8248366 24.3344633,15.2153875 24.3344633,16.930719 C24.3344633,18.6460504 25.6943035,20.0366013 27.3717514,20.0366013 Z M27.3717514,18.6562092 C26.4398359,18.6562092 25.6843691,17.8836809 25.6843691,16.930719 C25.6843691,15.977757 26.4398359,15.2052288 27.3717514,15.2052288 C28.3036669,15.2052288 29.0591337,15.977757 29.0591337,16.930719 C29.0591337,17.8836809 28.3036669,18.6562092 27.3717514,18.6562092 Z" id="Oval-Copy-9"></path>
                        <path d="M13.1977401,11.0640523 C14.875188,11.0640523 16.2350282,9.67350139 16.2350282,7.95816993 C16.2350282,6.24283848 14.875188,4.85228758 13.1977401,4.85228758 C11.5202922,4.85228758 10.160452,6.24283848 10.160452,7.95816993 C10.160452,9.67350139 11.5202922,11.0640523 13.1977401,11.0640523 Z M13.1977401,9.68366013 C12.2658246,9.68366013 11.5103578,8.91113186 11.5103578,7.95816993 C11.5103578,7.00520801 12.2658246,6.23267974 13.1977401,6.23267974 C14.1296556,6.23267974 14.8851224,7.00520801 14.8851224,7.95816993 C14.8851224,8.91113186 14.1296556,9.68366013 13.1977401,9.68366013 Z" id="Oval-Copy-10"></path>
                        <path d="M3.07344633,24.8679739 C4.75089425,24.8679739 6.11073446,23.477423 6.11073446,21.7620915 C6.11073446,20.04676 4.75089425,18.6562092 3.07344633,18.6562092 C1.39599841,18.6562092 0.0361581921,20.04676 0.0361581921,21.7620915 C0.0361581921,23.477423 1.39599841,24.8679739 3.07344633,24.8679739 Z M3.07344633,23.4875817 C2.14153082,23.4875817 1.38606403,22.7150534 1.38606403,21.7620915 C1.38606403,20.8091296 2.14153082,20.0366013 3.07344633,20.0366013 C4.00536184,20.0366013 4.76082863,20.8091296 4.76082863,21.7620915 C4.76082863,22.7150534 4.00536184,23.4875817 3.07344633,23.4875817 Z" id="Oval-Copy-11"></path>
                        <polygon id="Line-2" points="36.3698884 4.57335181 28.1114054 15.3215246 29.1728611 16.1743606 37.4313441 5.42618784"></polygon>
                        <polygon id="Line-2-Copy" points="11.3308376 8.72499352 4.16081087 19.5299797 5.27782525 20.3050718 12.447852 9.50008567"></polygon>
                        <polygon id="Line-2-Copy-2" transform="translate(20.284746, 12.444444) scale(-1, 1) translate(-20.284746, -12.444444) " points="25.260569 8.74196897 14.6391817 14.9484039 15.3089225 16.1469199 25.9303099 9.94048499"></polygon>
                    </g>
                </g>
            </g>
        </g>
    </g>
</svg>