<?xml version="1.0" encoding="UTF-8"?>
<svg width="90px" height="90px" viewBox="0 0 90 90" version="1.1" xmlns="http://www.w3.org/2000/svg" xmlns:xlink="http://www.w3.org/1999/xlink">
    <!-- Generator: Sketch 59.1 (86144) - https://sketch.com -->
    <title>замок</title>
    <desc>Created with Sketch.</desc>
    <g id="Artboards" stroke="none" stroke-width="1" fill="none" fill-rule="evenodd">
        <g id="MZ-1920-mian" transform="translate(-210.000000, -581.000000)" fill-rule="nonzero">
            <g id="замок" transform="translate(210.000000, 581.000000)">
                <path d="M45,90 C69.8528137,90 90,69.8528137 90,45 C90,20.1471863 69.8528137,0 45,0 C20.1471863,0 0,20.1471863 0,45 C0,69.8528137 20.1471863,90 45,90 Z M45,88.0851064 C21.2047528,88.0851064 1.91489362,68.7952472 1.91489362,45 C1.91489362,21.2047528 21.2047528,1.91489362 45,1.91489362 C68.7952472,1.91489362 88.0851064,21.2047528 88.0851064,45 C88.0851064,68.7952472 68.7952472,88.0851064 45,88.0851064 Z" id="Oval-Copy-19" fill="#DCDCDC"></path>
                <path d="M51.037037,22 C54.3302905,22 57,24.7857838 57,28.2222222 L57,36 L57.9545455,36 C61.2933578,36 64,38.7541271 64,42.1515152 L64,58.8484848 C64,62.2458729 61.2933578,65 57.9545455,65 L32.0454545,65 C28.7066422,65 26,62.2458729 26,58.8484848 L26,42.1515152 C26,38.7541271 28.7066422,36 32.0454545,36 L34,36 L34,28.2222222 C34,24.7857838 36.6697095,22 39.962963,22 L51.037037,22 Z M57.9545455,37.7575758 L57,37.757 L57,38 L34,38 L34,37.757 L32.0454545,37.7575758 C29.6605886,37.7575758 27.7272727,39.7248094 27.7272727,42.1515152 L27.7272727,58.8484848 C27.7272727,61.2751906 29.6605886,63.2424242 32.0454545,63.2424242 L57.9545455,63.2424242 C60.3394114,63.2424242 62.2727273,61.2751906 62.2727273,58.8484848 L62.2727273,42.1515152 C62.2727273,39.7248094 60.3394114,37.7575758 57.9545455,37.7575758 Z M45,43 C47.7614237,43 50,45.3960341 50,48.351692 C50,50.3069733 49.0110594,52.0708816 47.4647132,53.0090251 C47.463342,53.1639746 47.4706527,53.3499802 47.4949256,53.8869453 C47.5219487,54.4847515 47.5318522,54.8545308 47.5246953,55.2625859 C47.484747,57.5402622 46.8117942,59 45,59 C43.1898518,59 42.5108559,57.5425376 42.4538704,55.2560409 C42.4437163,54.8486183 42.4504571,54.4861957 42.4724276,53.8776676 C42.4918414,53.3399541 42.4972856,53.1473104 42.4934166,52.9832949 C40.9698841,52.038012 40,50.288062 40,48.351692 C40,45.3960341 42.2385763,43 45,43 Z M45,44.7838973 C43.1590508,44.7838973 41.6666667,46.3812534 41.6666667,48.351692 C41.6666667,49.7340196 42.4073536,50.9731789 43.5495992,51.5651696 C44.0348721,51.8166716 44.1297793,52.1885488 44.1560088,52.8292403 C44.1666667,53.089561 44.1626959,53.2584165 44.1378512,53.9465529 C44.1172049,54.5184042 44.1110259,54.850624 44.1199444,55.2084712 C44.1557319,56.6444149 44.4220672,57.2161027 45,57.2161027 C45.5735236,57.2161027 45.8333575,56.6524831 45.8583222,55.2291032 C45.8645922,54.8716184 45.8555376,54.5335342 45.8302063,53.9731554 C45.7979789,53.2602192 45.7931763,53.117997 45.8006766,52.8608679 C45.8197458,52.2071335 45.9095312,51.8362068 46.4097689,51.5858646 C47.5738851,51.0032869 48.3333333,49.7513015 48.3333333,48.351692 C48.3333333,46.3812534 46.8409492,44.7838973 45,44.7838973 Z M51.037037,23.7777778 L39.962963,23.7777778 C37.610639,23.7777778 35.7037037,25.7676233 35.7037037,28.2222222 L35.703,36 L55.296,36 L55.2962963,28.2222222 C55.2962963,25.7676233 53.389361,23.7777778 51.037037,23.7777778 Z" id="Combined-Shape" fill="#FFFFFF"></path>
            </g>
        </g>
    </g>
</svg>