<?xml version="1.0" encoding="UTF-8"?>
<svg width="190px" height="59px" viewBox="0 0 190 59" version="1.1" xmlns="http://www.w3.org/2000/svg" xmlns:xlink="http://www.w3.org/1999/xlink">
    <!-- Generator: Sketch 59.1 (86144) - https://sketch.com -->
    <title>лого</title>
    <desc>Created with Sketch.</desc>
    <g id="Artboards" stroke="none" stroke-width="1" fill="none" fill-rule="evenodd">
        <g id="MZ-1920-mian" transform="translate(-1518.000000, -20.000000)" fill="#FFFFFF">
            <g id="header">
                <g id="лого" transform="translate(1518.000000, 20.000000)">
                    <path d="M36.6153901,43 C37.26303,43 37.8549904,43.1356878 38.3918575,43.4058886 C38.9275524,43.6760894 39.3899848,44.068468 39.779741,44.5836117 C40.168911,45.0975807 40.46958,45.7313778 40.6823341,46.4844157 C40.893916,47.2386284 41,48.1020963 41,49.075994 C41,49.9647197 40.8804357,50.7882448 40.6413071,51.5453945 C40.4027647,52.3025441 40.0604826,52.9592496 39.6173914,53.5166856 C39.1737142,54.0735343 38.6380193,54.5076178 38.0097207,54.8206983 C37.3814221,55.1331914 36.6769306,55.2900253 35.8985905,55.2900253 C35.2345398,55.2900253 34.6683678,55.1872315 34.198316,54.9834061 C33.7270921,54.7778186 33.3068588,54.4935203 32.93703,54.1310988 L32.93703,59 L30.0797953,59 L30.0797953,43.2208598 L31.8263716,43.2208598 C32.1962004,43.2208598 32.4394316,43.3947281 32.5548932,43.7430522 L32.7864025,44.8438269 C33.2722789,44.2952017 33.8237985,43.8505452 34.4409612,43.511032 C35.0575378,43.1715188 35.7825428,43 36.6153901,43 Z M27.256906,43.2205661 L27.256906,55.1158633 L24.3996712,55.1158633 L24.3996712,48.1711149 C24.3996712,47.9931348 24.4090488,47.7992951 24.4283901,47.585484 C24.4477314,47.3728478 24.4729336,47.1596241 24.5039969,46.942876 C24.3492667,47.2982488 24.1798839,47.610742 23.9946765,47.8815302 C23.9794379,47.8968024 23.9020728,48.0031205 23.7631672,48.1998972 C23.6242617,48.3978487 23.4449152,48.6510151 23.2251279,48.9599838 C23.0053407,49.26954 22.7568345,49.6196263 22.4790234,50.0084805 C22.2012122,50.3990969 21.9198845,50.7955872 21.6344541,51.1973641 C20.9633702,52.1483535 20.2037853,53.2226954 19.3556995,54.4198025 C19.2478572,54.5825104 19.1066072,54.7411065 18.9337079,54.8955909 C18.7596363,55.05125 18.5615347,55.1276111 18.3376447,55.1276111 L16.5904823,55.1276111 L16.5904823,43.232314 L19.4483032,43.232314 L19.4483032,50.1770623 C19.4483032,50.3550424 19.4383395,50.5506443 19.4189982,50.7626932 C19.3996569,50.9753295 19.3750407,51.1903154 19.3439775,51.4070634 C19.5133602,51.0276075 19.683329,50.714527 19.8527118,50.4666471 L19.8823424,50.4216571 C19.9167269,50.371881 19.9802861,50.2825973 20.0724991,50.154154 C20.2114046,49.9603143 20.3907511,49.7094974 20.6105384,49.3999413 C20.8309117,49.0915599 21.0794179,48.7414736 21.3566429,48.3508572 C21.6344541,47.9602408 21.9157818,47.5614009 22.2012122,47.1508132 C22.8722961,46.1998238 23.6359836,45.1254818 24.4916888,43.9283748 C24.6001172,43.7586182 24.7425394,43.5970851 24.9195414,43.4472998 C25.0971295,43.2957524 25.2975755,43.2205661 25.5214655,43.2205661 L27.256906,43.2205661 Z M2.35963633,43.1709314 C2.56008234,43.1709314 2.75877005,43.2132237 2.95569946,43.2983957 C3.15204277,43.3835677 3.31556451,43.5533243 3.44743689,43.8076655 L6.2466478,48.8163662 C6.37031478,49.0489739 6.48636247,49.2933294 6.59420476,49.5523698 C6.70204706,49.8114101 6.80227006,50.0733874 6.89487377,50.3353647 C6.98747749,50.0733874 7.08594219,49.8102353 7.19026789,49.5470832 C7.29400749,49.2851059 7.40771078,49.0419252 7.53137776,48.8163662 L10.3077308,43.8076655 C10.4466364,43.5462756 10.6119164,43.373582 10.8053292,43.2931091 C10.9969837,43.2108741 11.1944992,43.1709314 11.3949452,43.1709314 L13.7545816,43.1709314 L13.7545816,55.0891369 L11.175158,55.0891369 L11.175158,48.4574691 C11.175158,48.1866809 11.1886382,47.8812365 11.2155988,47.5411359 C11.2425594,47.2016227 11.287103,46.8850178 11.3492295,46.5901465 L7.85549075,53.0144646 C7.68493581,53.346929 7.41533007,53.5125739 7.04550133,53.5125739 L6.74483232,53.5125739 C6.37383137,53.5125739 6.10422563,53.346929 5.9348429,53.0144646 L2.3942162,46.5566651 C2.44872345,46.8491868 2.493267,47.1704908 2.52784687,47.5188149 C2.56242674,47.8653768 2.57942362,48.1796321 2.57942362,48.4574691 L2.57942362,55.0891369 L0,55.0891369 L0,43.1709314 L2.35963633,43.1709314 Z M35.6325014,45.2614633 C35.0381965,45.2614633 34.5335649,45.3871655 34.1168482,45.6379823 C33.7001315,45.8899739 33.3068588,46.2424098 32.93703,46.6994016 L32.93703,52.0323433 C33.2605569,52.4258967 33.6133888,52.7049084 33.9955256,52.8670289 C34.3776625,53.028562 34.7920348,53.110797 35.2386425,53.110797 C35.6711839,53.110797 36.0603539,53.028562 36.4073248,52.8670289 C36.7542957,52.7049084 37.0491037,52.4570285 37.292335,52.124564 C37.5349801,51.7932743 37.7225319,51.3727009 37.8538182,50.8675429 C37.9839323,50.3606226 38.0501615,49.7638313 38.0501615,49.075994 C38.0501615,48.3793458 37.993896,47.7907779 37.8825371,47.3079408 C37.770006,46.8239289 37.610587,46.4321377 37.4025217,46.1308051 C37.1938703,45.8288851 36.9412614,45.6097874 36.6446951,45.4694005 C36.3475427,45.3307757 36.0099494,45.2614633 35.6325014,45.2614633 Z" id="Combined-Shape"></path>
                    <path d="M111.63915,38.0789914 C111.919978,38.0789914 112.174655,38.1360263 112.403182,38.251842 C112.63171,38.3676577 112.827265,38.5358524 112.990418,38.7570081 C113.153571,38.9775818 113.280341,39.2511164 113.37016,39.5781941 C113.459979,39.9041077 113.504889,40.2783264 113.504889,40.7008501 C113.504889,41.0791427 113.454863,41.4312458 113.35538,41.7577414 C113.255896,42.084237 113.113209,42.3670835 112.926749,42.6062808 C112.740857,42.8460601 112.51574,43.0334605 112.251399,43.1690638 C111.987058,43.3046672 111.688039,43.3727598 111.355481,43.3727598 C111.061579,43.3727598 110.812586,43.3238728 110.609072,43.2266807 C110.40442,43.1294886 110.219097,42.9956312 110.053102,42.8251085 L110.053102,45 L109.000284,45 L109.000284,38.1738555 L109.636977,38.1738555 C109.780802,38.1738555 109.871758,38.2425302 109.910983,38.3798795 L109.999097,38.917637 C110.207727,38.6662179 110.44535,38.4636859 110.711397,38.3094589 C110.977444,38.1558139 111.286695,38.0789914 111.63915,38.0789914 Z M129.916169,38.0937739 C130.222577,38.0937739 130.506815,38.1449889 130.768314,38.2468369 C131.029245,38.3492669 131.254361,38.498838 131.443664,38.6961321 C131.632967,38.8940082 131.780202,39.1361155 131.886507,39.4218719 C131.992243,39.7087923 132.04568,40.0341239 132.04568,40.3990308 C132.04568,40.5666435 132.028057,40.6789673 131.991675,40.7354202 C131.955861,40.7924551 131.890486,40.8209725 131.796119,40.8209725 L128.589345,40.8209725 C128.601852,41.1125488 128.646193,41.3645499 128.721232,41.5769758 C128.796271,41.7894016 128.896891,41.9663261 129.022524,42.1065854 C129.148158,42.2474266 129.298235,42.3521846 129.472757,42.4208592 C129.64728,42.4895339 129.842835,42.5238712 130.058288,42.5238712 C130.263508,42.5238712 130.441441,42.4994277 130.591518,42.4505407 C130.741596,42.4022356 130.872346,42.3486927 130.983198,42.2899118 C131.094051,42.2317129 131.188987,42.17817 131.266868,42.129283 C131.345886,42.0809779 131.417514,42.0565344 131.48232,42.0565344 C131.567592,42.0565344 131.632967,42.0902897 131.678445,42.1572184 L131.977463,42.5541346 C131.852967,42.7042877 131.712553,42.8317432 131.556222,42.9353372 C131.399323,43.0395131 131.232759,43.1239015 131.056532,43.1890842 C130.880304,43.2548489 130.699529,43.301408 130.513069,43.3299255 C130.327177,43.3584429 130.145833,43.3724106 129.969605,43.3724106 C129.623972,43.3724106 129.302783,43.3130478 129.007744,43.1943221 C128.712136,43.0755964 128.456322,42.9004179 128.239164,42.6693684 C128.022006,42.4383189 127.8526,42.1519805 127.72981,41.8103532 C127.607019,41.4687259 127.546192,41.0758836 127.546192,40.6300803 C127.546192,40.2750672 127.600766,39.9439157 127.710481,39.6354617 C127.819629,39.3275898 127.97596,39.059875 128.180611,38.8323174 C128.384126,38.6041779 128.63255,38.4243434 128.924178,38.292232 C129.216375,38.1595386 129.547228,38.0937739 129.916169,38.0937739 Z M116.613885,38.0937739 C116.920293,38.0937739 117.204531,38.1449889 117.46603,38.2468369 C117.726961,38.3492669 117.952077,38.498838 118.14138,38.6961321 C118.330683,38.8940082 118.477918,39.1361155 118.584223,39.4218719 C118.689959,39.7087923 118.743396,40.0341239 118.743396,40.3990308 C118.743396,40.5666435 118.725773,40.6789673 118.689391,40.7354202 C118.653577,40.7924551 118.588202,40.8209725 118.493835,40.8209725 L115.287061,40.8209725 C115.299568,41.1125488 115.343909,41.3645499 115.418948,41.5769758 C115.493987,41.7894016 115.594607,41.9663261 115.72024,42.1065854 C115.845873,42.2474266 115.995951,42.3521846 116.170473,42.4208592 C116.344996,42.4895339 116.540551,42.5238712 116.756004,42.5238712 C116.961224,42.5238712 117.139157,42.4994277 117.289234,42.4505407 C117.439312,42.4022356 117.570062,42.3486927 117.680914,42.2899118 C117.791767,42.2317129 117.886703,42.17817 117.964584,42.129283 C118.043602,42.0809779 118.11523,42.0565344 118.180036,42.0565344 C118.265308,42.0565344 118.330683,42.0902897 118.376161,42.1572184 L118.675179,42.5541346 C118.550683,42.7042877 118.410269,42.8317432 118.253938,42.9353372 C118.097039,43.0395131 117.930475,43.1239015 117.754248,43.1890842 C117.57802,43.2548489 117.397245,43.301408 117.210785,43.3299255 C117.024893,43.3584429 116.843549,43.3724106 116.667321,43.3724106 C116.321688,43.3724106 116.000499,43.3130478 115.70546,43.1943221 C115.409852,43.0755964 115.154038,42.9004179 114.93688,42.6693684 C114.719722,42.4383189 114.550316,42.1519805 114.427526,41.8103532 C114.304735,41.4687259 114.243908,41.0758836 114.243908,40.6300803 C114.243908,40.2750672 114.298482,39.9439157 114.408197,39.6354617 C114.517345,39.3275898 114.673676,39.059875 114.878327,38.8323174 C115.081842,38.6041779 115.330266,38.4243434 115.621894,38.292232 C115.914091,38.1595386 116.244944,38.0937739 116.613885,38.0937739 Z M139.624717,38.1739719 L139.624717,41.3836391 C139.624717,41.4540598 139.620738,41.5326282 139.612211,41.6193445 C139.604252,41.7066428 139.593451,41.7939411 139.580376,41.8806574 C139.646319,41.7270124 139.712831,41.5995569 139.781048,41.4988729 L141.950353,38.4451786 C141.989578,38.3782499 142.041878,38.3165591 142.107252,38.2595242 C142.172059,38.2024894 142.245961,38.1739719 142.327253,38.1739719 L142.963946,38.1739719 L142.963946,43.2972177 L141.911128,43.2972177 L141.911128,40.0875505 C141.911128,40.0171299 141.914539,39.9403074 141.921361,39.857083 C141.927614,39.7732766 141.937278,39.6877243 141.950353,39.600426 C141.91795,39.6743386 141.886115,39.7418492 141.854849,39.804122 C141.824151,39.8658128 141.790611,39.9216837 141.754797,39.9723167 L139.585492,43.0312489 C139.546268,43.0946857 139.493968,43.1557945 139.429162,43.2145753 C139.363787,43.2727742 139.290453,43.3024556 139.208593,43.3024556 L138.5719,43.3024556 L138.5719,38.1739719 L139.624717,38.1739719 Z M147.864722,38.1739719 L147.864722,43.2972177 L146.860793,43.2972177 L146.860793,41.1979848 L146.572007,41.1979848 C146.47764,41.1979848 146.39919,41.2061326 146.337226,41.2230103 C146.275262,41.2398879 146.221826,41.2631675 146.178053,41.2928489 C146.13428,41.3231123 146.094487,41.3603596 146.060378,41.4034267 C146.02627,41.4476579 145.99273,41.4959629 145.960327,41.5495059 L145.025183,42.9206711 C144.956398,43.0481266 144.875674,43.1424087 144.782444,43.2046815 C144.689783,43.2663723 144.550506,43.2972177 144.364046,43.2972177 L143.639239,43.2972177 L144.985959,41.4336902 C145.109886,41.2131165 145.282703,41.0617994 145.504977,40.982067 C145.263375,40.9448197 145.057587,40.881383 144.888181,40.7905927 C144.718206,40.7003845 144.581204,40.5950446 144.476604,40.4745729 C144.372004,40.3541013 144.296397,40.2225718 144.248645,40.0799846 C144.201462,39.9379794 144.178154,39.7965562 144.178154,39.6557149 C144.178154,39.4718065 144.212831,39.2908081 144.283322,39.1133015 C144.353245,38.935795 144.465235,38.7774941 144.618723,38.6383988 C144.772212,38.4998855 144.970041,38.3875617 145.213349,38.3020094 C145.456657,38.2164571 145.749422,38.1739719 146.092213,38.1739719 L147.864722,38.1739719 Z M134.077641,38.1739719 L134.077641,40.1579711 L136.236713,40.1579711 L136.236713,38.1739719 L137.284415,38.1739719 L137.284415,43.2972177 L136.236713,43.2972177 L136.236713,40.9715912 L134.077641,40.9715912 L134.077641,43.2972177 L133.024823,43.2972177 L133.024823,38.1739719 L134.077641,38.1739719 Z M120.77513,38.1739719 L120.77513,42.4835976 L122.606191,42.4835976 L122.606191,38.1739719 L123.659009,38.1739719 L123.659009,42.4835976 L125.490071,42.4835976 L125.490071,38.1739719 L126.537772,38.1739719 L126.537772,43.2972177 L119.722312,43.2972177 L119.722312,38.1739719 L120.77513,38.1739719 Z M111.286695,38.9473184 C111.018943,38.9473184 110.788142,39.0072632 110.594291,39.1259889 C110.399872,39.2447146 110.219097,39.4146552 110.053102,39.6352289 L110.053102,42.0114885 C110.199769,42.2058727 110.360648,42.342058 110.53517,42.4206265 C110.709692,42.4997769 110.903542,42.5387701 111.115584,42.5387701 C111.526592,42.5387701 111.847781,42.3851251 112.077445,42.0766712 C112.307678,41.7687992 112.42251,41.3096102 112.42251,40.7008501 C112.42251,40.3859942 112.396929,40.1171155 112.344629,39.8942139 C112.291761,39.6718942 112.217291,39.4897318 112.118944,39.3494725 C112.021166,39.2086313 111.901786,39.1067833 111.761941,39.0427645 C111.621528,38.9799098 111.462923,38.9473184 111.286695,38.9473184 Z M146.860793,38.88749 L146.121774,38.88749 C145.9518,38.88749 145.810249,38.9125155 145.695985,38.9625665 C145.581722,39.0126175 145.490197,39.0772182 145.421411,39.1563687 C145.353194,39.2349372 145.304305,39.3228174 145.274745,39.4200095 C145.245184,39.5166197 145.230403,39.6120658 145.230403,39.705766 C145.230403,39.957185 145.317949,40.1544792 145.492471,40.2982304 C145.666993,40.4425635 145.902911,40.5147301 146.200224,40.5147301 L146.860793,40.5147301 L146.860793,38.88749 Z M116.633213,38.8771306 C116.251197,38.8771306 115.951042,38.9894544 115.732178,39.21352 C115.513315,39.4381676 115.375175,39.7530234 115.316054,40.1580875 L117.798589,40.1580875 C117.798589,39.977089 117.773576,39.8088943 117.722413,39.6529214 C117.671819,39.4975304 117.597917,39.3619271 117.500139,39.2466933 C117.401793,39.1308776 117.280139,39.0406694 117.135177,38.9749047 C116.989647,38.9097219 116.822515,38.8771306 116.633213,38.8771306 Z M129.935497,38.8771306 C129.553481,38.8771306 129.253326,38.9894544 129.034462,39.21352 C128.815599,39.4381676 128.677459,39.7530234 128.618338,40.1580875 L131.100873,40.1580875 C131.100873,39.977089 131.07586,39.8088943 131.024697,39.6529214 C130.974103,39.4975304 130.900201,39.3619271 130.802423,39.2466933 C130.704077,39.1308776 130.582423,39.0406694 130.437461,38.9749047 C130.291931,38.9097219 130.124799,38.8771306 129.935497,38.8771306 Z M151.311733,26.6276088 L151.311733,30.9366525 L153.470237,30.9366525 L153.470237,26.6276088 L154.518507,26.6276088 L154.518507,30.9366525 L155.433754,30.9366525 L155.433754,33.161595 C155.433754,33.262279 155.405898,33.3420114 155.350756,33.4002103 C155.295045,33.4589911 155.223417,33.4880906 155.135304,33.4880906 L154.484398,33.4880906 L154.484398,31.7502726 L150.258347,31.7502726 L150.258347,26.6276088 L151.311733,26.6276088 Z M123.590621,24.5175508 L123.590621,26.5516011 C123.995376,26.5719707 124.362043,26.6470472 124.692328,26.7779946 C125.021476,26.9083601 125.302303,27.0876126 125.534241,27.3151701 C125.765611,27.5433097 125.945249,27.8145163 126.072588,28.1287902 C126.199927,28.443646 126.263596,28.7951672 126.263596,29.1839356 C126.263596,29.572122 126.199927,29.9236431 126.072588,30.2384989 C125.945249,30.5533548 125.765611,30.8245615 125.534241,31.052119 C125.302303,31.2796766 125.021476,31.460093 124.692328,31.5922045 C124.362043,31.7248979 123.995376,31.8005564 123.590621,31.820926 L123.590621,33.4883234 L122.606021,33.4883234 L122.606021,31.820926 C122.201266,31.8005564 121.834599,31.7248979 121.504883,31.5922045 C121.175166,31.460093 120.894339,31.2796766 120.662401,31.052119 C120.431031,30.8245615 120.251393,30.5533548 120.124054,30.2384989 C119.996715,29.9236431 119.933046,29.572122 119.933046,29.1839356 C119.933046,28.7986591 119.996715,28.4488839 120.124054,28.1340281 C120.251393,27.8197542 120.431031,27.5479656 120.662401,27.320408 C120.894339,27.0928505 121.175166,26.913016 121.504883,26.7803226 C121.834599,26.6482112 122.201266,26.5719707 122.606021,26.5516011 L122.606021,24.5175508 L123.590621,24.5175508 Z M135.487974,26.5321044 C135.768801,26.5321044 136.02291,26.5897213 136.251437,26.705537 C136.479964,26.8207708 136.67552,26.9889655 136.838673,27.2101212 C137.002394,27.4306949 137.128596,27.7042295 137.218415,28.0313071 C137.308234,28.3572207 137.353144,28.7314394 137.353144,29.1539631 C137.353144,29.5322557 137.303118,29.8843589 137.203634,30.2108545 C137.104151,30.5373501 136.961464,30.8201966 136.775572,31.0599759 C136.589112,31.2991732 136.363995,31.4865735 136.099654,31.6221769 C135.835312,31.7577802 135.536294,31.8258729 135.203736,31.8258729 C134.909833,31.8258729 134.660841,31.7769858 134.457326,31.6797937 C134.253243,31.5826016 134.06792,31.4487443 133.901357,31.2782216 L133.901357,33.4531131 L132.848539,33.4531131 L132.848539,26.6275506 L133.485232,26.6275506 C133.629057,26.6275506 133.720013,26.6956432 133.759238,26.8329925 L133.847352,27.37075 C134.055982,27.1193309 134.293605,26.9167989 134.560221,26.7625719 C134.825699,26.6089269 135.13495,26.5321044 135.487974,26.5321044 Z M147.233543,26.5317552 C147.520623,26.5317552 147.775869,26.5794783 147.99928,26.6749244 C148.222691,26.7703706 148.410857,26.9053919 148.56264,27.0794065 C148.714423,27.2534211 148.829824,27.4606091 148.909979,27.6998064 C148.990134,27.9390037 149.029927,28.2043905 149.029927,28.4959668 L149.029927,31.7504472 L148.560366,31.7504472 C148.458609,31.7504472 148.382433,31.7347335 148.330133,31.7027241 C148.277833,31.6707147 148.233492,31.606696 148.197678,31.5095039 L148.094784,31.092218 C147.967445,31.2097797 147.841812,31.3145377 147.717884,31.4064919 C147.593956,31.4990281 147.465481,31.5764326 147.333594,31.6398693 C147.201139,31.7038881 147.05902,31.7516111 146.907806,31.7830385 C146.756023,31.8150479 146.588322,31.8307616 146.405841,31.8307616 C146.203464,31.8307616 146.01473,31.8022441 145.840208,31.7452093 C145.665686,31.6881744 145.515039,31.6020401 145.387701,31.4868063 C145.259794,31.3709906 145.159742,31.2278214 145.086408,31.0572987 C145.012506,30.8867761 144.976124,30.68599 144.976124,30.4543585 C144.976124,30.2570644 145.027287,30.0644261 145.130181,29.8770258 C145.233075,29.6896255 145.402481,29.5214308 145.639536,29.3724417 C145.876022,29.2234526 146.188115,29.100071 146.574679,29.0028789 C146.961811,28.9056868 147.438762,28.8503979 148.00667,28.8370121 L148.00667,28.4959668 C148.00667,28.127568 147.929926,27.8528694 147.776437,27.6718709 C147.623517,27.4908725 147.397832,27.4006642 147.101088,27.4006642 C146.89871,27.4006642 146.728736,27.4262717 146.591733,27.4786507 C146.45473,27.5304477 146.335919,27.5863186 146.234162,27.6468454 C146.133541,27.7067903 146.043154,27.7632432 145.965272,27.8150401 C145.886823,27.8668371 145.803825,27.8930266 145.715711,27.8930266 C145.643515,27.8930266 145.582688,27.873821 145.531525,27.8354097 C145.480931,27.7969985 145.439432,27.7492754 145.407029,27.6916586 L145.216021,27.3401374 C145.780518,26.801216 146.453025,26.5317552 147.233543,26.5317552 Z M129.416535,26.5467705 C129.785476,26.5467705 130.119172,26.6090433 130.41819,26.7330069 C130.71664,26.8563885 130.970749,27.0321491 131.181653,27.2602886 C131.392558,27.4878461 131.554574,27.7642907 131.668837,28.0890404 C131.783101,28.41379 131.840517,28.7786969 131.840517,29.183761 C131.840517,29.588825 131.783101,29.9537319 131.668837,30.2790635 C131.554574,30.6038132 131.392558,30.8808398 131.181653,31.1101433 C130.970749,31.3394468 130.71664,31.5157894 130.41819,31.6397529 C130.119172,31.7637165 129.785476,31.8259893 129.416535,31.8259893 C129.044752,31.8259893 128.709351,31.7637165 128.410332,31.6397529 C128.111882,31.5157894 127.856637,31.3394468 127.644027,31.1101433 C127.431985,30.8808398 127.268832,30.6038132 127.154569,30.2790635 C127.040305,29.9537319 126.983457,29.588825 126.983457,29.183761 C126.983457,28.7786969 127.040305,28.41379 127.154569,28.0890404 C127.268832,27.7642907 127.431985,27.4878461 127.644027,27.2602886 C127.856637,27.0321491 128.111882,26.8563885 128.410332,26.7330069 C128.709351,26.6090433 129.044752,26.5467705 129.416535,26.5467705 Z M187.86992,26.5469451 C188.176897,26.5469451 188.460567,26.5981601 188.722066,26.7000081 C188.982996,26.8024381 189.208113,26.9520092 189.397415,27.1493034 C189.586718,27.3471795 189.734522,27.5892868 189.840827,27.8756252 C189.946563,28.1619636 190,28.4872952 190,28.8522021 C190,29.0198148 189.981809,29.1321386 189.945995,29.1891735 C189.909612,29.2456264 189.844806,29.2741438 189.749871,29.2741438 L186.543097,29.2741438 C186.556172,29.5657201 186.600513,29.8177212 186.674983,30.030147 C186.750022,30.2425729 186.850642,30.4194974 186.976276,30.5597567 C187.101909,30.7005979 187.251987,30.8053558 187.427077,30.8740305 C187.601599,30.9427052 187.796587,30.9770425 188.012039,30.9770425 C188.217259,30.9770425 188.395192,30.952599 188.54527,30.9037119 C188.695347,30.8554069 188.826097,30.8018639 188.93695,30.7436651 C189.048371,30.6848842 189.142738,30.6313413 189.221188,30.5830362 C189.299637,30.5341492 189.371265,30.5097056 189.43664,30.5097056 C189.521343,30.5097056 189.586718,30.543461 189.632196,30.6103897 L189.931214,31.0073059 C189.806718,31.157459 189.666873,31.2849145 189.509974,31.3885084 C189.353074,31.4926844 189.187079,31.5770728 189.010852,31.6422555 C188.834624,31.7080202 188.65328,31.7545793 188.46682,31.7830967 C188.280928,31.8116142 188.100153,31.8255819 187.923925,31.8255819 C187.577723,31.8255819 187.257103,31.7662191 186.961495,31.6474934 C186.666456,31.5287677 186.410073,31.3535891 186.192916,31.1225396 C185.975758,30.8914902 185.806352,30.6051518 185.683561,30.2635244 C185.561339,29.9218971 185.500512,29.5290548 185.500512,29.0838335 C185.500512,28.7282385 185.555085,28.397087 185.664233,28.089215 C185.77338,27.780761 185.93028,27.5130462 186.134362,27.2854887 C186.338445,27.0573492 186.586301,26.8775147 186.878498,26.7454033 C187.170694,26.6132918 187.500979,26.5469451 187.86992,26.5469451 Z M164.084993,26.5467705 C164.453934,26.5467705 164.78763,26.6090433 165.08608,26.7330069 C165.385098,26.8563885 165.639207,27.0321491 165.849543,27.2602886 C166.060448,27.4878461 166.223032,27.7642907 166.337296,28.0890404 C166.45156,28.41379 166.508407,28.7786969 166.508407,29.183761 C166.508407,29.588825 166.45156,29.9537319 166.337296,30.2790635 C166.223032,30.6038132 166.060448,30.8808398 165.849543,31.1101433 C165.639207,31.3394468 165.385098,31.5157894 165.08608,31.6397529 C164.78763,31.7637165 164.453934,31.8259893 164.084993,31.8259893 C163.71321,31.8259893 163.377809,31.7637165 163.078791,31.6397529 C162.780341,31.5157894 162.524527,31.3394468 162.312485,31.1101433 C162.100443,30.8808398 161.937291,30.6038132 161.823027,30.2790635 C161.708763,29.9537319 161.651916,29.588825 161.651916,29.183761 C161.651916,28.7786969 161.708763,28.41379 161.823027,28.0890404 C161.937291,27.7642907 162.100443,27.4878461 162.312485,27.2602886 C162.524527,27.0321491 162.780341,26.8563885 163.078791,26.7330069 C163.377809,26.6090433 163.71321,26.5467705 164.084993,26.5467705 Z M157.304097,26.6274342 L157.304097,29.8371014 C157.304097,29.90694 157.300117,29.9860905 157.29159,30.0728068 C157.283632,30.1601051 157.272831,30.2468214 157.259756,30.3341197 C157.32513,30.1798927 157.392211,30.0530192 157.460428,29.9523351 L159.629733,26.8986409 C159.668957,26.8317122 159.720689,26.7700214 159.786632,26.7124045 C159.851438,26.6553696 159.924772,26.6274342 160.006632,26.6274342 L160.643325,26.6274342 L160.643325,31.75068 L159.590508,31.75068 L159.590508,28.5410127 C159.590508,28.4705921 159.593919,28.3937696 159.600172,28.3099633 C159.606994,28.2261569 159.616658,28.1411866 159.629733,28.0538883 C159.597329,28.1278008 159.565495,28.1953115 159.534229,28.2570023 C159.503531,28.3192751 159.469991,28.375146 159.434177,28.425197 L157.264872,31.4841292 C157.225647,31.5481479 157.173347,31.6092567 157.107973,31.6674556 C157.043166,31.7262364 156.969833,31.7553359 156.887972,31.7553359 L156.251279,31.7553359 L156.251279,26.6274342 L157.304097,26.6274342 Z M110.052818,26.6274342 L110.052818,29.8371014 C110.052818,29.90694 110.048838,29.9860905 110.040311,30.0728068 C110.032353,30.1601051 110.02212,30.2468214 110.009045,30.3341197 C110.07442,30.1798927 110.140932,30.0530192 110.209717,29.9523351 L112.378453,26.8986409 C112.417678,26.8317122 112.469978,26.7700214 112.535353,26.7124045 C112.600728,26.6553696 112.674061,26.6274342 112.755353,26.6274342 L113.392046,26.6274342 L113.392046,31.75068 L112.339229,31.75068 L112.339229,28.5410127 C112.339229,28.4705921 112.342639,28.3937696 112.349461,28.3099633 C112.355714,28.2261569 112.365379,28.1411866 112.378453,28.0538883 C112.34605,28.1278008 112.314216,28.1953115 112.28295,28.2570023 C112.252252,28.3192751 112.218712,28.375146 112.182898,28.425197 L110.013593,31.4841292 C109.974368,31.5481479 109.922068,31.6092567 109.857262,31.6674556 C109.791887,31.7262364 109.718554,31.7553359 109.637262,31.7553359 L109,31.7553359 L109,26.6274342 L110.052818,26.6274342 Z M179.610246,26.6272014 L179.610246,28.5762812 L180.579498,28.5762812 C180.9257,28.5762812 181.217328,28.6187664 181.456088,28.7043187 C181.69428,28.7898711 181.886993,28.9039408 182.03366,29.048274 C182.180327,29.1920252 182.286632,29.3590559 182.352007,29.5482022 C182.417381,29.7373485 182.449785,29.9340607 182.449785,30.1383387 C182.449785,30.37579 182.408854,30.5928718 182.327562,30.78842 C182.245702,30.9845501 182.125753,31.1544908 181.967717,31.298242 C181.809112,31.4425752 181.615262,31.553735 181.385029,31.6323035 C181.154796,31.7114539 180.891592,31.7504472 180.594279,31.7504472 L178.611434,31.7504472 L178.611434,26.6272014 L179.610246,26.6272014 Z M168.569815,26.6274342 L168.569815,28.6114334 L170.728887,28.6114334 L170.728887,26.6274342 L171.776589,26.6274342 L171.776589,31.75068 L170.728887,31.75068 L170.728887,29.4250534 L168.569815,29.4250534 L168.569815,31.75068 L167.516997,31.75068 L167.516997,26.6274342 L168.569815,26.6274342 Z M139.233094,26.6123607 C139.304722,26.6123607 139.375782,26.6286563 139.445704,26.6624117 C139.516195,26.696167 139.577591,26.7613497 139.62989,26.8579599 L140.985706,29.2388753 C141.031184,29.3261736 141.073251,29.4198737 141.110771,29.5205578 C141.14829,29.6206598 141.184673,29.7213439 141.221055,29.8220279 C141.256869,29.7213439 141.294389,29.6206598 141.333613,29.5205578 C141.372838,29.4198737 141.414905,29.3261736 141.460952,29.2388753 L142.797439,26.8579599 C142.846328,26.7578578 142.906587,26.6920931 142.978783,26.6600837 C143.050411,26.6280744 143.122039,26.6123607 143.194236,26.6123607 L144.050929,26.6123607 L144.050929,31.7507382 L143.105553,31.7507382 L143.105553,28.6510668 C143.105553,28.5439809 143.112375,28.4229272 143.12545,28.2873239 C143.138525,28.1517206 143.155011,28.025429 143.174339,27.9078673 L141.583174,30.8410899 C141.550771,30.9016168 141.508136,30.9493398 141.455836,30.9842591 C141.403536,31.0197605 141.344983,31.0372201 141.279608,31.0372201 L141.16705,31.0372201 C141.101675,31.0372201 141.043691,31.0197605 140.993096,30.9842591 C140.942502,30.9493398 140.901003,30.9016168 140.868031,30.8410899 L139.247875,27.8927356 C139.267203,28.0102973 139.284257,28.1383348 139.299037,28.2768481 C139.313818,28.4165254 139.321208,28.5404889 139.321208,28.6510668 L139.321208,31.7507382 L138.371284,31.7507382 L138.371284,26.6123607 L139.233094,26.6123607 Z M174.116891,26.6274342 L174.116891,28.6114334 L176.275964,28.6114334 L176.275964,26.6274342 L177.323665,26.6274342 L177.323665,31.75068 L176.275964,31.75068 L176.275964,29.4250534 L174.116891,29.4250534 L174.116891,31.75068 L173.064074,31.75068 L173.064074,26.6274342 L174.116891,26.6274342 Z M184.496299,26.6272014 L184.496299,31.7504472 L183.443481,31.7504472 L183.443481,26.6272014 L184.496299,26.6272014 Z M115.727062,26.6274342 L115.727062,28.6114334 L117.886703,28.6114334 L117.886703,26.6274342 L118.934404,26.6274342 L118.934404,31.75068 L117.886703,31.75068 L117.886703,29.4250534 L115.727062,29.4250534 L115.727062,31.75068 L114.674813,31.75068 L114.674813,26.6274342 L115.727062,26.6274342 Z M148.00667,29.510373 C147.631476,29.5237587 147.314835,29.5546041 147.057315,29.6034912 C146.798658,29.6517962 146.590028,29.713487 146.430286,29.7891455 C146.269976,29.8642221 146.155143,29.9538483 146.085221,30.0574423 C146.01473,30.1616182 145.980053,30.275688 145.980053,30.3990696 C145.980053,30.5195412 145.998813,30.6231352 146.036332,30.7081055 C146.073851,30.7936579 146.125583,30.8640785 146.192663,30.9187854 C146.259743,30.9746563 146.337624,31.0142316 146.428012,31.0392571 C146.517263,31.0648646 146.616178,31.0770863 146.724188,31.0770863 C146.998194,31.0770863 147.234111,31.0247074 147.431372,30.9187854 C147.628634,30.8134455 147.820778,30.6603825 148.00667,30.4595964 L148.00667,29.510373 Z M122.640698,27.3605652 C122.108604,27.3978125 121.69987,27.574155 121.413926,27.8901749 C121.128551,28.2067767 120.985864,28.6397762 120.985864,29.1891735 C120.985864,29.7379887 121.128551,30.1704063 121.413926,30.4846801 C121.69987,30.799536 122.108604,30.9752965 122.640698,31.0119618 L122.640698,27.3605652 Z M123.561061,27.3605652 L123.561061,31.0119618 C124.093154,30.9752965 124.501889,30.799536 124.787832,30.4846801 C125.073207,30.1704063 125.215895,29.7379887 125.215895,29.1891735 C125.215895,28.6397762 125.073207,28.2067767 124.787832,27.8901749 C124.501889,27.574155 124.093154,27.3978125 123.561061,27.3605652 Z M135.13495,27.4004314 C134.867766,27.4004314 134.636396,27.4603763 134.442546,27.579102 C134.248127,27.6978276 134.06792,27.8677683 133.901357,28.088924 L133.901357,30.4646015 C134.048024,30.6589857 134.208902,30.795171 134.383993,30.8743215 C134.558515,30.95289 134.751797,30.9918832 134.963839,30.9918832 C135.374847,30.9918832 135.696036,30.8382382 135.926269,30.5297842 C136.155933,30.2219123 136.270765,29.7627232 136.270765,29.1539631 C136.270765,28.8391073 136.245184,28.5702286 136.192884,28.3473269 C136.140584,28.1250073 136.065545,27.9428448 135.967767,27.8025856 C135.869421,27.6623263 135.750041,27.5598963 135.610196,27.4958776 C135.469782,27.4330228 135.311178,27.4004314 135.13495,27.4004314 Z M164.084993,27.3854161 C163.627939,27.3854161 163.288558,27.5425531 163.066284,27.855081 C162.844579,28.1687728 162.733726,28.6128301 162.733726,29.1889989 C162.733726,29.7645856 162.844579,30.2074789 163.066284,30.5176789 C163.288558,30.8267148 163.627939,30.9821058 164.084993,30.9821058 C164.535227,30.9821058 164.870627,30.8267148 165.091196,30.5176789 C165.311196,30.2074789 165.421481,29.7645856 165.421481,29.1889989 C165.421481,28.6128301 165.311196,28.1687728 165.091196,27.855081 C164.870627,27.5425531 164.535227,27.3854161 164.084993,27.3854161 Z M129.416535,27.3854161 C128.95948,27.3854161 128.6201,27.5425531 128.397826,27.855081 C128.17612,28.1687728 128.065267,28.6128301 128.065267,29.1889989 C128.065267,29.7645856 128.17612,30.2074789 128.397826,30.5176789 C128.6201,30.8267148 128.95948,30.9821058 129.416535,30.9821058 C129.866768,30.9821058 130.202738,30.8267148 130.422738,30.5176789 C130.643307,30.2074789 130.753591,29.7645856 130.753591,29.1889989 C130.753591,28.6128301 130.643307,28.1687728 130.422738,27.855081 C130.202738,27.5425531 129.866768,27.3854161 129.416535,27.3854161 Z M180.584615,29.3544 L179.610246,29.3544 L179.610246,30.9670905 L180.594279,30.9670905 C180.747767,30.9670905 180.882496,30.9461389 180.998465,30.9042357 C181.113866,30.8623325 181.210507,30.8052976 181.286682,30.7331311 C181.363427,30.6615465 181.420843,30.5754121 181.458362,30.4747281 C181.495882,30.3740441 181.514641,30.2634662 181.514641,30.1429946 C181.514641,30.0359087 181.497587,29.9346427 181.463479,29.8391965 C181.428802,29.7437504 181.375365,29.6599441 181.301463,29.5883595 C181.228129,29.5161929 181.132625,29.459158 181.014951,29.4172548 C180.897845,29.3759336 180.75402,29.3544 180.584615,29.3544 Z M187.889248,27.3303018 C187.507801,27.3303018 187.207077,27.4426256 186.988782,27.6666912 C186.769919,27.8913388 186.631211,28.2061947 186.572658,28.6112588 L189.054624,28.6112588 C189.054624,28.4302603 189.029611,28.2620656 188.979017,28.1060926 C188.928423,27.9507017 188.853952,27.8150983 188.756174,27.6998646 C188.658396,27.5840489 188.536174,27.4938406 188.391213,27.4280759 C188.246251,27.3628932 188.078551,27.3303018 187.889248,27.3303018 Z M125.539357,15.080489 L125.539357,19.3895327 L126.454604,19.3895327 L126.454604,21.6150572 C126.454604,21.7157412 126.42618,21.7948917 126.368764,21.8536725 C126.311348,21.9118714 126.239152,21.9415528 126.151038,21.9415528 L125.500133,21.9415528 L125.500133,20.2037348 L121.548655,20.2037348 L121.548655,21.6348448 C121.548655,21.7122493 121.524779,21.7826699 121.477596,21.8461067 C121.430412,21.9095434 121.357647,21.9415528 121.259869,21.9415528 L120.594184,21.9415528 L120.594184,19.425034 L120.745399,19.425034 C120.860231,19.425034 120.97222,19.4075744 121.083642,19.3726551 C121.194495,19.3371538 121.300231,19.2661512 121.401988,19.1590652 C121.503177,19.0519793 121.59925,18.9000803 121.690774,18.7045321 C121.782299,18.508402 121.864728,18.249417 121.938061,17.9281593 C122.011395,17.6069016 122.075633,17.2134773 122.131343,16.7478864 C122.187054,16.2828775 122.230827,15.7270784 122.26323,15.080489 L125.539357,15.080489 Z M133.999589,15.0807218 L133.999589,19.3897655 L136.158662,19.3897655 L136.158662,15.0807218 L137.206363,15.0807218 L137.206363,19.3897655 L138.12161,19.3897655 L138.12161,21.61529 C138.12161,21.715392 138.093754,21.7951245 138.038612,21.8533233 C137.982902,21.9121042 137.911274,21.9412036 137.82316,21.9412036 L137.172255,21.9412036 L137.172255,20.2033856 L132.946203,20.2033856 L132.946203,15.0807218 L133.999589,15.0807218 Z M152.27621,15 C152.638329,15 152.957244,15.0605268 153.233524,15.1809985 C153.509235,15.3014701 153.754816,15.4719928 153.970269,15.6931484 L153.691147,16.0848268 C153.658175,16.1284759 153.627478,16.1622313 153.597917,16.1855108 C153.568925,16.2087904 153.526289,16.2204301 153.470578,16.2204301 C153.415436,16.2204301 153.357451,16.2006425 153.297193,16.1599033 C153.236935,16.1203281 153.164738,16.075515 153.081741,16.0272099 C152.998175,15.9789049 152.898123,15.9340917 152.780448,15.8939345 C152.662774,15.8537773 152.516107,15.8339897 152.339879,15.8339897 C152.111352,15.8339897 151.911248,15.8758929 151.740137,15.9596992 C151.569026,16.0429236 151.425201,16.1628133 151.309232,16.3182042 C151.193263,16.4741772 151.106855,16.6633235 151.050007,16.8862251 C150.992591,17.1091267 150.964167,17.3587999 150.964167,17.6369904 C150.964167,17.9250748 150.994865,18.1811498 151.056829,18.4052154 C151.119361,18.629863 151.208043,18.8190093 151.323444,18.9732363 C151.439982,19.1274633 151.579827,19.244443 151.745253,19.3247574 C151.910111,19.4050718 152.094866,19.4452291 152.300654,19.4452291 C152.503032,19.4452291 152.66789,19.4202035 152.795229,19.3701525 C152.922567,19.3195195 153.028304,19.2642306 153.113575,19.2037038 C153.198278,19.1437589 153.271043,19.08847 153.331302,19.038419 C153.39156,18.987786 153.455798,18.9627605 153.524583,18.9627605 C153.609286,18.9627605 153.674661,18.9965158 153.720708,19.0634445 L154.019158,19.4603608 C153.898072,19.6110958 153.76448,19.7379693 153.617814,19.8421453 C153.470578,19.9457393 153.315953,20.0301276 153.1528,20.0958923 C152.989079,20.161075 152.819673,20.2076341 152.643445,20.2361516 C152.467218,20.264669 152.289285,20.2792187 152.109646,20.2792187 C151.799258,20.2792187 151.509904,20.2192739 151.240446,20.1005482 C150.971557,19.9818226 150.736208,19.8095539 150.535536,19.5831604 C150.334864,19.3573488 150.176259,19.0809042 150.060859,18.7544086 C149.944889,18.427913 149.886905,18.0554402 149.886905,17.6369904 C149.886905,17.2586978 149.939205,16.9077587 150.043236,16.584755 C150.147835,16.2617513 150.300755,15.9829788 150.501428,15.7484374 C150.7021,15.5144779 150.951092,15.3311515 151.247837,15.1984581 C151.54515,15.0663467 151.887941,15 152.27621,15 Z M118.058098,15.0000582 C118.365075,15.0000582 118.648745,15.0512732 118.910244,15.1531212 C119.171174,15.2555512 119.396291,15.4051223 119.585594,15.6024164 C119.774896,15.8002925 119.922131,16.0423998 120.028436,16.3287382 C120.134741,16.6150766 120.18761,16.9404082 120.18761,17.3053151 C120.18761,17.4729278 120.169987,17.5852516 120.134173,17.6422865 C120.097791,17.6987394 120.032416,17.7272569 119.938049,17.7272569 L116.731275,17.7272569 C116.743782,18.0188332 116.788123,18.2708342 116.863161,18.4832601 C116.9382,18.6956859 117.038821,18.8726105 117.164454,19.0134517 C117.290087,19.153711 117.440165,19.2584689 117.614687,19.3271436 C117.789209,19.3958182 117.984765,19.4301555 118.200217,19.4301555 C118.405437,19.4301555 118.58337,19.405712 118.733448,19.357407 C118.883526,19.3085199 119.014275,19.254977 119.125128,19.1967781 C119.236549,19.1379973 119.330916,19.0844543 119.409366,19.0361493 C119.487816,18.9872622 119.559444,18.9628187 119.624818,18.9628187 C119.709521,18.9628187 119.774896,18.996574 119.820374,19.0635027 L120.119393,19.460419 C119.994896,19.610572 119.855051,19.7380275 119.698152,19.8416215 C119.541252,19.9457975 119.374689,20.0301858 119.198461,20.0953685 C119.022234,20.1611332 118.841458,20.2076923 118.654998,20.2362098 C118.469106,20.2647272 118.287763,20.2786949 118.111535,20.2786949 C117.765902,20.2786949 117.444713,20.2193321 117.149673,20.1006064 C116.854066,19.9818808 116.598252,19.8067022 116.381094,19.5756527 C116.163936,19.3446032 115.99453,19.0582648 115.871739,18.7166375 C115.749517,18.3750102 115.688121,17.9821679 115.688121,17.5369466 C115.688121,17.1813515 115.742695,16.8502 115.852411,16.542328 C115.961558,16.2338741 116.117889,15.9661593 116.322541,15.7386018 C116.526624,15.5104622 116.774479,15.3306277 117.066107,15.1985163 C117.358873,15.0664049 117.689157,15.0000582 118.058098,15.0000582 Z M167.825851,15.0000582 C168.132828,15.0000582 168.416497,15.0512732 168.677996,15.1531212 C168.938927,15.2555512 169.164043,15.4051223 169.353346,15.6024164 C169.542648,15.8002925 169.690452,16.0423998 169.796757,16.3287382 C169.902494,16.6150766 169.95593,16.9404082 169.95593,17.3053151 C169.95593,17.4729278 169.937739,17.5852516 169.901925,17.6422865 C169.865543,17.6987394 169.800168,17.7272569 169.705801,17.7272569 L166.499027,17.7272569 C166.512102,18.0188332 166.555875,18.2708342 166.630914,18.4832601 C166.705953,18.6956859 166.806573,18.8726105 166.932206,19.0134517 C167.057839,19.153711 167.207917,19.2584689 167.383008,19.3271436 C167.55753,19.3958182 167.752517,19.4301555 167.96797,19.4301555 C168.173189,19.4301555 168.351122,19.405712 168.5012,19.357407 C168.651278,19.3085199 168.782027,19.254977 168.89288,19.1967781 C169.004301,19.1379973 169.098669,19.0844543 169.177118,19.0361493 C169.255568,18.9872622 169.327196,18.9628187 169.392571,18.9628187 C169.477274,18.9628187 169.542648,18.996574 169.588126,19.0635027 L169.887145,19.460419 C169.762649,19.610572 169.622803,19.7380275 169.465904,19.8416215 C169.309005,19.9457975 169.142441,20.0301858 168.966782,20.0953685 C168.790554,20.1611332 168.609211,20.2076923 168.42275,20.2362098 C168.236859,20.2647272 168.056083,20.2786949 167.879856,20.2786949 C167.533654,20.2786949 167.212465,20.2193321 166.917426,20.1006064 C166.621818,19.9818808 166.366004,19.8067022 166.148846,19.5756527 C165.931688,19.3446032 165.762282,19.0582648 165.639491,18.7166375 C165.517269,18.3750102 165.455874,17.9821679 165.455874,17.5369466 C165.455874,17.1813515 165.510447,16.8502 165.620163,16.542328 C165.729311,16.2338741 165.885642,15.9661593 166.090293,15.7386018 C166.294376,15.5104622 166.542231,15.3306277 166.834428,15.1985163 C167.126625,15.0664049 167.45691,15.0000582 167.825851,15.0000582 Z M128.324834,15.0805472 L128.324834,18.2902144 C128.324834,18.3606351 128.320854,18.4392035 128.312327,18.5259198 C128.304368,18.6132181 128.293567,18.6999344 128.280492,18.7872327 C128.345867,18.6330057 128.412947,18.5061322 128.481164,18.4054482 L130.650469,15.3517539 C130.689694,15.2848252 130.741994,15.2231344 130.807369,15.1655176 C130.872175,15.1090647 130.945508,15.0805472 131.027369,15.0805472 L131.664062,15.0805472 L131.664062,20.203793 L130.611244,20.203793 L130.611244,16.9941258 C130.611244,16.9237052 130.614655,16.8468827 130.620909,16.7630763 C130.62773,16.67927 130.637394,16.5942996 130.650469,16.5070013 C130.618066,16.5809139 130.586232,16.6484246 130.554965,16.7101154 C130.524268,16.7723881 130.490728,16.828259 130.454914,16.8783101 L128.285609,19.9372422 C128.246384,20.001261 128.194084,20.0623698 128.128709,20.1205686 C128.063903,20.1793495 127.99057,20.2084489 127.908709,20.2084489 L127.272016,20.2084489 L127.272016,15.0805472 L128.324834,15.0805472 Z M155.913434,15.0808382 L155.913434,17.2353601 L156.339791,17.2353601 C156.476794,17.2353601 156.591057,17.2085886 156.682582,17.1544637 C156.774107,17.1015027 156.851988,17.0194423 156.917363,16.9088645 L157.867286,15.3718325 C157.919586,15.2845342 157.990645,15.2141136 158.080465,15.1611526 C158.170284,15.1070277 158.264082,15.0808382 158.36186,15.0808382 L159.184445,15.0808382 L157.9554,17.0043106 C157.877519,17.134676 157.795658,17.240016 157.710955,17.3209124 C157.625684,17.4006448 157.521084,17.4629176 157.397156,17.5059848 C157.557467,17.5531259 157.689922,17.6247105 157.796227,17.7201566 C157.902532,17.8156027 157.998036,17.9384023 158.082739,18.0891374 L159.321448,20.203502 L158.596641,20.203502 C158.410749,20.203502 158.266356,20.1720746 158.163462,20.1080559 C158.060568,20.0446191 157.973591,19.950919 157.901963,19.8269554 L157.054365,18.3300807 C156.986148,18.2032071 156.896329,18.109507 156.785476,18.0489802 C156.674055,17.9890353 156.548422,17.9581899 156.408576,17.9581899 L155.913434,17.9581899 L155.913434,20.2087399 L154.861184,20.2087399 L154.861184,15.0808382 L155.913434,15.0808382 Z M139.991896,15.0805472 L139.991896,18.2902144 C139.991896,18.3606351 139.987917,18.4392035 139.97939,18.5259198 C139.971431,18.6132181 139.96063,18.6999344 139.947555,18.7872327 C140.01293,18.6330057 140.08001,18.5061322 140.148227,18.4054482 L142.317532,15.3517539 C142.356757,15.2848252 142.408488,15.2231344 142.474431,15.1655176 C142.539237,15.1090647 142.612571,15.0805472 142.694431,15.0805472 L143.331125,15.0805472 L143.331125,20.203793 L142.278307,20.203793 L142.278307,16.9941258 C142.278307,16.9237052 142.281718,16.8468827 142.287971,16.7630763 C142.294793,16.67927 142.304457,16.5942996 142.317532,16.5070013 C142.285129,16.5809139 142.253294,16.6484246 142.222028,16.7101154 C142.19133,16.7723881 142.15779,16.828259 142.121976,16.8783101 L139.952671,19.9372422 C139.913446,20.001261 139.861147,20.0623698 139.795772,20.1205686 C139.730966,20.1793495 139.657632,20.2084489 139.575772,20.2084489 L138.939078,20.2084489 L138.939078,15.0805472 L139.991896,15.0805472 Z M161.113,15.0805472 L161.113,18.2902144 C161.113,18.3606351 161.109021,18.4392035 161.100494,18.5259198 C161.092535,18.6132181 161.082303,18.6999344 161.069228,18.7872327 C161.134603,18.6330057 161.201114,18.5061322 161.2699,18.4054482 L163.438636,15.3517539 C163.477861,15.2848252 163.530161,15.2231344 163.595536,15.1655176 C163.66091,15.1090647 163.734244,15.0805472 163.815536,15.0805472 L164.452229,15.0805472 L164.452229,20.203793 L163.399411,20.203793 L163.399411,16.9941258 C163.399411,16.9237052 163.402822,16.8468827 163.409644,16.7630763 C163.415897,16.67927 163.425561,16.5942996 163.438636,16.5070013 C163.406233,16.5809139 163.374398,16.6484246 163.343132,16.7101154 C163.312434,16.7723881 163.278894,16.828259 163.24308,16.8783101 L161.073776,19.9372422 C161.034551,20.001261 160.982251,20.0623698 160.917445,20.1205686 C160.85207,20.1793495 160.778736,20.2084489 160.697444,20.2084489 L160.060183,20.2084489 L160.060183,15.0805472 L161.113,15.0805472 Z M145.666197,15.0805472 L145.666197,17.0645464 L147.825838,17.0645464 L147.825838,15.0805472 L148.873539,15.0805472 L148.873539,20.203793 L147.825838,20.203793 L147.825838,17.8781665 L145.666197,17.8781665 L145.666197,20.203793 L144.613948,20.203793 L144.613948,15.0805472 L145.666197,15.0805472 Z M109.861923,15.0655319 C109.933551,15.0655319 110.004611,15.0824096 110.075102,15.1155829 C110.145025,15.1493383 110.20642,15.214521 110.25872,15.3111311 L111.614535,17.6920465 C111.660582,17.7793448 111.702081,17.873045 111.740169,17.973729 C111.777119,18.0738311 111.813502,18.1745151 111.849884,18.2751991 C111.885698,18.1745151 111.923218,18.0738311 111.962443,17.973729 C112.001668,17.873045 112.044303,17.7793448 112.089781,17.6920465 L113.426269,15.3111311 C113.475158,15.2110291 113.535985,15.1452644 113.607613,15.113255 C113.679241,15.0812456 113.751437,15.0655319 113.823065,15.0655319 L114.679758,15.0655319 L114.679758,20.2039094 L113.734951,20.2039094 L113.734951,17.104238 C113.734951,16.9971521 113.741204,16.8760985 113.754279,16.7404952 C113.767354,16.6048918 113.78384,16.4786003 113.803168,16.3610386 L112.212004,19.2942612 C112.179601,19.354788 112.136965,19.4025111 112.085234,19.4380124 C112.032934,19.4729317 111.973812,19.4903914 111.908437,19.4903914 L111.795879,19.4903914 C111.730504,19.4903914 111.67252,19.4729317 111.622494,19.4380124 C111.571331,19.4025111 111.529832,19.354788 111.497429,19.2942612 L109.876704,16.3459069 C109.896032,16.4634686 109.913655,16.5915061 109.928435,16.7306013 C109.942647,16.8696966 109.950037,16.9942422 109.950037,17.104238 L109.950037,20.2039094 L109.000114,20.2039094 L109.000114,15.0655319 L109.861923,15.0655319 Z M124.520648,15.9191346 L123.120492,15.9191346 C123.090931,16.3882174 123.049432,16.8084132 122.995427,17.180304 C122.941422,17.5516127 122.879458,17.8804363 122.809535,18.1667747 C122.739044,18.4531131 122.661163,18.6992942 122.577029,18.9053182 C122.491757,19.1107602 122.403643,19.2841928 122.312119,19.425034 L124.520648,19.425034 L124.520648,15.9191346 Z M118.077426,15.7834149 C117.695411,15.7834149 117.395255,15.8957387 117.176392,16.1198043 C116.958097,16.3444519 116.819389,16.6593077 116.760267,17.0643718 L119.242802,17.0643718 C119.242802,16.8833734 119.21779,16.7151787 119.167195,16.5592057 C119.116032,16.4038147 119.04213,16.2682114 118.944353,16.1529776 C118.846575,16.0371619 118.724352,15.9469537 118.579391,15.881189 C118.433861,15.8160062 118.266729,15.7834149 118.077426,15.7834149 Z M167.845179,15.7834149 C167.463731,15.7834149 167.163007,15.8957387 166.944144,16.1198043 C166.725849,16.3444519 166.587141,16.6593077 166.52802,17.0643718 L169.010555,17.0643718 C169.010555,16.8833734 168.985542,16.7151787 168.934947,16.5592057 C168.884353,16.4038147 168.809883,16.2682114 168.712105,16.1529776 C168.614327,16.0371619 168.492104,15.9469537 168.347143,15.881189 C168.202182,15.8160062 168.034481,15.7834149 167.845179,15.7834149 Z" id="Combined-Shape"></path>
                    <path d="M72.1437384,12.2761767 C72.1653023,11.9645898 72.0659948,11.6639865 71.86511,11.4287066 C71.6642251,11.1928486 71.3850293,11.0512182 71.0797297,11.0298291 C71.0519236,11.0275168 71.024685,11.0269387 70.9980139,11.0269387 C70.7227903,11.0269387 70.4560788,11.1286813 70.2478168,11.3130899 C70.0162885,11.5183095 69.8772581,11.8027265 69.8562616,12.1137353 C69.8346977,12.424166 69.9340052,12.7253474 70.13489,12.9612054 C70.3363423,13.1964853 70.6149707,13.3386937 70.9202703,13.3600828 C71.222165,13.3832062 71.51952,13.2826197 71.7521832,13.076822 C71.983144,12.8716024 72.1221745,12.5877636 72.1437384,12.2761767 M85.3062348,37.5910218 C85.6103994,37.6135671 85.9054845,37.5135587 86.1387152,37.3071829 C86.369676,37.1025415 86.5087065,36.8181245 86.5297029,36.5071157 C86.5512668,36.1955288 86.4525268,35.8943474 86.251642,35.6590675 C86.0501897,35.4237876 85.7715613,35.2821572 85.4662617,35.2607681 C85.4384556,35.2584558 85.411217,35.2572996 85.3845459,35.2572996 C85.1093223,35.2572996 84.8426108,35.3596204 84.6337814,35.5440289 C84.4028205,35.7486704 84.2637901,36.0330874 84.2422262,36.3440962 C84.2212297,36.655105 84.3199697,36.9557083 84.521422,37.1921444 C84.7228743,37.4274243 85.0015027,37.5690547 85.3062348,37.5910218 M98,27.5052027 C98,12.3143302 85.9117267,0 70.9997163,0 C56.0882733,0 44,12.3143302 44,27.5052027 C44,40.6912825 53.1090491,51.7078157 65.2659864,54.3866536 L65.2659864,37.7661811 C65.2659864,37.682359 65.2330731,37.6002712 65.1746235,37.5413067 L62.3996889,34.7133232 C62.3406719,34.6532026 62.2617934,34.6202518 62.1783751,34.6202518 L59.3381814,34.6202518 C59.2082304,34.6202518 59.0941687,34.7011835 59.0470686,34.8266276 C58.8961212,35.2307078 58.6464339,35.5949003 58.3235427,35.8804734 C57.8497042,36.3007399 57.2436448,36.5319733 56.6171565,36.5319733 L56.5916203,36.5319733 C55.8930632,36.5256143 55.2092603,36.2140275 54.7178302,35.67641 C54.2269675,35.1405268 53.969903,34.4260158 54.0124634,33.7161296 C54.0550237,32.9993063 54.3716727,32.3443379 54.9039607,31.8732001 C55.4277367,31.4089992 56.1018926,31.1795001 56.7953425,31.2286372 C57.4893599,31.2783524 58.1237928,31.5997667 58.5806072,32.1350718 C58.781492,32.3703517 58.9381141,32.6374262 59.0470686,32.9287801 C59.0936012,33.053068 59.207663,33.1334216 59.3376139,33.1334216 L62.6964764,33.1334216 C62.8355069,33.1334216 62.9665928,33.1889176 63.0647653,33.288926 L66.5740077,36.8637931 C66.6721802,36.9638015 66.7266575,37.0973387 66.7266575,37.2389691 L66.72609,54.6658679 C67.8842989,54.8537449 69.0674765,54.9676273 70.2699482,55 L70.2699482,33.2866137 C70.2699482,33.2027916 70.2370349,33.1207038 70.1785853,33.0617393 L62.4008239,25.1385298 C62.3429418,25.0789872 62.2617934,25.0448803 62.1795101,25.0448803 L56.8447125,25.0448803 C56.7147616,25.0448803 56.6006999,25.1258119 56.5541672,25.251256 C56.4026524,25.6553362 56.1523976,26.0195287 55.8300739,26.3051018 C55.3562354,26.7253684 54.750176,26.9566017 54.1236877,26.9566017 L54.1009889,26.9566017 C53.3995944,26.9502428 52.7163589,26.6386559 52.2243613,26.1010384 C51.7334987,25.5651552 51.4770016,24.8506443 51.5189945,24.140758 C51.5615549,23.4239348 51.8782038,22.7689664 52.4104919,22.2978285 C52.9342679,21.8330495 53.6072889,21.6023943 54.3018737,21.6526876 C54.9964586,21.7024027 55.630324,22.0243951 56.0871384,22.5597002 C56.2880232,22.7949801 56.4446453,23.0614765 56.5535998,23.3534086 C56.6001324,23.4776965 56.7141941,23.5580501 56.8441451,23.5580501 L61.2006221,23.5580501 C61.3731334,23.5580501 61.5132988,23.4152635 61.5132988,23.2395262 L61.5132988,20.066427 C61.5132988,19.934624 61.4327179,19.8178512 61.3090091,19.7692922 C60.2325161,19.3467133 59.5629,18.2772593 59.6434809,17.1072187 C59.691716,16.4002228 60.0077975,15.7545038 60.5332759,15.2885687 C61.0576194,14.8243678 61.7312078,14.5948687 62.4246577,14.6440058 C63.1192425,14.693721 63.753108,15.0151353 64.2099223,15.5504404 C64.6661693,16.0857455 64.8914554,16.769618 64.8432203,17.4777701 C64.7944178,18.1847659 64.4783363,18.830485 63.9528578,19.295842 C63.7213296,19.5016397 63.4591578,19.6611906 63.1737198,19.7721826 C63.0517134,19.8195855 62.9728349,19.9357802 62.9728349,20.0681613 L62.9728349,23.4863677 C62.9728349,23.5701898 63.0063157,23.6522776 63.0641978,23.7118202 L70.0923297,30.8708036 C70.1377274,30.9176284 70.1905022,30.9002859 70.2058239,30.893927 C70.2211457,30.8875681 70.2699482,30.8615543 70.2699482,30.7956528 L70.2699482,14.9688886 C70.2699482,14.8370856 70.1899347,14.7203128 70.0656585,14.6717538 C68.9891655,14.249753 68.3201169,13.1797208 68.4001303,12.0102584 C68.4489328,11.3026844 68.7644469,10.6569654 69.2899253,10.1916083 C69.8142688,9.72682937 70.4884246,9.49733031 71.1813071,9.54646739 C71.8758919,9.59618255 72.5103248,9.91759686 72.9665717,10.452902 C73.4233861,10.9882071 73.6481048,11.6726577 73.5998697,12.3802317 C73.5510672,13.0872275 73.2349857,13.7335246 72.7100747,14.1983036 C72.4785464,14.4035232 72.2163747,14.5642303 71.9309366,14.6746442 C71.8089303,14.722047 71.7300518,14.8382418 71.7300518,14.9706229 L71.7300518,34.6208299 C71.7300518,34.6867314 71.7788543,34.7127452 71.7941761,34.7191041 C71.8089303,34.7248849 71.8617051,34.7428055 71.9076703,34.6959807 L78.9352347,27.5364192 C78.9936843,27.4774548 79.0271651,27.3953669 79.0271651,27.3115448 L79.0271651,21.3405226 C79.0271651,21.2087196 78.9465841,21.0919468 78.8228754,21.0433878 C77.7463824,20.621387 77.0767663,19.5519329 77.1567797,18.3818923 C77.2055822,17.6743184 77.5216637,17.0285994 78.0465747,16.5632423 C78.5714856,16.0984633 79.2456415,15.8678081 79.9379565,15.9181014 C80.6325413,15.9678165 81.2669742,16.2898089 81.7232211,16.825114 C82.1800355,17.3598411 82.4053216,18.0442917 82.3565191,18.7518656 C82.308284,19.4594396 81.9916351,20.1051586 81.4667241,20.5705157 C81.2351958,20.7757352 80.9730241,20.9358643 80.687586,21.0462782 C80.5655797,21.0942591 80.4867012,21.2104538 80.4867012,21.3422568 L80.4867012,27.0675937 C80.4867012,27.243331 80.6268666,27.3861176 80.7993779,27.3861176 L85.1637995,27.3861176 C85.2937505,27.3861176 85.4078122,27.305764 85.4549123,27.1803199 C85.6052922,26.7762397 85.855547,26.4114692 86.1778707,26.125896 C86.7022142,25.6616952 87.3763701,25.4333523 88.0692525,25.4807551 C88.7644048,25.5304702 89.3982703,25.8524626 89.8545172,26.3877678 C90.3113316,26.9224948 90.5360502,27.6069454 90.4878151,28.3145194 C90.4395801,29.0220933 90.1234986,29.6678123 89.5980202,30.1331694 C89.0770815,30.5944798 88.3989533,30.8286036 87.7066384,30.7783103 C86.7033491,30.706628 85.8209313,30.040098 85.4577497,29.0810578 C85.4095146,28.9550356 85.2948854,28.8729478 85.1655019,28.8729478 L79.8170851,28.8729478 C79.7336668,28.8729478 79.6553558,28.9058986 79.5963388,28.9665973 L71.8214147,36.8869164 C71.7629651,36.9458809 71.7300518,37.0279687 71.7300518,37.1117908 L71.7300518,55 C72.9325235,54.9676273 74.1157011,54.8537449 75.2744775,54.6658679 L75.2750449,39.7877383 C75.2750449,39.6461079 75.3289547,39.5125707 75.4271272,39.4119842 L78.9363697,35.8371172 C79.0351097,35.7371087 79.1661955,35.6816127 79.305226,35.6816127 L82.8848349,35.6821908 C83.0238653,35.1931324 83.2962515,34.7589918 83.6764573,34.4225474 C84.2008008,33.9577684 84.8749567,33.7276912 85.5678391,33.7768283 C86.2618565,33.8265435 86.8962894,34.1485359 87.3531038,34.683841 C87.8093507,35.2191461 88.0340693,35.9030186 87.9858342,36.6105926 C87.9375992,37.3181665 87.6215177,37.9644636 87.0960393,38.4292426 C86.5756681,38.8905531 85.8981074,39.1223645 85.2046575,39.0743836 C84.1139777,38.9969204 83.1918368,38.2350066 82.8865373,37.1695991 L79.8227598,37.1695991 C79.7387741,37.1695991 79.6610305,37.2025499 79.601446,37.2626705 L76.8253765,40.090654 C76.7663595,40.1513527 76.7334461,40.2311282 76.7334461,40.3161065 L76.7334461,54.3866536 C88.8909509,51.7078157 98,40.6912825 98,27.5052027 M56.6931977,32.7119989 C56.6659591,32.7096866 56.6387205,32.7085304 56.6120493,32.7085304 C56.3368257,32.7085304 56.0701142,32.8102731 55.8612848,32.9952597 C55.630324,33.2004793 55.4912935,33.4848963 55.4702971,33.7959051 C55.4487332,34.1063358 55.5474732,34.4075172 55.7489255,34.6427971 C55.9498103,34.8786551 56.2290062,35.0208636 56.5337383,35.0422526 C56.8367679,35.0642198 57.1329879,34.9647895 57.3656512,34.7589918 C57.5971795,34.5537723 57.7362099,34.2693553 57.7572064,33.9583465 C57.7793377,33.6467596 57.6800303,33.3461563 57.4791454,33.1108764 C57.2776931,32.8750184 56.9990647,32.733388 56.6931977,32.7119989 M87.8082157,29.2943705 C88.1123803,29.31865 88.4074654,29.2174854 88.6406961,29.0111097 C88.8716569,28.8064682 89.0106874,28.5220512 89.0316838,28.2104644 C89.0532477,27.8994556 88.9545077,27.5982742 88.7536229,27.3629943 C88.5521706,27.1277144 88.2735422,26.986084 87.9676752,26.9646949 C87.9398691,26.9623825 87.9131979,26.9612264 87.8865268,26.9612264 C87.6107357,26.9612264 87.3445917,27.0635471 87.1357623,27.2479557 C86.9048014,27.4525972 86.765771,27.7370141 86.7442071,28.048023 C86.7232106,28.3590318 86.8219506,28.6596351 87.0234029,28.8960711 C87.2248552,29.131351 87.5034836,29.2729814 87.8082157,29.2943705 M63.3865215,17.3737151 C63.4080854,17.0621282 63.3093454,16.7615249 63.1084606,16.526245 C62.9075757,16.290387 62.6283799,16.1487566 62.3230803,16.1273675 C62.2952742,16.1250552 62.2680356,16.1244771 62.2413645,16.1244771 C61.9655734,16.1244771 61.6994294,16.2262198 61.4905999,16.4106283 C61.2596391,16.6158479 61.1206087,16.9002649 61.0996122,17.2112737 C61.0780483,17.5217044 61.1767883,17.8228858 61.3782406,18.0587438 C61.5796929,18.2940237 61.8583213,18.4362322 62.1636209,18.4576212 C62.4655156,18.4801665 62.7628706,18.3801581 62.9955338,18.1743604 C63.2264946,17.9691409 63.3655251,17.6847239 63.3865215,17.3737151 M80.5094001,19.448456 C80.7403609,19.2438145 80.8793913,18.9593975 80.9003878,18.6478106 C80.9219517,18.3368018 80.8232117,18.0356204 80.6217594,17.8003405 C80.4208745,17.5650606 80.1422461,17.4234302 79.8363791,17.4014631 C79.8091405,17.3997288 79.7819019,17.3985727 79.7552307,17.3985727 C79.4794397,17.3985727 79.2132956,17.5003153 79.0044662,17.685302 C78.7735054,17.8899435 78.6344749,18.1743604 78.612911,18.4853692 C78.5919146,18.796378 78.6906546,19.0969814 78.8921069,19.3328393 C79.0935592,19.5686973 79.3721876,19.7103277 79.6769197,19.7317168 C79.9816518,19.7548401 80.2761694,19.6542536 80.5094001,19.448456 M54.9856766,23.5349267 C55.1865614,23.7702066 55.2853014,24.071388 55.2637375,24.3823968 C55.2427411,24.6939837 55.1037106,24.9784007 54.8727498,25.1830422 C54.6400866,25.3894179 54.3432991,25.4894263 54.0402694,25.4668811 C53.7355374,25.4449139 53.456909,25.3032835 53.2554567,25.0674255 C53.0540044,24.8315676 52.9552643,24.5309642 52.9768283,24.2199554 C52.9978247,23.9089466 53.1368552,23.6245297 53.367816,23.4198882 C53.5766454,23.2354796 53.8427894,23.1331589 54.1185805,23.1331589 C54.1452516,23.1331589 54.1724903,23.134315 54.2002963,23.1366274 C54.5055959,23.1580164 54.7842243,23.2996468 54.9856766,23.5349267" id="Fill-131"></path>
                </g>
            </g>
        </g>
    </g>
</svg>