<?xml version="1.0" encoding="UTF-8"?>
<svg width="173px" height="66px" viewBox="0 0 173 66" version="1.1" xmlns="http://www.w3.org/2000/svg" xmlns:xlink="http://www.w3.org/1999/xlink">
    <!-- Generator: Sketch 59.1 (86144) - https://sketch.com -->
    <title>My-Health_rus</title>
    <desc>Created with Sketch.</desc>
    <defs>
        <linearGradient x1="-1.11022302e-14%" y1="50%" x2="100%" y2="50%" id="linearGradient-1">
            <stop stop-color="#F26A35" offset="0%"></stop>
            <stop stop-color="#EE3048" offset="100%"></stop>
        </linearGradient>
    </defs>
    <g id="Artboards" stroke="none" stroke-width="1" fill="none" fill-rule="evenodd">
        <g id="MZ-1920-mian" transform="translate(-210.000000, -17.000000)" fill-rule="nonzero">
            <g id="header">
                <g id="My-Health_rus" transform="translate(210.000000, 17.000000)">
                    <g id="Group-12" transform="translate(83.000000, 12.000000)" fill="#FFFFFF">
                        <g id="Group-11">
                            <path d="M15.8823529,0 L15.8823529,15.0877193 L12.9925025,15.0877193 L12.9925025,6.40988142 C12.9925025,6.20952001 12.9972322,5.9923215 13.0066917,5.75828591 C13.0066917,5.52340845 13.0350699,5.28347987 13.0610833,5.0435513 L9.30806152,12.7995583 C9.20349663,13.0273522 9.03917004,13.2177631 8.83509092,13.3476057 C8.63051023,13.4741634 8.39749833,13.5387763 8.1611078,13.5344974 L7.71651543,13.5344974 C7.48012491,13.5387763 7.24711301,13.4741634 7.04253232,13.3476057 C6.8384532,13.2177631 6.6741266,13.0273522 6.56956171,12.7995583 L2.81653996,5.02334678 C2.83545878,5.27085205 2.85201275,5.5133062 2.86620187,5.75070921 C2.87802614,5.99063779 2.8851207,6.21036186 2.8851207,6.40988142 L2.8851207,15.0877193 L0,15.0877193 L0,0 L2.49491995,0 C2.63681113,0 2.76214834,0 2.86856672,0 C2.96640678,0.00533243278 3.06290636,0.0266253081 3.15471394,0.0631390998 C3.24324519,0.0976016761 3.32386952,0.151846821 3.39119924,0.222249631 C3.47148348,0.312817946 3.53845903,0.415851006 3.5898469,0.527842875 L7.224626,8.19040403 C7.35232807,8.44296043 7.47766528,8.7258236 7.59590793,9.00868677 C7.71415058,9.29154993 7.83239323,9.58198979 7.94117647,9.87748078 C8.04995971,9.5744131 8.17766177,9.27892211 8.28644501,8.98848225 C8.39522825,8.69804239 8.52293032,8.42275592 8.6695512,8.16009726 L12.2948709,0.537945131 C12.3462588,0.425953262 12.4132343,0.322920202 12.4935186,0.232351887 C12.5608483,0.161949077 12.6414726,0.107703932 12.7300039,0.0732413558 C12.8218114,0.0367275641 12.918311,0.0154346888 13.0161511,0.010102256 C13.1225695,0.010102256 13.2526364,0.010102256 13.3897978,0.010102256 L15.8823529,0 Z" id="Path"></path>
                            <path d="M22.3290206,5.28113644 C23.0094889,5.27282677 23.6857225,5.38809788 24.3241253,5.62122296 C24.9022158,5.83397159 25.4280451,6.16571198 25.8668254,6.59449687 C26.306733,7.03034401 26.6482615,7.55345768 26.8689018,8.12936101 C27.115239,8.77931376 27.2364577,9.4691172 27.2263015,10.1631679 C27.2364184,10.8623142 27.1152321,11.5572433 26.8689018,12.2126366 C26.6490146,12.7935212 26.3075324,13.3219011 25.8668254,13.7631626 C25.4284325,14.1940452 24.9026296,14.5280567 24.3241253,14.7431488 C23.0307219,15.2025761 21.6160091,15.2025761 20.3226057,14.7431488 C19.739368,14.5281978 19.2083617,14.1943079 18.7640714,13.7631626 C18.3183622,13.3241443 17.9734981,12.7953066 17.7529469,12.2126366 C17.5066166,11.5572433 17.3854303,10.8623142 17.3955472,10.1631679 C17.385391,9.4691172 17.5066098,8.77931376 17.7529469,8.12936101 C17.9742395,7.55165221 18.3191556,7.02807739 18.7640714,6.59449687 C19.2087053,6.16539842 19.7397494,5.83377182 20.3226057,5.62122296 C20.964885,5.38792549 21.6448559,5.2726707 22.3290206,5.28113644 Z M22.3290206,12.9778313 C22.9925475,12.9778313 23.4796365,12.7473779 23.7902878,12.2864712 C24.102447,11.823327 24.2585266,11.1230173 24.2585266,10.1810672 C24.2585266,9.239117 24.102447,8.53880727 23.7902878,8.08013796 C23.4781285,7.62146865 22.9917935,7.39101528 22.3290206,7.39101528 C21.6662477,7.39101528 21.1527683,7.61475641 20.836085,8.08013796 C20.5194017,8.54551951 20.3633221,9.239117 20.3633221,10.1810672 C20.3633221,11.1230173 20.5216637,11.823327 20.836085,12.2864712 C21.1505063,12.7496153 21.6504135,12.9778313 22.3290206,12.9778313 Z" id="Shape"></path>
                            <path d="M31.6188166,10.6931523 C31.7116601,11.4896929 31.9562236,12.0647237 32.3525069,12.4227194 C32.7743111,12.7903716 33.3235746,12.9827664 33.8855575,12.9597131 C34.1776605,12.9651378 34.4688087,12.9251198 34.748323,12.841127 C34.9700725,12.7689432 35.1858409,12.6799247 35.3936987,12.5748676 L35.9122638,12.3086083 C36.0661685,12.2298335 36.2371223,12.1891403 36.4104486,12.1900222 C36.6146035,12.1786625 36.8103821,12.2715832 36.9290137,12.4361443 L37.7646055,13.4564322 C37.4879107,13.7754122 37.1642464,14.0514701 36.8044675,14.2753475 C36.4731147,14.4817134 36.1181238,14.6484548 35.7469571,14.7720667 C35.3934136,14.8886609 35.0294639,14.9718206 34.6600084,15.0204262 C34.3167948,15.0639745 33.9711726,15.0863925 33.6251427,15.0875505 C32.9772959,15.0926372 32.3337879,14.9827492 31.725247,14.7631168 C31.1453127,14.5522438 30.6173514,14.2220081 30.1763451,13.7942907 C29.7165374,13.3413826 29.3585153,12.7977926 29.1256281,12.1989721 C28.8562237,11.4898741 28.7255881,10.736667 28.7406671,9.97939828 C28.7374023,9.36180973 28.8494827,8.74892583 29.0712806,8.17151962 C29.2823727,7.61573227 29.6042502,7.10747805 30.0178318,6.67688727 C30.4411654,6.24054803 30.9495757,5.89347144 31.5123862,5.65659932 C32.7055665,5.18480581 34.03135,5.15618986 35.2442433,5.57605027 C35.753894,5.76039864 36.2173212,6.0511658 36.6029291,6.42852771 C36.9942642,6.81849928 37.2975664,7.28594746 37.4928684,7.80009901 C37.715919,8.387795 37.8250039,9.01172804 37.814424,9.63930229 C37.8165717,9.81421724 37.8074956,9.98909082 37.7872503,10.1628711 C37.774663,10.2753613 37.7392341,10.3841856 37.6830844,10.4828298 C37.6385884,10.559587 37.5679759,10.6182577 37.4838105,10.6484029 C37.3808906,10.6818365 37.2727893,10.6969872 37.1645193,10.6931523 L31.6188166,10.6931523 Z M35.2419819,9.04189685 C35.2423299,8.8189802 35.2126306,8.59701034 35.1536642,8.38184214 C35.0977876,8.17373473 34.9999714,7.97891307 34.8660757,7.8090489 C34.7247502,7.63486201 34.5450729,7.49482391 34.3407172,7.39959124 C34.0931849,7.29006055 33.8237813,7.23728129 33.5526794,7.24520556 C33.0791463,7.21873759 32.615507,7.38627984 32.2709858,7.70836259 C31.92988,8.0817621 31.7153322,8.55111127 31.6573127,9.05084674 L35.2419819,9.04189685 Z" id="Shape"></path>
                        </g>
                        <g id="Group-10" transform="translate(0.000000, 23.385965)">
                            <path d="M0.457291843,1.57430073 C1.00967,1.05728443 1.64485308,0.666575216 2.32783324,0.423706858 C3.10436092,0.135100541 3.91708333,-0.00781222251 4.73405937,0.000585238484 C5.40468123,-0.00853178734 6.07313297,0.0889124194 6.72001251,0.290089504 C7.26219026,0.456111857 7.77445998,0.729151953 8.23343076,1.09674242 C8.63259257,1.42025903 8.96112236,1.84351308 9.19374363,2.33394013 C9.41786282,2.82791096 9.53224337,3.37667827 9.5269134,3.93239958 C9.53185098,4.57163261 9.40192432,5.20290515 9.14801444,5.77334978 C8.87668554,6.36102855 8.46347841,6.84858371 7.95687807,7.17880639 C8.22536896,7.33773876 8.47922688,7.52672983 8.71467598,7.74296855 C8.93925909,7.945433 9.13916863,8.18091204 9.30915538,8.44322246 C9.47191193,8.69404391 9.60106561,8.97088283 9.69240949,9.26472174 C9.78672109,9.56566872 9.83388957,9.88306806 9.83177463,10.2025176 C9.83678632,10.8594913 9.72263111,11.5105939 9.49642728,12.1152253 C9.27415133,12.7058873 8.94036981,13.233835 8.51869376,13.6617224 C8.05744202,14.1236144 7.52008072,14.4768577 6.93777053,14.7009685 C6.25053842,14.9682845 5.52787081,15.0988682 4.80156435,15.0869742 C4.34942961,15.0863348 3.89827646,15.0391282 3.45364221,14.9459337 C3.00948046,14.851798 2.57259313,14.7177599 2.14709408,14.5450816 C1.73952044,14.3776932 1.34477023,14.1724496 0.966845611,13.9314315 C0.619803843,13.7089052 0.295541548,13.4433478 0,13.139625 L0.892807884,11.5362167 C0.96691251,11.4177626 1.0627531,11.3189891 1.17371573,11.2467125 C1.28846632,11.169807 1.41939367,11.129621 1.55261469,11.1304159 C1.75450156,11.1360198 1.95142983,11.2026385 2.1231407,11.3234187 C2.3213005,11.4520873 2.54559126,11.5931278 2.79819056,11.7490148 C3.08288387,11.9199737 3.3801622,12.0623791 3.68664329,12.1746108 C4.36883243,12.3983586 5.08896949,12.4280993 5.78365303,12.2612146 C6.02519507,12.2004958 6.25243649,12.0815141 6.44999257,11.9123249 C6.63341061,11.746424 6.77656133,11.5301079 6.86591039,11.2838284 C6.96687527,10.9822554 7.01495872,10.6611552 7.0074531,10.3386094 C7.01252786,10.0700571 6.95545986,9.80469775 6.84195701,9.56907238 C6.72981012,9.34113405 6.57064465,9.14753687 6.37813242,9.00491022 C6.15962393,8.84468106 5.91777472,8.72989574 5.66388611,8.66591805 C5.36398185,8.58860707 5.05670285,8.55452214 4.74930243,8.56446783 L2.84174217,8.56446783 L2.84174217,5.90696714 L4.49234796,5.90696714 C5.24143555,5.90696714 5.79817023,5.7626274 6.16255198,5.47394794 C6.52253061,5.19183235 6.72846853,4.71819954 6.70694703,4.22190385 C6.71737496,3.77882262 6.528645,3.36016952 6.20610359,3.1109003 C5.87293381,2.83624241 5.37426795,2.70015066 4.70575082,2.70015066 C4.36384484,2.6940812 4.02291379,2.7432354 3.69317603,2.84613999 C3.42993423,2.93440595 3.17296763,3.04524728 2.92449022,3.17770898 C2.7067322,3.29895435 2.50639482,3.40782775 2.33654356,3.50680357 C2.19288651,3.59698354 2.03240644,3.64702495 1.86836382,3.6527929 C1.73318707,3.65981546 1.59959996,3.61731266 1.48728728,3.53154752 C1.3746046,3.43115317 1.27934714,3.30780816 1.20637943,3.16781139 L0.457291843,1.57430073 Z" id="Path"></path>
                            <path d="M22.6879978,13.7644777 L22.6879978,18.6968466 C22.6993593,18.9418903 22.6204924,19.1810842 22.4708047,19.3555675 C22.321117,19.5300508 22.114507,19.6236227 21.9018174,19.6132569 L20.1400686,19.6132569 L20.1400686,16.0745424 L13.8902648,16.0745424 L13.8902648,18.7374631 C13.8912385,18.8470033 13.876353,18.9559633 13.8462211,19.0598568 C13.8159273,19.1636328 13.7680164,19.2594197 13.7052812,19.3416339 C13.6398782,19.4273493 13.5585956,19.4950194 13.4674451,19.5396394 C13.3584998,19.5909865 13.241579,19.6160415 13.1239041,19.6132569 L11.3445378,19.6132569 L11.3445378,13.8558649 L11.5647564,13.8558649 C11.7662611,13.8563261 11.9671771,13.8307817 12.163751,13.7797089 C12.3747542,13.7173347 12.5681936,13.5931632 12.7253084,13.4192373 C12.9334543,13.1791464 13.1014246,12.8968843 13.2208003,12.5865986 C13.4077168,12.1041917 13.5501719,11.6004927 13.6458222,11.0837873 C13.7975628,10.3003719 13.9122457,9.50802682 13.9893632,8.71025931 C14.0891956,7.76254047 14.1684743,6.61935462 14.2271993,5.28070175 L20.9460687,5.28070175 L20.9460687,13.7644777 L22.6879978,13.7644777 Z M18.2549974,13.8558649 L18.2549974,7.66438387 L16.521877,7.66438387 C16.4668224,8.42594366 16.3985546,9.12404012 16.3170737,9.75613474 C16.2355929,10.3882294 16.1453032,10.9568607 16.0418005,11.4620287 C15.9523039,11.9204457 15.8390553,12.3722683 15.7026639,12.8150665 C15.5944228,13.1726574 15.4634029,13.5205378 15.3106748,13.8558649 L18.2549974,13.8558649 Z" id="Shape"></path>
                            <path d="M29.1358187,5.2811189 C29.8162603,5.27301213 30.4924465,5.38827152 31.1308927,5.62118942 C31.7089743,5.83392805 32.2347955,6.16565285 32.673569,6.59441757 C33.1134699,7.03024423 33.4549931,7.5533333 33.67563,8.12920955 C33.9219634,8.77913175 34.0431803,9.46890276 34.0330242,10.1629208 C34.043141,10.8620342 33.9219565,11.5569307 33.67563,12.2122932 C33.4557462,12.7931505 33.1142692,13.3215055 32.673569,13.7627463 C32.2351829,14.1936086 31.7093881,14.5276044 31.1308927,14.7426864 C30.4933239,14.9792736 29.8167215,15.0961214 29.1358187,15.0872315 C28.4504857,15.096277 27.7694063,14.9794508 27.1271727,14.7426864 C26.5448715,14.5272277 26.0147159,14.1933988 25.5709245,13.7627463 C25.1252221,13.3237486 24.7803633,12.7949358 24.5598156,12.2122932 C24.3122052,11.5572737 24.1909788,10.8621364 24.2024214,10.1629208 C24.1911355,9.46881496 24.3123887,8.77883732 24.5598156,8.12920955 C24.7811047,7.55152791 25.1260155,7.02797771 25.5709245,6.59441757 C26.0151013,6.16586643 26.5452823,5.83430812 27.1271727,5.62118942 C27.7702722,5.3880719 28.4509419,5.27283222 29.1358187,5.2811189 L29.1358187,5.2811189 Z M29.1358187,12.9774518 C29.7993354,12.9774518 30.286417,12.7470093 30.5970634,12.2861243 C30.9092178,11.8230019 31.0652951,11.1227251 31.0652951,10.1808192 C31.0652951,9.23891337 30.9092178,8.53863656 30.5970634,8.07998882 C30.284909,7.62134107 29.7985814,7.39089854 29.1358187,7.39089854 C28.473056,7.39089854 27.9573226,7.61462915 27.6429062,8.07998882 C27.3284897,8.54534848 27.1701505,9.23891337 27.1701505,10.1808192 C27.1701505,11.1227251 27.3284897,11.8230019 27.6429062,12.2861243 C27.9573226,12.7492466 28.4549601,12.9774518 29.1358187,12.9774518 Z" id="Shape"></path>
                            <path d="M38.4381855,6.81285381 C38.8345975,6.36931568 39.2986087,5.99695293 39.8115066,5.71078206 C40.3791994,5.41212732 41.0091975,5.2648175 41.6450233,5.28205849 C42.1634343,5.27739636 42.6749885,5.40557559 43.1346044,5.65530018 C43.6028809,5.91373213 44.0074128,6.28142226 44.3165808,6.729631 C44.671492,7.25175662 44.9354803,7.83478389 45.0964915,8.45209097 C45.2927467,9.20478532 45.3873099,9.98228286 45.3774532,10.7621544 C45.3849922,11.5200626 45.276244,12.2743619 45.0553161,12.9965608 C44.8588923,13.6407729 44.5528837,14.2429904 44.1518792,14.7745026 C43.7758969,15.2673403 43.3015205,15.6691936 42.7616036,15.9522315 C42.2047039,16.2389407 41.5904695,16.3841356 40.9692622,16.3759112 C40.5081831,16.3899427 40.0489568,16.3093937 39.6177399,16.1388523 C39.2564091,15.9810749 38.9212659,15.7648928 38.6246859,15.4982889 L38.6246859,19.6140351 L35.5462185,19.6140351 L35.5462185,5.49137647 L37.4548198,5.49137647 C37.7960874,5.46332285 38.109874,5.68708828 38.2080876,6.02854188 L38.4381855,6.81285381 Z M38.6246859,13.2966673 C38.8331149,13.5392646 39.0914243,13.7297744 39.3803758,13.8540079 C39.652894,13.9643069 39.942994,14.0199262 40.2353711,14.0179316 C40.5060704,14.0207974 40.7740369,13.9613786 41.0201259,13.8439203 C41.2701656,13.7144848 41.4837759,13.5198728 41.6401792,13.2790139 C41.8357417,12.9719299 41.9753206,12.6299738 42.0519333,12.2702526 C42.1594117,11.7738881 42.2090187,11.265841 42.1996803,10.7571106 C42.2076587,10.2783175 42.1678849,9.79995526 42.0809983,9.32971333 C42.0225034,9.00039989 41.9102726,8.68395002 41.7491729,8.3940872 C41.6266012,8.18023116 41.449767,8.00570794 41.2381134,7.88970653 C41.030746,7.7847558 40.8025786,7.73205827 40.5720406,7.73587043 C40.1867746,7.71869286 39.8037917,7.80557011 39.4603045,7.98806076 C39.1403843,8.18594832 38.8573234,8.44223236 38.6246859,8.74463176 L38.6246859,13.2966673 Z" id="Shape"></path>
                            <path d="M52.5811969,5.2811189 C53.2616384,5.27301213 53.9378247,5.38827152 54.5762709,5.62118942 C55.1543525,5.83392805 55.6801736,6.16565285 56.1189472,6.59441757 C56.558848,7.03024423 56.9003713,7.5533333 57.1210082,8.12920955 C57.3673415,8.77913175 57.4885584,9.46890276 57.4784024,10.1629208 C57.4885191,10.8620342 57.3673347,11.5569307 57.1210082,12.2122932 C56.9011243,12.7931505 56.5596474,13.3215055 56.1189472,13.7627463 C55.680561,14.1936086 55.1547662,14.5276044 54.5762709,14.7426864 C53.9387021,14.9792736 53.2620996,15.0961214 52.5811969,15.0872315 C51.8958638,15.096277 51.2147844,14.9794508 50.5725509,14.7426864 C49.9902497,14.5272277 49.4600941,14.1933988 49.0163027,13.7627463 C48.5706003,13.3237486 48.2257415,12.7949358 48.0051937,12.2122932 C47.7575834,11.5572737 47.6363569,10.8621364 47.6477995,10.1629208 C47.6365137,9.46881496 47.7577669,8.77883732 48.0051937,8.12920955 C48.2264829,7.55152791 48.5713937,7.02797771 49.0163027,6.59441757 C49.4604795,6.16586643 49.9906604,5.83430812 50.5725509,5.62118942 C51.2156503,5.3880719 51.8963201,5.27283222 52.5811969,5.2811189 L52.5811969,5.2811189 Z M52.5811969,12.9774518 C53.2447135,12.9774518 53.7317951,12.7470093 54.0424416,12.2861243 C54.354596,11.8230019 54.5106732,11.1227251 54.5106732,10.1808192 C54.5106732,9.23891337 54.354596,8.53863656 54.0424416,8.07998882 C53.7302871,7.62134107 53.2439595,7.39089854 52.5811969,7.39089854 C51.9184342,7.39089854 51.4027007,7.61462915 51.0882843,8.07998882 C50.7738679,8.54534848 50.6155287,9.23891337 50.6155287,10.1808192 C50.6155287,11.1227251 50.7738679,11.8230019 51.0882843,12.2861243 C51.4027007,12.7492466 51.9026002,12.9774518 52.5811969,12.9774518 Z" id="Shape"></path>
                            <path d="M63.5908084,5.2815219 C64.2108918,5.27283252 64.8297662,5.33321972 65.4330769,5.46128284 C65.8938027,5.55767091 66.3313828,5.72705965 66.7249904,5.96138698 C67.3712775,6.34125671 67.7537202,6.99042378 67.7378505,7.68063898 C67.7364645,7.9019715 67.7061144,8.12240303 67.6474166,8.33745778 C67.585827,8.56634703 67.4800333,8.78392558 67.3347735,8.98044881 C67.1728291,9.19903842 66.9659194,9.38828217 66.7249904,9.53816863 C66.4246025,9.72345298 66.089445,9.85926454 65.7353847,9.93917379 C66.0559394,10.0053112 66.3671051,10.1034947 66.6629785,10.2318615 C66.9357925,10.3497788 67.1860523,10.5053312 67.4045368,10.6927869 C67.6109117,10.8757861 67.7758357,11.0925281 67.8902963,11.3311687 C68.0125301,11.5931107 68.0723632,11.8748612 68.0659965,12.1585299 C68.0813022,12.6257604 67.9535633,13.087878 67.6965093,13.4952138 C67.4587373,13.8619516 67.1277358,14.1737636 66.730158,14.4055416 C66.3043507,14.6474628 65.8349722,14.822099 65.342643,14.9217781 C64.8203961,15.0327911 64.2852941,15.0884868 63.7484219,15.0877193 L58.9915966,15.0877193 L58.9915966,5.2815219 L63.5908084,5.2815219 Z M62.1076918,7.11370065 L62.1076918,9.27774574 L63.4952068,9.27774574 C63.8588089,9.29086949 64.2132205,9.17388199 64.4796448,8.95279329 C64.7353478,8.7355238 64.8745415,8.43101349 64.8620512,8.11621355 C64.862017,7.99407683 64.840213,7.87272157 64.7974555,7.75669169 C64.7542749,7.63514345 64.6779188,7.52506626 64.5752464,7.43634848 C64.4536124,7.33395111 64.3092572,7.25544091 64.1514988,7.20588575 C63.9405748,7.140967 63.7182507,7.11051929 63.4952068,7.11600528 L62.1076918,7.11370065 Z M63.7174159,13.1518243 C64.0729598,13.1685363 64.4219838,13.062014 64.6915186,12.8545274 C64.9374604,12.6451202 65.0694354,12.3508345 65.0532544,12.0479078 C65.0529516,11.9138227 65.0364928,11.7801549 65.0041617,11.6492073 C64.9738523,11.5263243 64.9079225,11.4126863 64.8129585,11.3196456 C64.7020104,11.2120933 64.5611781,11.1325905 64.4047139,11.0891828 C64.1821331,11.0288219 63.9499265,11.0015699 63.7174159,11.0085209 L62.1076918,11.0085209 L62.1076918,13.1426058 L63.7174159,13.1518243 Z" id="Shape"></path>
                            <path d="M75.1086667,8.75408973 C75.7815482,8.7403474 76.4524061,8.82455499 77.0943949,9.00334282 C77.5890276,9.14698444 78.0429017,9.38312364 78.4251721,9.69571251 C78.7605433,9.97090989 79.0172167,10.3126252 79.1740604,10.6927249 C79.3335677,11.0746169 79.4140025,11.4787969 79.4115128,11.8859086 C79.4174367,12.3320666 79.3188189,12.7744742 79.1218731,13.1852558 C78.932262,13.5762673 78.6450075,13.9242288 78.2816569,14.2030392 C77.8860099,14.4972506 77.4283927,14.7192341 76.9352235,14.8561746 C76.3521522,15.0184028 75.7432995,15.0963348 75.132151,15.0869645 L70.3361345,15.0869645 L70.3361345,5.28070175 L73.4673748,5.28070175 L73.4673748,8.74255023 L75.1086667,8.75408973 Z M75.1086667,13.0675529 C75.4807335,13.091089 75.8463969,12.9726427 76.1132729,12.7421392 C76.3479176,12.5064617 76.4704052,12.1996468 76.4551,11.8859086 C76.4558461,11.7420565 76.42848,11.5991723 76.3742096,11.4635631 C76.3219021,11.3303506 76.2383103,11.2084378 76.1289291,11.1058388 C76.0114527,10.9957793 75.8667723,10.9112591 75.7062117,10.8588936 C75.5152699,10.7956989 75.312495,10.765155 75.1086667,10.7688855 L73.4804217,10.7688855 L73.4804217,13.0767845 L75.1086667,13.0675529 Z" id="Shape"></path>
                            <path d="M83.8052911,10.6931368 C83.8981113,11.4896805 84.1448773,12.0647135 84.5387973,12.4227106 C84.9607374,12.7899579 85.5096925,12.9822937 86.0714631,12.9597064 C86.3635132,12.9654685 86.6546416,12.9254431 86.9340121,12.8411198 C87.1559997,12.7697164 87.3717754,12.6806722 87.5792259,12.5748594 C87.7671303,12.4764102 87.9414512,12.3891484 88.0999248,12.308599 C88.2529843,12.2298387 88.4231605,12.1891352 88.5957207,12.1900125 C88.8004381,12.1787241 88.9968113,12.2715455 89.1164195,12.4361355 L89.9518016,13.4564275 C89.6738381,13.7749402 89.3495857,14.0509193 88.9896407,14.275346 C88.6588352,14.4825452 88.3038294,14.6493362 87.9323956,14.7720671 C87.5789409,14.8886618 87.2150825,14.9718218 86.8457197,15.0204276 C86.5025922,15.0639761 86.1570568,15.0863942 85.8111137,15.0875521 C85.1641691,15.0926134 84.52157,14.9827217 83.9139587,14.7631172 C83.332677,14.5525618 82.8033046,14.2223246 82.3609177,13.7942873 C81.901935,13.3412496 81.5447688,12.7976492 81.3127283,12.1989624 C81.0414916,11.4903134 80.9100821,10.7368825 80.9256,9.97937993 C80.9223361,9.36178898 81.0343883,8.74890268 81.2561306,8.17149421 C81.6848929,7.0370434 82.5676817,6.1273288 83.6966235,5.65656406 C84.8902999,5.18481651 86.2164377,5.15620299 87.429808,5.5760147 C87.9391732,5.76067934 88.4024197,6.05140725 88.7881529,6.42849547 C89.1800978,6.81834086 89.4840898,7.2857823 89.6801326,7.80007214 C89.9012673,8.3882071 90.0095205,9.01193329 89.9993437,9.63928262 C90.0014909,9.81419826 89.992417,9.98907252 89.9721768,10.1628535 C89.9613122,10.2753906 89.9266011,10.3844073 89.8703009,10.4828135 C89.8252205,10.5590771 89.7548312,10.6175771 89.671077,10.6483872 C89.5674431,10.6819908 89.4585956,10.6971425 89.3496021,10.6931368 L83.8052911,10.6931368 Z M87.4275472,9.04187484 C87.4278951,8.81895732 87.3982032,8.59698659 87.3392517,8.38181755 C87.2825906,8.17357813 87.1840338,7.97876549 87.0494714,7.80902207 C86.9090543,7.63487755 86.7301642,7.4948136 86.5265087,7.3995628 C86.2782032,7.29014382 86.0081589,7.23737718 85.7364047,7.24517652 C85.2630307,7.21897625 84.7996116,7.38648158 84.4550327,7.70833536 C84.1155982,8.08251634 83.9020239,8.55158609 83.8437776,9.05082477 L87.4275472,9.04187484 Z" id="Shape"></path>
                        </g>
                    </g>
                    <rect id="Rectangle" fill="#FFFFFF" x="0" y="0" width="66" height="66" rx="15"></rect>
                    <path d="M29.5287445,54.1738297 C26.5137514,50.8835562 28.7204289,45.5031894 33.1769581,45.3805257 C33.3280676,45.3805257 33.4815756,45.3805257 33.6350836,45.3805257 L33.7358232,45.3805257 C38.2379251,45.4069826 40.5477408,50.8089959 37.5039649,54.1329418 L37.3456598,54.3061141 C36.3550893,55.3856914 34.9589508,56 33.4959669,56 C32.0329831,56 30.6368446,55.3856914 29.6462741,54.3061141 L29.5287445,54.1738297 Z M17.5647145,40.5990464 C18.7208217,41.9820195 19.9249001,43.3914495 21.131377,44.779233 C21.6425618,45.3714357 22.5077169,45.5020768 23.1701552,45.0870949 C29.5045301,41.0849321 37.5574904,41.0438847 43.9321126,44.9812673 C44.5938089,45.3865421 45.4506346,45.2533428 45.9588979,44.66619 C47.1581792,43.2735962 48.3694533,41.861761 49.5255604,40.4787878 C49.818022,40.1283435 49.9473001,39.6693302 49.8808652,39.2172472 C49.8144303,38.7651642 49.5586077,38.3630549 49.1777689,38.1120999 C39.6813361,31.8284597 27.350484,31.8787233 17.9053104,38.2395739 C17.5272221,38.49128 17.2739611,38.8925687 17.2089471,39.3429522 C17.1439331,39.7933358 17.2733225,40.2501658 17.5647145,40.5990464 Z M10.2011275,30.9062085 C10.9926531,32.1929748 12.1199775,33.7515254 13.4295927,35.4760328 C13.9511282,36.1504065 14.9092422,36.2944666 15.6050889,35.803136 C26.374328,28.2726345 40.6707892,28.2247238 51.4899832,35.6828775 C52.1847393,36.162457 53.132039,36.0146933 53.6486894,35.3461536 C54.8012267,33.8758423 55.8756742,32.3456343 56.8675604,30.7618982 C57.3046791,30.0372809 57.1027553,29.096592 56.4070364,28.616486 C42.6188283,19.0722048 24.3667527,19.1287942 10.6376659,28.758391 C9.94995919,29.2467923 9.75888848,30.1868815 10.2011275,30.9062085 Z M33.4096187,14.8949872 C32.154251,14.8887884 30.9464363,14.4127374 30.0228484,13.5601175 C26.11559,10.0124907 20.4501853,8.90611218 15.5283349,11.2078605 C10.7024271,13.4639106 7.92249308,18.372864 8.00164564,23.5415758 C8.0086237,24.1218584 8.32850572,24.6528264 8.83750031,24.9290001 C9.3464949,25.2051738 9.96473851,25.1832202 10.4529766,24.8716352 C17.3180818,20.5219525 25.2673776,18.2019525 33.3880316,18.1780452 L33.6278879,18.1780452 C41.7244769,18.1578851 49.6638874,20.4188464 56.5413559,24.7032733 C57.0332248,25.0228023 57.6603584,25.0456313 58.1740375,24.7627063 C58.6877167,24.4797813 59.0049341,23.9368212 58.9999419,23.3491622 C58.9999419,18.2526055 56.2367384,13.4350486 51.4731932,11.2078605 C46.5513429,8.90611218 40.8859381,10.0052752 36.9786798,13.5601175 C36.049818,14.4150401 34.8359333,14.8911234 33.5751195,14.8949872 L33.4096187,14.8949872 Z" id="Shape" fill="url(#linearGradient-1)"></path>
                </g>
            </g>
        </g>
    </g>
</svg>