<?xml version="1.0" encoding="UTF-8"?>
<svg width="90px" height="90px" viewBox="0 0 90 90" version="1.1" xmlns="http://www.w3.org/2000/svg" xmlns:xlink="http://www.w3.org/1999/xlink">
    <!-- Generator: Sketch 59.1 (86144) - https://sketch.com -->
    <title>моб</title>
    <desc>Created with Sketch.</desc>
    <g id="Artboards" stroke="none" stroke-width="1" fill="none" fill-rule="evenodd">
        <g id="MZ-1920-mian" transform="translate(-210.000000, -461.000000)" fill-rule="nonzero">
            <g id="моб" transform="translate(210.000000, 461.000000)">
                <path d="M45,90 C69.8528137,90 90,69.8528137 90,45 C90,20.1471863 69.8528137,0 45,0 C20.1471863,0 0,20.1471863 0,45 C0,69.8528137 20.1471863,90 45,90 Z M45,88.0851064 C21.2047528,88.0851064 1.91489362,68.7952472 1.91489362,45 C1.91489362,21.2047528 21.2047528,1.91489362 45,1.91489362 C68.7952472,1.91489362 88.0851064,21.2047528 88.0851064,45 C88.0851064,68.7952472 68.7952472,88.0851064 45,88.0851064 Z" id="Oval" fill="#DCDCDC"></path>
                <path d="M55.8108108,20 C58.1244361,20 60,21.8970985 60,24.2372881 L60,65.7627119 C60,68.1029015 58.1244361,70 55.8108108,70 L33.1891892,70 C30.8755639,70 29,68.1029015 29,65.7627119 L29,24.2372881 C29,21.8970985 30.8755639,20 33.1891892,20 L55.8108108,20 Z M55.8108108,21.6949153 L33.1891892,21.6949153 C31.801014,21.6949153 30.6756757,22.8331744 30.6756757,24.2372881 L30.6756757,65.7627119 C30.6756757,67.1668256 31.801014,68.3050847 33.1891892,68.3050847 L55.8108108,68.3050847 C57.198986,68.3050847 58.3243243,67.1668256 58.3243243,65.7627119 L58.3243243,24.2372881 C58.3243243,22.8331744 57.198986,21.6949153 55.8108108,21.6949153 Z M44.5,61 C46.4329966,61 48,62.5670034 48,64.5 C48,66.4329966 46.4329966,68 44.5,68 C42.5670034,68 41,66.4329966 41,64.5 C41,62.5670034 42.5670034,61 44.5,61 Z M44.5,62.75 C43.5335017,62.75 42.75,63.5335017 42.75,64.5 C42.75,65.4664983 43.5335017,66.25 44.5,66.25 C45.4664983,66.25 46.25,65.4664983 46.25,64.5 C46.25,63.5335017 45.4664983,62.75 44.5,62.75 Z M52.8333333,23 C55.1345198,23 57,24.8824391 57,27.2045455 L57,55.7954545 C57,58.1175609 55.1345198,60 52.8333333,60 L36.1666667,60 C33.8654802,60 32,58.1175609 32,55.7954545 L32,27.2045455 C32,24.8824391 33.8654802,23 36.1666667,23 L52.8333333,23 Z M52.8333333,24.6818182 L36.1666667,24.6818182 C34.7859548,24.6818182 33.6666667,25.8112817 33.6666667,27.2045455 L33.6666667,55.7954545 C33.6666667,57.1887183 34.7859548,58.3181818 36.1666667,58.3181818 L52.8333333,58.3181818 C54.2140452,58.3181818 55.3333333,57.1887183 55.3333333,55.7954545 L55.3333333,27.2045455 C55.3333333,25.8112817 54.2140452,24.6818182 52.8333333,24.6818182 Z" id="Combined-Shape" fill="#FFFFFF"></path>
            </g>
        </g>
    </g>
</svg>