<?xml version="1.0" encoding="UTF-8"?>
<svg width="64px" height="64px" viewBox="0 0 64 64" version="1.1" xmlns="http://www.w3.org/2000/svg" xmlns:xlink="http://www.w3.org/1999/xlink">
    <!-- Generator: Sketch 59.1 (86144) - https://sketch.com -->
    <title>Group 33</title>
    <desc>Created with Sketch.</desc>
    <g id="Artboards" stroke="none" stroke-width="1" fill="none" fill-rule="evenodd">
        <g id="MZ-1920-mian" transform="translate(-1365.000000, -1098.000000)" fill-rule="nonzero">
            <g id="Group-2-Copy" transform="translate(1365.000000, 1098.000000)">
                <g id="Group-33">
                    <g id="Group-30-Copy" fill="#DCDCDC">
                        <g id="Group-28-Copy">
                            <path d="M32,64 C49.673112,64 64,49.673112 64,32 C64,14.326888 49.673112,0 32,0 C14.326888,0 0,14.326888 0,32 C0,49.673112 14.326888,64 32,64 Z M32,62.6382979 C15.0789353,62.6382979 1.36170213,48.9210647 1.36170213,32 C1.36170213,15.0789353 15.0789353,1.36170213 32,1.36170213 C48.9210647,1.36170213 62.6382979,15.0789353 62.6382979,32 C62.6382979,48.9210647 48.9210647,62.6382979 32,62.6382979 Z" id="Oval"></path>
                        </g>
                    </g>
                    <g id="новости" transform="translate(17.000000, 17.000000)" fill="#FF5252">
                        <path d="M5.87304226,1 L29,1 L29,24.6950993 C29,27.6427885 27.8820244,29 25.5511509,29 L1,29 L1,9.01829902 L4.85486044,9.01829902 L4.85486044,22.7177419 L5.87304226,22.7177419 L5.87304226,1 Z M0,8.01829902 L0,30 L25.5383771,30 C28.4811898,30 30,28.1539443 30,24.6950993 L30,0 L4.86714269,0 L4.86714269,8.01829902 L0,8.01829902 Z" id="Path-2"></path>
                        <g id="noun_update_598351" transform="translate(10.000000, 8.000000)">
                            <g id="Group">
                                <path d="M0.46875,7.96875 C0.21,7.96875 0,7.75875 0,7.5 C0,3.3646875 3.3646875,0 7.5,0 C9.5034375,0 11.3873437,0.78046875 12.8029687,2.19703125 C12.98625,2.3803125 12.98625,2.67703125 12.8029687,2.85984375 C12.6196875,3.043125 12.3234375,3.043125 12.1401562,2.85984375 C10.90125,1.62 9.253125,0.9375 7.5,0.9375 C3.88125,0.9375 0.9375,3.88125 0.9375,7.5 C0.9375,7.75875 0.7275,7.96875 0.46875,7.96875 Z" id="Path"></path>
                                <path d="M12.8892187,3.75 L10.3125,3.75 C10.0532812,3.75 9.84375,3.54 9.84375,3.28125 C9.84375,3.0225 10.0532812,2.8125 10.3125,2.8125 L12.65625,2.8125 L12.65625,0.46875 C12.65625,0.21 12.8657812,0 13.125,0 C13.3842188,0 13.59375,0.21 13.59375,0.46875 L13.59375,3.04546875 C13.59375,3.4340625 13.2778125,3.75 12.8892187,3.75 Z" id="Path"></path>
                                <path d="M7.5,15 C5.4965625,15 3.613125,14.22 2.19703125,12.8029687 C2.01375,12.6196875 2.01375,12.3234375 2.19703125,12.1401562 C2.3803125,11.956875 2.6765625,11.956875 2.85984375,12.1401562 C4.09921875,13.38 5.746875,14.0625 7.5,14.0625 C11.11875,14.0625 14.0625,11.11875 14.0625,7.5 C14.0625,7.24125 14.2720312,7.03125 14.53125,7.03125 C14.7904687,7.03125 15,7.24125 15,7.5 C15,11.6353125 11.6353125,15 7.5,15 Z" id="Path"></path>
                                <path d="M1.875,15 C1.61625,15 1.40625,14.7904687 1.40625,14.53125 L1.40625,11.9545312 C1.40625,11.5659375 1.7221875,11.25 2.11078125,11.25 L4.6875,11.25 C4.94625,11.25 5.15625,11.4595312 5.15625,11.71875 C5.15625,11.9779688 4.94625,12.1875 4.6875,12.1875 L2.34375,12.1875 L2.34375,14.53125 C2.34375,14.7904687 2.13375,15 1.875,15 Z" id="Path"></path>
                            </g>
                        </g>
                    </g>
                </g>
            </g>
        </g>
    </g>
</svg>