<?xml version="1.0" encoding="UTF-8"?>
<svg width="64px" height="64px" viewBox="0 0 64 64" version="1.1" xmlns="http://www.w3.org/2000/svg" xmlns:xlink="http://www.w3.org/1999/xlink">
    <!-- Generator: Sketch 59.1 (86144) - https://sketch.com -->
    <title>Group 31</title>
    <desc>Created with Sketch.</desc>
    <g id="Artboards" stroke="none" stroke-width="1" fill="none" fill-rule="evenodd">
        <g id="MZ-1920-mian" transform="translate(-980.000000, -1202.000000)" fill-rule="nonzero">
            <g id="Group-36" transform="translate(980.000000, 1202.000000)">
                <g id="Group-31">
                    <path d="M32.3404255,48.3404255 C41.1769815,48.3404255 48.3404255,41.1769815 48.3404255,32.3404255 C48.3404255,23.5038695 41.1769815,16.3404255 32.3404255,16.3404255 C23.5038695,16.3404255 16.3404255,23.5038695 16.3404255,32.3404255 C16.3404255,41.1769815 23.5038695,48.3404255 32.3404255,48.3404255 Z M32.3404255,46.9787234 C24.2559169,46.9787234 17.7021277,40.4249342 17.7021277,32.3404255 C17.7021277,24.2559169 24.2559169,17.7021277 32.3404255,17.7021277 C40.4249342,17.7021277 46.9787234,24.2559169 46.9787234,32.3404255 C46.9787234,40.4249342 40.4249342,46.9787234 32.3404255,46.9787234 Z" id="Oval" fill="#FF5252"></path>
                    <g id="Group-30-Copy-2" fill="#DCDCDC">
                        <g id="Group-28-Copy">
                            <path d="M32,64 C49.673112,64 64,49.673112 64,32 C64,14.326888 49.673112,0 32,0 C14.326888,0 0,14.326888 0,32 C0,49.673112 14.326888,64 32,64 Z M32,62.6382979 C15.0789353,62.6382979 1.36170213,48.9210647 1.36170213,32 C1.36170213,15.0789353 15.0789353,1.36170213 32,1.36170213 C48.9210647,1.36170213 62.6382979,15.0789353 62.6382979,32 C62.6382979,48.9210647 48.9210647,62.6382979 32,62.6382979 Z" id="Oval"></path>
                        </g>
                    </g>
                    <path d="M28.4057285,25.8723404 C25.156202,25.8723404 23.1510408,30.0394173 25.5990072,33.0278369 C27.1341283,34.9018766 29.3145949,37.2736245 32.142678,40.1466044 L32.6237294,40.6352927 L33.1089698,40.1507637 C36.319645,36.9447958 38.3719213,34.5505956 39.283761,32.930304 C40.0536342,31.5622795 40.4604539,29.922912 40.2778913,28.6088383 C40.0429158,26.9174999 38.8752145,25.8723404 36.9310276,25.8723404 C34.8435814,25.8723404 33.3282382,26.5147804 32.4764421,27.79557 C31.2772524,26.5259629 29.9146573,25.8723404 28.4057285,25.8723404 Z M26.6524061,32.1649444 C24.9358828,30.0694533 26.3002578,27.2340426 28.4057285,27.2340426 C29.7479052,27.2340426 30.9638373,27.9486583 32.0829511,29.4427664 L32.8611151,30.4816789 L33.2734707,29.25089 C33.7248117,27.9037383 34.8861665,27.2340426 36.9310276,27.2340426 C38.1874753,27.2340426 38.7866145,27.7703065 38.9291431,28.7962181 C39.0664908,29.7848377 38.731336,31.1354162 38.097068,32.2624774 C37.3074639,33.6655628 35.4804996,35.8222932 32.6314461,38.7004815 C30.063541,36.0748755 28.0698951,33.8953816 26.6524061,32.1649444 Z" id="Path-21" fill="#FF5252"></path>
                </g>
            </g>
        </g>
    </g>
</svg>