<?xml version="1.0" encoding="UTF-8"?>
<svg width="64px" height="64px" viewBox="0 0 64 64" version="1.1" xmlns="http://www.w3.org/2000/svg" xmlns:xlink="http://www.w3.org/1999/xlink">
    <!-- Generator: Sketch 59.1 (86144) - https://sketch.com -->
    <title>Group 34</title>
    <desc>Created with Sketch.</desc>
    <g id="Artboards" stroke="none" stroke-width="1" fill="none" fill-rule="evenodd">
        <g id="MZ-1920-mian" transform="translate(-595.000000, -1202.000000)" fill-rule="nonzero">
            <g id="Group-3" transform="translate(595.000000, 1202.000000)">
                <g id="Group-34">
                    <g id="Group-32-Copy" fill="#DCDCDC">
                        <g id="Group-31-Copy">
                            <g id="Group-30-Copy-2">
                                <g id="Group-28-Copy">
                                    <path d="M32,64 C49.673112,64 64,49.673112 64,32 C64,14.326888 49.673112,0 32,0 C14.326888,0 0,14.326888 0,32 C0,49.673112 14.326888,64 32,64 Z M32,62.6382979 C15.0789353,62.6382979 1.36170213,48.9210647 1.36170213,32 C1.36170213,15.0789353 15.0789353,1.36170213 32,1.36170213 C48.9210647,1.36170213 62.6382979,15.0789353 62.6382979,32 C62.6382979,48.9210647 48.9210647,62.6382979 32,62.6382979 Z" id="Oval"></path>
                                </g>
                            </g>
                        </g>
                    </g>
                    <path d="M36.0851064,44.889967 C35.6071822,47.1594705 34.2731172,48.2942223 32.0829114,48.2942223 C29.8927056,48.2942223 28.5033664,47.1594705 27.9148936,44.889967 L36.0851064,44.889967 Z M31.6578042,18.3367755 C36.6130946,18.3367755 39.912173,20.92661 41.4360685,25.9775078 L41.5309265,26.3032466 L41.5562993,26.393567 L41.5562993,36.2767207 L45.6416957,41.5420856 L45.6416957,44.1858968 L17.7021277,44.1858968 L17.7021277,41.5343217 L21.9618787,36.2689568 L21.9618787,26.4023314 L21.9828017,26.319893 C23.3212911,21.0461273 26.5911441,18.3367755 31.6578042,18.3367755 Z M31.6578042,19.6984776 C27.3579008,19.6984776 24.6490355,21.841765 23.4077991,26.26127 L23.3235808,26.5733024 L23.3235808,36.7508041 L19.0638298,42.016169 L19.0638298,42.8241947 L44.2799936,42.8241947 L44.2799936,42.0084051 L40.1945972,36.7430403 L40.1945972,26.5821406 C38.8653402,21.9481776 36.0611832,19.6984776 31.6578042,19.6984776 Z M32,16.3404255 C33.2295437,16.3404255 33.9363609,16.9758751 34.1204514,18.2467741 L29.8657964,18.2467741 C30.0590551,16.9758751 30.7704563,16.3404255 32,16.3404255 Z" id="Combined-Shape" fill="#FF5252"></path>
                </g>
            </g>
        </g>
    </g>
</svg>