<?xml version="1.0" encoding="UTF-8"?>
<svg width="162px" height="46px" viewBox="0 0 162 46" version="1.1" xmlns="http://www.w3.org/2000/svg" xmlns:xlink="http://www.w3.org/1999/xlink">
    <!-- Generator: Sketch 59.1 (86144) - https://sketch.com -->
    <title>Play Store</title>
    <desc>Created with Sketch.</desc>
    <defs>
        <linearGradient x1="58.7438368%" y1="9.59026547%" x2="90.0174633%" y2="60.8514694%" id="linearGradient-1">
            <stop stop-color="#FF177B" offset="0%"></stop>
            <stop stop-color="#FFEC73" offset="100%"></stop>
        </linearGradient>
        <linearGradient x1="46.1125458%" y1="-770.562461%" x2="34.9288735%" y2="495.556303%" id="linearGradient-2">
            <stop stop-color="#064AA2" offset="0%"></stop>
            <stop stop-color="#63FFD4" offset="100%"></stop>
        </linearGradient>
        <linearGradient x1="37.3535518%" y1="-44.0352456%" x2="0.971455245%" y2="101.060094%" id="linearGradient-3">
            <stop stop-color="#064AA2" offset="0%"></stop>
            <stop stop-color="#63FFD4" offset="100%"></stop>
        </linearGradient>
        <path d="M12.216066,11.271476 L0.439426835,0 C0.164678066,0.0644503757 0,0.271991366 0,0.621262458 L0,11.271476 L0,22.1879449 C0,22.4842753 0.118291205,22.6605846 0.263656101,22.7204556 L12.216066,11.271476 Z" id="path-4"></path>
        <path d="M0.486390187,11.4299155 L7.29329443,7.65378353 C8.96951217,6.71581068 10.2998004,5.9714055 10.2998004,5.9714055 L15.2498864,3.27890534 L11.954346,0.0450827846 L0.00207554945,11.495487 C0.135294643,11.5387545 0.370097236,11.5151045 0.55328079,11.4238023" id="path-6"></path>
        <linearGradient x1="78.0887597%" y1="50%" x2="3.41814605%" y2="100%" id="linearGradient-8">
            <stop stop-color="#FF4521" offset="0%"></stop>
            <stop stop-color="#8A33DB" offset="100%"></stop>
        </linearGradient>
        <linearGradient x1="0%" y1="-328.559173%" x2="64.2244373%" y2="305.140762%" id="linearGradient-9">
            <stop stop-color="#00A3B5" offset="0%"></stop>
            <stop stop-color="#D6FFA1" offset="100%"></stop>
        </linearGradient>
        <linearGradient x1="0%" y1="-25.656271%" x2="64.2244373%" y2="100.990704%" id="linearGradient-10">
            <stop stop-color="#00A3B5" offset="0%"></stop>
            <stop stop-color="#D6FFA1" offset="100%"></stop>
        </linearGradient>
        <path d="M0.714422242,0.190538912 C0.487711991,0.067921486 0.262457928,0.0328450426 0.0802424081,0.0824200565 L11.866659,11.3702925 L15.127442,8.2540944 L10.2122796,5.50461242 C10.2122796,5.50461242 5.57957976,2.91257807 2.78232836,1.34745647 L0.714422242,0.190538912 Z" id="path-11"></path>
    </defs>
    <g id="Artboards" stroke="none" stroke-width="1" fill="none" fill-rule="evenodd">
        <g id="MZ-1920-mian" transform="translate(-1140.000000, -27.000000)">
            <g id="header">
                <g id="Group-4-Copy" transform="translate(1141.000000, 28.000000)">
                    <g id="Play-Store">
                        <rect id="background" stroke="#FFFFFF" fill-rule="nonzero" x="0" y="0" width="160.285714" height="44" rx="22"></rect>
                        <g id="icon" transform="translate(20.653061, 15.714286)">
                            <path d="M10.5619977,5.50461242 C10.5619977,5.50461242 1.60600479,0.493659415 1.08000541,0.199261506 C0.553130807,-0.0951364035 0.0288818301,0.0834473129 0.0288818301,0.698765466 L0.0288818301,11.396107 L0.0288818301,22.3109315 C0.0288818301,22.7715361 0.403470415,22.9713376 0.861203661,22.7158391 C1.3180617,22.4603407 10.5619977,17.2876014 10.5619977,17.2876014 C10.5619977,17.2876014 11.8177704,16.5853634 12.4456567,16.2342444 C13.4561579,15.6691641 15.4771601,14.5390035 15.4771601,14.5390035 C15.4771601,14.5390035 19.6475213,12.2050381 20.2024026,11.8956109 C20.7564086,11.5852996 20.703021,11.1600581 20.2356604,10.9151686 C19.7674247,10.6711632 15.4771601,8.2540944 15.4771601,8.2540944 L10.5619977,5.50461242 Z" id="orange" fill="url(#linearGradient-1)" fill-rule="nonzero"></path>
                            <g id="blue" transform="translate(0.000000, 0.088752)">
                                <g id="Clip-2" fill="url(#linearGradient-3)" fill-rule="nonzero">
                                    <path d="M12.216066,11.271476 L0.439426835,0 C0.164678066,0.0644503757 0,0.271991366 0,0.621262458 L0,11.271476 L0,22.1879449 C0,22.4842753 0.118291205,22.6605846 0.263656101,22.7204556 L12.216066,11.271476 Z" id="path-3"></path>
                                </g>
                                <g id="Fill-1-Clipped">
                                    <mask id="mask-5" fill="white">
                                        <use xlink:href="#path-4"></use>
                                    </mask>
                                    <g id="path-3"></g>
                                    <path d="M15.4678246,8.16516374 L10.546244,5.41385857 C10.529008,5.45389378 1.5765079,0.433737244 1.0546244,0.17750356 C0.524044522,-0.156140007 0,0.0227717121 0,0.621262458 L0,11.3602278 C0,11.3562091 0,21.8287446 0,22.2766967 C0,22.7525313 0.374442497,22.9526999 0.790968302,22.7204556 C1.2886771,22.4407643 10.529008,17.2585244 10.546244,17.2178453 L15.4678246,14.4665401 C15.4422535,14.5048782 19.6109883,12.166626 20.125749,11.8927385 C20.7194432,11.5457492 20.6660763,11.1197268 20.2136344,10.9164689 C19.7308449,10.6299338 15.4422535,8.2084257 15.4678246,8.16516374" id="Fill-1" mask="url(#mask-5)"></path>
                                </g>
                            </g>
                            <g id="red" transform="translate(0.262197, 11.316196)">
                                <g id="Fill-7-Clipped">
                                    <mask id="mask-7" fill="white">
                                        <use xlink:href="#path-6"></use>
                                    </mask>
                                    <g id="path-5"></g>
                                    <path d="M10.2840467,-5.81358558 C10.2668107,-5.77355035 1.31431048,-10.7937069 0.79242698,-11.0499406 C0.2618471,-11.3835842 -0.262197422,-11.2046724 -0.262197422,-10.6061817 L-0.262197422,0.132783671 C-0.262197422,0.128764959 -0.262197422,10.6013004 -0.262197422,11.0492526 C-0.262197422,11.5250872 0.112245074,11.7252557 0.52877088,11.4930115 C1.02647968,11.2133202 10.2668107,6.03108027 10.2840467,5.99040113 L15.2056272,3.23909596 C15.1800562,3.27743407 19.348791,0.939181902 19.8635516,0.665294349 C20.4572457,0.318305097 20.4038789,-0.107717362 19.951437,-0.310975228 C19.4686475,-0.597510335 15.1800562,-3.01901845 15.2056272,-3.0622804 L10.2840467,-5.81358558 Z" id="Fill-7" fill="url(#linearGradient-8)" fill-rule="nonzero" mask="url(#mask-7)"></path>
                                </g>
                            </g>
                            <g id="green" transform="translate(0.349718, 0.000000)">
                                <g id="Clip-5" fill="url(#linearGradient-10)" fill-rule="nonzero">
                                    <path d="M0.714422242,0.190538912 C0.487711991,0.067921486 0.262457928,0.0328450426 0.0802424081,0.0824200565 L11.866659,11.3702925 L15.127442,8.2540944 L10.2122796,5.50461242 C10.2122796,5.50461242 5.57957976,2.91257807 2.78232836,1.34745647 L0.714422242,0.190538912 Z" id="path-9"></path>
                                </g>
                                <g id="Fill-4-Clipped">
                                    <mask id="mask-12" fill="white">
                                        <use xlink:href="#path-11"></use>
                                    </mask>
                                    <g id="path-9"></g>
                                    <path d="M15.1181065,8.25391552 L10.1965259,5.50261035 C10.1792899,5.54264556 1.22678978,0.522489024 0.704906283,0.266255339 C0.174326403,-0.067388227 -0.34971812,0.111523492 -0.34971812,0.710014238 L-0.34971812,11.4489796 C-0.34971812,11.4449609 -0.34971812,21.9174964 -0.34971812,22.3654485 C-0.34971812,22.8412831 0.0247243774,23.0414516 0.441250183,22.8092074 C0.938958979,22.5295161 10.1792899,17.3472762 10.1965259,17.3065971 L15.1181065,14.5552919 C15.0925354,14.59363 19.2612702,12.2553778 19.7760309,11.9814903 C20.369725,11.634501 20.3163582,11.2084786 19.8639163,11.0052207 C19.3811268,10.7186856 15.0925354,8.29717748 15.1181065,8.25391552" id="Fill-4" mask="url(#mask-12)"></path>
                                </g>
                            </g>
                        </g>
                        <g id="Google-play" transform="translate(45.795918, 17.510204)" fill="#FFFFFF" fill-rule="nonzero">
                            <path d="M58.2853521,12.9955917 L57.3142123,13.9193168 C57.0897792,14.0436528 56.8665494,14.1880038 56.6439213,14.2905051 C55.9694184,14.5992221 55.2834831,14.6768563 54.6739636,14.6768563 C54.0253336,14.6768563 53.0084648,14.6344001 51.9711382,13.8780736 C50.5300727,12.8548798 49.9000954,11.0959811 49.9000954,9.56331317 C49.9000954,6.39001728 52.4627251,4.83369518 54.5530224,4.83369518 C55.2834831,4.83369518 56.0338,5.01807629 56.6439213,5.40685356 C57.6583833,6.08311978 57.9207234,6.96196262 58.0663342,7.43261966 L53.2930677,9.37650597 L51.7298576,9.49902239 C52.2358852,12.1009794 53.9820114,13.6142389 55.9116554,13.6142389 C56.8755748,13.6142389 57.5909932,13.2970305 58.2474451,12.970118 C58.2474451,12.970118 58.3792169,12.9009751 58.2853521,12.9955917 L58.2853521,12.9955917 Z M55.3688911,7.77588071 C55.7519745,7.63300083 55.9512493,7.50966009 55.9512493,7.22267916 C55.9512493,6.39959342 55.0441031,5.44889275 53.9614761,5.44889275 C53.1596184,5.44889275 51.654053,6.09002037 51.654053,8.3162597 C51.654053,8.66368981 51.6945028,9.03371199 51.7147277,9.40373426 L55.3688911,7.77588071 L55.3688911,7.77588071 Z" id="Fill-1"></path>
                            <path d="M48.3238242,12.8842707 C48.3238242,13.6774748 48.4641605,13.8009024 49.1292585,13.8632212 C49.4759011,13.9043638 49.8213442,13.9225149 50.163189,13.9636574 L49.4147289,14.4132002 L45.8481484,14.4132002 C46.3159359,13.8009024 46.3962995,13.7397936 46.3962995,13.3319984 L46.3962995,12.8764053 L46.3885031,0.736935514 L44.8136182,0.736935514 L46.3297297,0 L49.2240155,0 C48.5967003,0.366652645 48.4089855,0.589911433 48.3286221,1.30446056 L48.3238242,12.8842707" id="Fill-2"></path>
                            <path d="M42.7903503,5.8353915 C43.2543775,6.22074528 44.2225478,7.03863903 44.2225478,8.58973339 C44.2225478,10.1015059 43.3789164,10.8141382 42.5281001,11.4886586 C42.2670474,11.7542321 41.9616876,12.0421888 41.9616876,12.4874326 C41.9616876,12.939331 42.2670474,13.1843362 42.4867867,13.3670314 L43.2166565,13.9362903 C44.1039963,14.693084 44.9129005,15.3869628 44.9129005,16.7964986 C44.9129005,18.7166131 43.0735566,20.6530612 39.5978433,20.6530612 C36.6699815,20.6530612 35.2545489,19.2441304 35.2545489,17.7335677 C35.2545489,16.9985522 35.6167895,15.9574316 36.811884,15.2441944 C38.064458,14.4704621 39.7613007,14.3670154 40.6701951,14.3065203 C40.3863901,13.9362903 40.0624692,13.5485167 40.0624692,12.9157379 C40.0624692,12.569706 40.1654533,12.3634177 40.264845,12.1202274 C40.0439082,12.1414007 39.8211751,12.163179 39.6187994,12.163179 C37.4758919,12.163179 36.2646313,10.5479597 36.2646313,8.95633367 C36.2646313,8.01744975 36.6885426,6.97572413 37.5591175,6.22074528 C38.7111024,5.2625029 40.0846228,5.09735128 41.1761345,5.09735128 L45.3398055,5.09735128 L44.0453193,5.8353915 L42.7903503,5.8353915 L42.7903503,5.8353915 Z M41.3688546,14.8747982 C41.2016597,14.852627 41.1014634,14.852627 40.8998637,14.852627 C40.7151646,14.852627 39.6148165,14.8932743 38.7625447,15.1851954 C38.3116615,15.3533273 37.0085066,15.8503323 37.0085066,17.3265666 C37.0085066,18.7997215 38.4154793,19.8620929 40.5920319,19.8620929 C42.5476696,19.8620929 43.5858478,18.9056508 43.5858478,17.6178719 C43.5858478,16.557964 42.91405,15.9987563 41.3688546,14.8747982 L41.3688546,14.8747982 Z M41.9402158,10.9430714 C42.4052351,10.4732712 42.4457753,9.82435591 42.4457753,9.4558734 C42.4457753,7.99219548 41.5831048,5.71254885 39.9108236,5.71254885 C39.3891673,5.71254885 38.8239899,5.97730146 38.5032458,6.38679355 C38.1628278,6.81075957 38.0608812,7.36076956 38.0608812,7.88967169 C38.0608812,9.25263506 38.8466446,11.5129831 40.5749666,11.5129831 C41.0793338,11.5129831 41.6218564,11.2651167 41.9402158,10.9430714 L41.9402158,10.9430714 Z" id="Fill-3"></path>
                            <path d="M30.1976139,14.6768563 C26.9790683,14.6768563 25.2569903,12.132461 25.2569903,9.82867759 C25.2569903,7.13686939 27.4218883,4.83369518 30.5012276,4.83369518 C33.4779624,4.83369518 35.3422468,7.19961125 35.3422468,9.68370127 C35.3422468,12.1099226 33.4995634,14.6768563 30.1976139,14.6768563 L30.1976139,14.6768563 Z M32.714682,13.0127816 C33.2059828,12.3530335 33.3251955,11.5295703 33.3251955,10.7268768 C33.3251955,8.91134805 32.4726441,5.44889275 29.9529212,5.44889275 C29.2828013,5.44889275 28.6078648,5.71462459 28.1213806,6.14834782 C27.3278335,6.86979449 27.1863437,7.77633713 27.1863437,8.66577519 C27.1863437,10.7024417 28.1785787,14.0616587 30.6411036,14.0616587 C31.4358548,14.0616587 32.2468625,13.6713078 32.714682,13.0127816 L32.714682,13.0127816 Z" id="Fill-4"></path>
                            <path d="M19.4104317,14.6768563 C16.1899447,14.6768563 14.4701507,12.132461 14.4701507,9.82867759 C14.4701507,7.13686939 16.636551,4.83369518 19.7159727,4.83369518 C22.6921469,4.83369518 24.5554072,7.19961125 24.5554072,9.68370127 C24.5554072,12.1099226 22.7143571,14.6768563 19.4104317,14.6768563 L19.4104317,14.6768563 Z M21.9287477,13.0127816 C22.4166752,12.3530335 22.5383559,11.5295703 22.5383559,10.7268768 C22.5383559,8.91134805 21.6829767,5.44889275 19.1644271,5.44889275 C18.4915689,5.44889275 17.8235298,5.71462459 17.3356022,6.14834782 C16.540461,6.86979449 16.3995041,7.77633713 16.3995041,8.66577519 C16.3995041,10.7024417 17.3964426,14.0616587 19.855959,14.0616587 C20.6492931,14.0616587 21.4594938,13.6713078 21.9287477,13.0127816 L21.9287477,13.0127816 Z" id="Fill-5"></path>
                            <path d="M13.1349491,14.0687255 L10.4087707,14.6983775 C9.30419849,14.8740236 8.31231305,15.0283977 7.2619751,15.0283977 C2.00365673,15.0283977 0,11.124677 0,8.06940631 C0,4.33829291 2.83886521,0.878853669 7.70067047,0.878853669 C8.72931469,0.878853669 9.71878971,1.03140448 10.6202846,1.27937553 C12.0490575,1.6841518 12.7173448,2.18313276 13.1349491,2.47547118 L11.551307,3.99247054 L10.8836223,4.14319804 L11.3596791,3.37801287 C10.7148933,2.74289094 9.52957214,1.57049841 7.28005321,1.57049841 C4.272459,1.57049841 2.00365673,3.87638605 2.00365673,7.24283615 C2.00365673,10.8584728 4.59424929,14.2595659 8.74920061,14.2595659 C9.97007536,14.2595659 10.5985908,14.0122026 11.1692564,13.7812492 L11.1692564,10.6816111 L8.29061933,10.8378086 L9.81641148,10.0112384 L13.8562655,10.0112384 L13.3621306,10.4907707 C13.2289553,10.6050319 13.2108771,10.6439292 13.1735157,10.7970878 C13.1536298,10.9721262 13.1349491,11.5288456 13.1349491,11.7245482 L13.1349491,14.0687255" id="Fill-6"></path>
                            <path d="M64.1687525,13.0896267 L64.1687525,18.2801563 L63.1424757,18.2801563 L63.1424757,5.0722361 L64.1687525,5.0722361 L64.1687525,6.57655365 C64.8373055,5.60427294 66.0589778,4.83369518 67.4778492,4.83369518 C70.0227994,4.83369518 71.7368682,6.7728215 71.7368682,9.84245063 C71.7368682,12.8915471 70.0227994,14.8711348 67.4778492,14.8711348 C66.1383384,14.8711348 64.93831,14.1772525 64.1687525,13.0896267 L64.1687525,13.0896267 Z M70.6844936,9.92158727 C70.6844936,7.58364305 69.4793775,5.80043422 67.3425144,5.80043422 C66.0154988,5.80043422 64.7464157,6.85498071 64.1948503,7.77465754 L64.1948503,12.0471575 C64.7464157,12.9686652 66.0154988,14.0616587 67.3425144,14.0616587 C69.4793775,14.0616587 70.6844936,12.2631931 70.6844936,9.92158727 L70.6844936,9.92158727 Z" id="Fill-7"></path>
                            <polygon id="Fill-8" points="73.1400343 1.40616587 74.1924089 1.40616587 74.1924089 14.6768563 73.1400343 14.6768563"></polygon>
                            <path d="M85.6337616,17.3662448 C85.8532211,17.4647028 86.2278053,17.5251065 86.4653025,17.5251065 C87.0930166,17.5251065 87.5301317,17.2671828 87.9227534,16.3562955 L88.6713206,14.6523079 L84.628457,5.00946591 L85.7732537,5.00946591 L89.2413139,13.3657097 L92.6757042,5.00946591 L93.8367347,5.00946591 L88.9058116,16.6758309 C88.3941409,17.877864 87.5890551,18.4559271 86.4833403,18.4559271 C86.1514454,18.4559271 85.713729,18.3967314 85.4575928,18.3176026 L85.6337616,17.3662448" id="Fill-9"></path>
                            <path d="M82.7374714,14.6637624 C82.668538,14.3303649 82.6165357,14.0364405 82.5784409,13.7910988 C82.5469976,13.5463643 82.5288573,13.2961642 82.5288573,13.0417133 C82.1751204,13.5633682 81.673842,13.9975745 81.0334875,14.339474 C80.3925283,14.6838027 79.7836171,14.852627 78.9485562,14.852627 C77.9429759,14.852627 77.162336,14.6042488 76.6054271,14.1002051 C76.0503322,13.5967687 75.7709708,12.9147914 75.7709708,12.0518443 C75.7709708,11.1901117 76.1755007,10.4905233 76.9821418,9.95550821 C77.7887828,9.41806397 78.8312485,9.15086011 80.1216324,9.15086011 L82.5288573,9.15086011 L82.5288573,7.95633716 C82.5288573,7.26828712 82.2954514,6.72719921 81.8292443,6.33489529 C81.3612233,5.9419841 80.7045424,5.74340302 79.8531551,5.74340302 C79.0749339,5.74340302 78.4436497,5.92498022 77.9629303,6.2784181 C77.4864436,6.63914338 77.2463862,7.08610263 77.2463862,7.62476141 L76.190013,7.62476141 L76.1682446,7.57314248 C76.1301499,6.84683368 76.4609089,6.20979528 77.16415,5.65959815 C77.8643677,5.11000831 78.7816649,4.83369518 79.9105996,4.83369518 C81.0359062,4.83369518 81.946552,5.10575734 82.632862,5.64866709 C83.3185674,6.1861113 83.6626294,6.96282446 83.6626294,7.9781993 L83.6626294,12.7210686 C83.6626294,13.0617536 83.6789558,13.3909002 83.7212833,13.7115448 C83.7648201,14.0327969 83.8343581,14.3534416 83.9268739,14.6637624 L82.7374714,14.6637624 L82.7374714,14.6637624 Z M79.0727347,13.9737733 C79.9487696,13.9737733 80.5783064,13.7760008 81.2217388,13.3847284 C81.8609421,12.9958977 82.2959388,12.4886477 82.5237078,11.874576 L82.5237078,10.0189318 L80.10706,10.0189318 C79.1839006,10.0189318 78.4196357,10.2252502 77.8184945,10.6415493 C77.2161451,11.0566276 76.9110433,11.5589944 76.9110433,12.143156 C76.9110433,12.6943556 77.1043751,13.1350711 77.4886221,13.4689649 C77.8740774,13.8065212 78.4009067,13.9737733 79.0727347,13.9737733 L79.0727347,13.9737733 Z" id="Fill-10"></path>
                        </g>
                        <text id="Доступно-в" font-family="Helvetica" font-size="10" font-weight="normal" fill="#FFFFFF">
                            <tspan x="46" y="12">Доступно в</tspan>
                        </text>
                    </g>
                </g>
            </g>
        </g>
    </g>
</svg>