<?xml version="1.0" encoding="UTF-8"?>
<svg width="129px" height="37px" viewBox="0 0 129 37" version="1.1" xmlns="http://www.w3.org/2000/svg" xmlns:xlink="http://www.w3.org/1999/xlink">
    <!-- Generator: Sketch 59.1 (86144) - https://sketch.com -->
    <title>Play Store</title>
    <desc>Created with Sketch.</desc>
    <defs>
        <linearGradient x1="58.5921028%" y1="9.59026547%" x2="89.3230303%" y2="60.8514694%" id="linearGradient-1">
            <stop stop-color="#FF177B" offset="0%"></stop>
            <stop stop-color="#FFEC73" offset="100%"></stop>
        </linearGradient>
        <linearGradient x1="46.4274166%" y1="-770.562461%" x2="36.1495845%" y2="495.556303%" id="linearGradient-2">
            <stop stop-color="#064AA2" offset="0%"></stop>
            <stop stop-color="#63FFD4" offset="100%"></stop>
        </linearGradient>
        <linearGradient x1="37.5730087%" y1="-44.0352456%" x2="1.82225982%" y2="101.060094%" id="linearGradient-3">
            <stop stop-color="#064AA2" offset="0%"></stop>
            <stop stop-color="#63FFD4" offset="100%"></stop>
        </linearGradient>
        <path d="M9.90786102,9.22211675 L0.356397878,0 C0.133562424,0.0527321255 0,0.22253839 0,0.508305648 L0,9.22211675 L0,18.1537731 C0,18.3962253 0.0959402824,18.5404783 0.213838727,18.5894637 L9.90786102,9.22211675 Z" id="path-4"></path>
        <path d="M0.394487585,9.35174907 L5.9152388,6.26218652 C7.27473804,5.49475419 8.35367053,4.88569541 8.35367053,4.88569541 L12.3684462,2.68274073 L9.69559258,0.0368859147 L0.0016833779,9.40539848 C0.109730949,9.44079914 0.30016799,9.4214491 0.448739322,9.34674734" id="path-6"></path>
        <linearGradient x1="77.6013285%" y1="50%" x2="4.22649259%" y2="100%" id="linearGradient-8">
            <stop stop-color="#FF4521" offset="0%"></stop>
            <stop stop-color="#8A33DB" offset="100%"></stop>
        </linearGradient>
        <linearGradient x1="0%" y1="-333.052418%" x2="64.2244373%" y2="308.169112%" id="linearGradient-9">
            <stop stop-color="#00A3B5" offset="0%"></stop>
            <stop stop-color="#D6FFA1" offset="100%"></stop>
        </linearGradient>
        <linearGradient x1="0%" y1="-26.9923383%" x2="64.2244373%" y2="101.891184%" id="linearGradient-10">
            <stop stop-color="#00A3B5" offset="0%"></stop>
            <stop stop-color="#D6FFA1" offset="100%"></stop>
        </linearGradient>
        <path d="M0.579433369,0.155895473 C0.395559636,0.0555721249 0.212866947,0.0268732166 0.065080741,0.0674345917 L9.62447388,9.30296662 L12.2691375,6.75334996 L8.28268669,4.5037738 C8.28268669,4.5037738 4.52532761,2.38301842 2.25661213,1.10246439 L0.579433369,0.155895473 Z" id="path-11"></path>
    </defs>
    <g id="Artboards" stroke="none" stroke-width="1" fill="none" fill-rule="evenodd">
        <g id="MZ-mob-main" transform="translate(-195.000000, -553.000000)">
            <g id="header" transform="translate(-48.000000, 0.000000)">
                <g id="Group-4" transform="translate(85.000000, 553.000000)">
                    <g id="Play-Store" transform="translate(159.000000, 0.000000)">
                        <rect id="background" stroke="#FFFFFF" fill-rule="nonzero" x="0" y="0.584615385" width="127" height="35" rx="17.5"></rect>
                        <g id="icon" transform="translate(16.000000, 12.584615)">
                            <path d="M8.56632616,4.5037738 C8.56632616,4.5037738 1.30255291,0.403903158 0.875940214,0.163032141 C0.448617678,-0.0778388756 0.0234246572,0.0682750742 0.0234246572,0.571717199 L0.0234246572,9.32408751 L0.0234246572,18.2543985 C0.0234246572,18.6312568 0.327235363,18.7947308 0.698480688,18.5856865 C1.06901618,18.3766424 8.56632616,14.1444012 8.56632616,14.1444012 C8.56632616,14.1444012 9.58482269,13.5698427 10.0940709,13.2825636 C10.9136396,12.8202252 12.5527769,11.8955483 12.5527769,11.8955483 C12.5527769,11.8955483 15.9351554,9.98594024 16.3851928,9.73277252 C16.8345204,9.47888147 16.7912202,9.13095664 16.4121666,8.9305925 C16.0324033,8.73095168 12.5527769,6.75334996 12.5527769,6.75334996 L8.56632616,4.5037738 Z" id="orange" fill="url(#linearGradient-1)" fill-rule="nonzero"></path>
                            <g id="blue" transform="translate(0.000000, 0.072615)">
                                <g id="Clip-2" fill="url(#linearGradient-3)" fill-rule="nonzero">
                                    <path d="M9.90786102,9.22211675 L0.356397878,0 C0.133562424,0.0527321255 0,0.22253839 0,0.508305648 L0,9.22211675 L0,18.1537731 C0,18.3962253 0.0959402824,18.5404783 0.213838727,18.5894637 L9.90786102,9.22211675 Z" id="path-3"></path>
                                </g>
                                <g id="Fill-1-Clipped">
                                    <mask id="mask-5" fill="white">
                                        <use xlink:href="#path-4"></use>
                                    </mask>
                                    <g id="path-3"></g>
                                    <path d="M12.5452053,6.68058851 L8.55354908,4.42952065 C8.5395698,4.46227673 1.2786294,0.354875927 0.855354908,0.145230185 C0.425027197,-0.127750915 0,0.0186314008 0,0.508305648 L0,9.29473185 C0,9.29144383 0,17.8598819 0,18.2263882 C0,18.6157074 0.303692221,18.7794817 0.641516181,18.5894637 C1.04518374,18.3606254 8.5395698,14.1206109 8.55354908,14.087328 L12.5452053,11.8362601 C12.5244659,11.8676276 15.9055253,9.95451221 16.3230228,9.7304224 C16.8045395,9.44652208 16.7612562,9.09795831 16.3943024,8.93165638 C16.0027352,8.69721856 12.5244659,6.71598466 12.5452053,6.68058851" id="Fill-1" mask="url(#mask-5)"></path>
                                </g>
                            </g>
                            <g id="red" transform="translate(0.212656, 9.258706)">
                                <g id="Fill-7-Clipped">
                                    <mask id="mask-7" fill="white">
                                        <use xlink:href="#path-6"></use>
                                    </mask>
                                    <g id="path-5"></g>
                                    <path d="M8.34089345,-4.75657002 C8.32691417,-4.72381392 1.06597374,-8.83121475 0.642699244,-9.04086048 C0.212371534,-9.3138416 -0.212655664,-9.16745923 -0.212655664,-8.67778502 L-0.212655664,0.108641185 C-0.212655664,0.105353148 -0.212655664,8.67379126 -0.212655664,9.04029757 C-0.212655664,9.42961678 0.0910365576,9.59339104 0.428860517,9.40337303 C0.83252808,9.1745347 8.32691417,4.93452022 8.34089345,4.90123729 L12.3325497,2.65016942 C12.3118103,2.68153696 15.6928697,0.768421556 16.1103672,0.54433174 C16.5918838,0.260431443 16.5486005,-0.0881323874 16.1816468,-0.254434278 C15.7900796,-0.488872093 12.3118103,-2.470106 12.3325497,-2.50550215 L8.34089345,-4.75657002 Z" id="Fill-7" fill="url(#linearGradient-8)" fill-rule="nonzero" mask="url(#mask-7)"></path>
                                </g>
                            </g>
                            <g id="green" transform="translate(0.283639, 0.000000)">
                                <g id="Clip-5" fill="url(#linearGradient-10)" fill-rule="nonzero">
                                    <path d="M0.579433369,0.155895473 C0.395559636,0.0555721249 0.212866947,0.0268732166 0.065080741,0.0674345917 L9.62447388,9.30296662 L12.2691375,6.75334996 L8.28268669,4.5037738 C8.28268669,4.5037738 4.52532761,2.38301842 2.25661213,1.10246439 L0.579433369,0.155895473 Z" id="path-9"></path>
                                </g>
                                <g id="Fill-4-Clipped">
                                    <mask id="mask-12" fill="white">
                                        <use xlink:href="#path-11"></use>
                                    </mask>
                                    <g id="path-9"></g>
                                    <path d="M12.2615659,6.75320361 L8.26990961,4.50213574 C8.25593033,4.53489183 0.994989929,0.42749102 0.571715435,0.217845278 C0.141387724,-0.0551358221 -0.283639473,0.0912464933 -0.283639473,0.58092074 L-0.283639473,9.36734694 C-0.283639473,9.36405893 -0.283639473,17.932497 -0.283639473,18.2990033 C-0.283639473,18.6883225 0.0200527481,18.8520968 0.357876708,18.6620788 C0.76154427,18.4332405 8.25593033,14.193226 8.26990961,14.159943 L12.2615659,11.9088752 C12.2408264,11.9402427 15.6218858,10.0271273 16.0393834,9.80303749 C16.5209,9.51913717 16.4776167,9.1705734 16.1106629,9.00427148 C15.7190957,8.76983365 12.2408264,6.78859975 12.2615659,6.75320361" id="Fill-4" mask="url(#mask-12)"></path>
                                </g>
                            </g>
                        </g>
                        <g id="Google-play" transform="translate(36.000000, 13.584615)" fill="#FFFFFF" fill-rule="nonzero">
                            <path d="M46.0445781,10.6327569 L45.2773919,11.3885319 C45.1000929,11.4902613 44.9237446,11.6083667 44.7478717,11.6922314 C44.2150242,11.9448181 43.6731454,12.008337 43.1916338,12.008337 C42.6792256,12.008337 41.8759141,11.9736001 41.0564412,11.3547875 C39.9180205,10.5176289 39.4203476,9.07853003 39.4203476,7.82452896 C39.4203476,5.22819595 41.4447877,3.95484151 43.0960921,3.95484151 C43.6731454,3.95484151 44.2658848,4.10569878 44.7478717,4.42378927 C45.5492819,4.97709801 45.7565268,5.69615123 45.8715572,6.08123426 L42.1007462,7.6716867 L40.865833,7.77192741 C41.2655874,9.90080134 42.6450017,11.1389227 44.1693923,11.1389227 C44.9308746,11.1389227 45.4960447,10.8793886 46.0146322,10.6119147 C46.0146322,10.6119147 46.1187299,10.5553433 46.0445781,10.6327569 L46.0445781,10.6327569 Z M43.7406165,6.36208421 C44.0432468,6.2451825 44.2006709,6.14426735 44.2006709,5.90946477 C44.2006709,5.23603098 43.4840387,4.45818498 42.6287792,4.45818498 C41.9953232,4.45818498 40.8059485,4.98274394 40.8059485,6.80421248 C40.8059485,7.08847348 40.8379033,7.3912189 40.8538806,7.69396439 L43.7406165,6.36208421 L43.7406165,6.36208421 Z" id="Fill-1"></path>
                            <path d="M38.1751164,10.5416761 C38.1751164,11.1906612 38.28598,11.2916474 38.8113977,11.3426355 C39.0852403,11.3762976 39.3581353,11.3911486 39.6281877,11.4248106 L39.0369151,11.7926183 L36.2193686,11.7926183 C36.5889139,11.2916474 36.6523999,11.2416493 36.6523999,10.9079987 L36.6523999,10.5352407 L36.6462409,0.602947239 L35.4021048,0.602947239 L36.5998108,0 L38.8862543,0 C38.3906845,0.299988527 38.2423926,0.482654809 38.1789066,1.06728592 L38.1751164,10.5416761" id="Fill-2"></path>
                            <path d="M33.8037527,4.77441123 C34.1703274,5.08970068 34.9351678,5.75888648 34.9351678,7.02796368 C34.9351678,8.26486849 34.2687113,8.84793128 33.5965789,9.39981158 C33.390351,9.61709898 33.1491212,9.85269989 33.1491212,10.2169903 C33.1491212,10.5867254 33.390351,10.7871841 33.5639419,10.9366621 L34.1405284,11.4024194 C34.8415138,12.0216141 35.4805364,12.5893332 35.4805364,13.7425897 C35.4805364,15.3135925 34.0274815,16.8979592 31.2817187,16.8979592 C28.9687506,16.8979592 27.8505795,15.7451976 27.8505795,14.5092827 C27.8505795,13.9079064 28.1367443,13.0560804 29.0808515,12.4725227 C30.0703667,11.839469 31.4108476,11.7548308 32.128861,11.7053348 C31.9046592,11.4024194 31.6487664,11.08515 31.6487664,10.5674219 C31.6487664,10.2843049 31.7301223,10.1155236 31.8086403,9.91654973 C31.6341034,9.9338733 31.4581476,9.95169188 31.2982737,9.95169188 C29.6054081,9.95169188 28.6485298,8.63014887 28.6485298,7.32790937 C28.6485298,6.55973161 28.9834136,5.70741065 29.671155,5.08970068 C30.5812063,4.30568419 31.6662674,4.17056014 32.5285457,4.17056014 L35.8177851,4.17056014 L34.7951599,4.77441123 L33.8037527,4.77441123 L33.8037527,4.77441123 Z M32.6807918,12.1702894 C32.5487102,12.1521494 32.4695567,12.1521494 32.3102958,12.1521494 C32.1643862,12.1521494 31.2951273,12.1854062 30.621845,12.4242508 C30.2656538,12.5618132 29.2361805,12.9684537 29.2361805,14.1762818 C29.2361805,15.3815903 30.3476684,16.2508033 32.0671132,16.2508033 C33.6120385,16.2508033 34.4321841,15.4682597 34.4321841,14.4146224 C34.4321841,13.5474251 33.9014736,13.0898915 32.6807918,12.1702894 L32.6807918,12.1702894 Z M33.1321588,8.95342207 C33.4995173,8.5690401 33.5315435,8.03810938 33.5315435,7.73662369 C33.5315435,6.53906903 32.8500463,4.6739036 31.5289686,4.6739036 C31.1168677,4.6739036 30.6703858,4.89051938 30.4170026,5.22555836 C30.1480774,5.57243965 30.067541,6.02244782 30.067541,6.45518593 C30.067541,7.57033777 30.6882827,9.41971342 32.0536319,9.41971342 C32.4520746,9.41971342 32.8806596,9.21691367 33.1321588,8.95342207 L33.1321588,8.95342207 Z" id="Fill-3"></path>
                            <path d="M23.8556746,12.008337 C21.3130705,12.008337 19.952654,9.926559 19.952654,8.0416453 C19.952654,5.83925678 21.6628918,3.95484151 24.095525,3.95484151 C26.447102,3.95484151 27.9198595,5.89059102 27.9198595,7.92302831 C27.9198595,9.90811851 26.4641665,12.008337 23.8556746,12.008337 L23.8556746,12.008337 Z M25.8441216,10.6468213 C26.2322421,10.1070274 26.3264184,9.43328478 26.3264184,8.7765356 C26.3264184,7.29110295 25.6529153,4.45818498 23.6623709,4.45818498 C23.132986,4.45818498 22.599796,4.67560194 22.2154806,5.0304664 C21.5885899,5.62074095 21.476815,6.36245765 21.476815,7.0901797 C21.476815,8.75654323 22.2606662,11.5049935 24.2060249,11.5049935 C24.8338669,11.5049935 25.4745511,11.1856154 25.8441216,10.6468213 L25.8441216,10.6468213 Z" id="Fill-4"></path>
                            <path d="M15.3339579,12.008337 C12.7898202,12.008337 11.431208,9.926559 11.431208,8.0416453 C11.431208,5.83925678 13.1426326,3.95484151 15.5753309,3.95484151 C17.9264651,3.95484151 19.3984136,5.89059102 19.3984136,7.92302831 C19.3984136,9.90811851 17.9440109,12.008337 15.3339579,12.008337 L15.3339579,12.008337 Z M17.3233908,10.6468213 C17.7088465,10.1070274 17.8049725,9.43328478 17.8049725,8.7765356 C17.8049725,7.29110295 17.1292354,4.45818498 15.1396179,4.45818498 C14.6080698,4.45818498 14.0803286,4.67560194 13.6948729,5.0304664 C13.066723,5.62074095 12.9553691,6.36245765 12.9553691,7.0901797 C12.9553691,8.75654323 13.7429359,11.5049935 15.685918,11.5049935 C16.3126404,11.5049935 16.9526872,11.1856154 17.3233908,10.6468213 L17.3233908,10.6468213 Z" id="Fill-5"></path>
                            <path d="M10.3764182,11.5107754 L8.22277704,12.0259452 C7.35018111,12.1696557 6.56660608,12.2959618 5.73685442,12.2959618 C1.58285959,12.2959618 0,9.10200849 0,6.60224153 C0,3.54951238 2.24266211,0.719062093 6.08341736,0.719062093 C6.89603129,0.719062093 7.67770213,0.843876395 8.38986992,1.0467618 C9.5185797,1.37794238 10.046517,1.78619953 10.3764182,2.02538551 L9.12536409,3.2665668 L8.59790287,3.3898893 L8.97398081,2.76382871 C8.46460944,2.24418349 7.52822301,1.28495325 5.75113586,1.28495325 C3.3751803,1.28495325 1.58285959,3.17158859 1.58285959,5.92595685 C1.58285959,8.88420501 3.62938994,11.6669176 6.91174088,11.6669176 C7.87621413,11.6669176 8.37273218,11.4645294 8.82354965,11.2755675 L8.82354965,8.73950002 L6.54946835,8.86729792 L7.7548219,8.19101326 L10.9462477,8.19101326 L10.5558883,8.58335784 C10.4506817,8.67684426 10.4364003,8.70866937 10.4068853,8.83398097 C10.3911757,8.97719419 10.3764182,9.43269184 10.3764182,9.59281216 L10.3764182,11.5107754" id="Fill-6"></path>
                            <path d="M50.6923786,10.7096946 L50.6923786,14.9564915 L49.8816349,14.9564915 L49.8816349,4.15001136 L50.6923786,4.15001136 L50.6923786,5.38081663 C51.2205257,4.58531423 52.185629,3.95484151 53.3065167,3.95484151 C55.3169903,3.95484151 56.6710796,5.54139941 56.6710796,8.05291415 C56.6710796,10.5476295 55.3169903,12.1672921 53.3065167,12.1672921 C52.2483228,12.1672921 51.3003178,11.5995702 50.6923786,10.7096946 L50.6923786,10.7096946 Z M55.8397191,8.11766231 C55.8397191,6.20479886 54.8876949,4.74580981 53.1996042,4.74580981 C52.1512812,4.74580981 51.1487241,5.60862058 50.7129955,6.36108345 L50.7129955,9.85676525 C51.1487241,10.6107261 52.1512812,11.5049935 53.1996042,11.5049935 C54.8876949,11.5049935 55.8397191,10.0335216 55.8397191,8.11766231 L55.8397191,8.11766231 Z" id="Fill-7"></path>
                            <polygon id="Fill-8" points="57.7795604 1.15049935 58.610921 1.15049935 58.610921 12.008337 57.7795604 12.008337"></polygon>
                            <path d="M67.6494227,14.2087458 C67.8227925,14.2893023 68.1187086,14.3387235 68.3063279,14.3387235 C68.8022129,14.3387235 69.1475274,14.127695 69.4576929,13.3824236 L70.0490501,11.9882519 L66.8552468,4.09865393 L67.7596194,4.09865393 L70.4993364,10.9355807 L73.2124547,4.09865393 L74.1296519,4.09865393 L70.2342945,13.6438617 C69.8300822,14.6273432 69.1940761,15.100304 68.3205775,15.100304 C68.0583854,15.100304 67.7125958,15.0518712 67.5102519,14.9871294 L67.6494227,14.2087458" id="Fill-9"></path>
                            <path d="M65.3613957,11.9976238 C65.3069394,11.724844 65.2658583,11.4843604 65.235764,11.2836263 C65.2109242,11.083389 65.1965937,10.8786798 65.1965937,10.6704927 C64.9171466,11.0973012 64.521144,11.452561 64.0152733,11.7322969 C63.5089249,12.0140204 63.0278939,12.1521494 62.368208,12.1521494 C61.5738142,12.1521494 60.9571201,11.9489308 60.5171702,11.5365315 C60.0786533,11.1246289 59.8579619,10.5666475 59.8579619,9.86059987 C59.8579619,9.1555459 60.1775346,8.58315543 60.8147693,8.14541581 C61.4520039,7.7056887 62.2755366,7.48706736 63.294921,7.48706736 L65.1965937,7.48706736 L65.1965937,6.50973041 C65.1965937,5.94678037 65.0122064,5.50407208 64.6439096,5.18309615 C64.2741798,4.86162336 63.7554115,4.69914793 63.0828279,4.69914793 C62.4680445,4.69914793 61.9693392,4.84771109 61.5895779,5.13688754 C61.2131603,5.4320264 61.0235185,5.79772033 61.0235185,6.23844116 L60.1889991,6.23844116 L60.1718024,6.19620748 C60.1417081,5.60195483 60.4030029,5.08074159 60.9585531,4.63058031 C61.5117149,4.18091589 62.2363663,3.95484151 63.1282082,3.95484151 C64.017184,3.95484151 64.7365809,4.17743782 65.2787559,4.62163671 C65.8204531,5.06136379 66.0922571,5.69685638 66.0922571,6.52761761 L66.0922571,10.408147 C66.0922571,10.6868893 66.1051547,10.9561911 66.1385928,11.2185367 C66.1729862,11.4813793 66.2279202,11.7437249 66.3010064,11.9976238 L65.3613957,11.9976238 L65.3613957,11.9976238 Z M62.4663072,11.4330873 C63.158362,11.4330873 63.6556868,11.2712734 64.1639891,10.9511414 C64.6689504,10.6330072 65.0125914,10.2179844 65.1925256,9.71556217 L65.1925256,8.19730786 L63.2834091,8.19730786 C62.5541266,8.19730786 61.9503685,8.3661138 61.4754757,8.70672215 C60.9996285,9.04633165 60.7586025,9.45735905 60.7586025,9.93530948 C60.7586025,10.3862909 60.9113318,10.7468763 61.2148813,11.0200622 C61.5193854,11.2962447 61.9355728,11.4330873 62.4663072,11.4330873 L62.4663072,11.4330873 Z" id="Fill-10"></path>
                        </g>
                        <g id="Get-it-on" transform="translate(36.000000, 5.584615)" fill="#FFFFFF" fill-rule="nonzero">
                            <path d="M0.00293827416,2.59364337 C0.00293827416,1.05506721 1.1929393,0.0653612797 2.67269629,0.0653612797 C3.66444325,0.0653612797 4.31305815,0.519930194 4.71719146,1.07658256 L3.99280157,1.47988086 C3.71829593,1.11320443 3.23743447,0.828011643 2.67269629,0.828011643 C1.6661756,0.828011643 0.918433659,1.56044897 0.918433659,2.59364337 C0.918433659,3.61173125 1.6661756,4.35927509 2.67269629,4.35927509 C3.19168353,4.35927509 3.64919294,4.13221952 3.87794765,3.9198127 L3.87794765,3.16494448 L2.35243971,3.16494448 L2.35243971,2.41007626 L4.7629424,2.41007626 L4.7629424,4.23476075 C4.26730721,4.76989777 3.5500659,5.12879206 2.67269629,5.12879206 C1.1929393,5.12879206 0.00293827416,4.12535292 0.00293827416,2.59364337" id="Fill-1"></path>
                            <polyline id="Fill-2" points="5.9168828 5.05432984 5.9168828 0.139823497 9.45082529 0.139823497 9.45082529 0.899300457 6.82174599 0.899300457 6.82174599 2.16601596 9.39671705 2.16601596 9.39671705 2.92503263 6.82174599 2.92503263 6.82174599 4.29531317 9.45082529 4.29531317 9.45082529 5.05432984 5.9168828 5.05432984"></polyline>
                            <polyline id="Fill-3" points="11.8541441 5.05432984 11.8541441 0.899300457 10.3162805 0.899300457 10.3162805 0.139823497 14.2829506 0.139823497 14.2829506 0.899300457 12.7450871 0.899300457 12.7450871 5.05432984 11.8541441 5.05432984"></polyline>
                            <polygon id="Fill-4" points="17.4562867 0.139823497 18.3217421 0.139823497 18.3217421 5.05432984 17.4562867 5.05432984"></polygon>
                            <polyline id="Fill-5" points="20.7976579 5.05432984 20.7976579 0.899300457 19.2593186 0.899300457 19.2593186 0.139823497 23.2259887 0.139823497 23.2259887 0.899300457 21.6886008 0.899300457 21.6886008 5.05432984 20.7976579 5.05432984"></polyline>
                            <path d="M26.182961,2.59730589 C26.182961,1.1367273 27.2714261,0.0653612797 28.8156287,0.0653612797 C30.3511505,0.0653612797 31.4478141,1.1367273 31.4478141,2.59730589 C31.4478141,4.05742604 30.3511505,5.12879206 28.8156287,5.12879206 C27.2714261,5.12879206 26.182961,4.05742604 26.182961,2.59730589 L26.182961,2.59730589 Z M30.5102375,2.55984556 C30.5102375,1.55765593 29.843317,0.80998345 28.8156271,0.80998345 C27.7802714,0.80998345 27.1205376,1.55765593 27.1205376,2.55984556 C27.1205376,3.55432255 27.7802714,4.30970766 28.8156271,4.30970766 C29.843317,4.30970766 30.5102375,3.55432255 30.5102375,2.55984556 L30.5102375,2.55984556 Z" id="Fill-6"></path>
                            <polyline id="Fill-7" points="35.9967161 5.05432984 33.3476624 1.54002283 33.3476624 5.05432984 32.4575119 5.05432984 32.4575119 0.139823497 33.3709623 0.139823497 35.9662836 3.54412142 35.9662836 0.139823497 36.8569097 0.139823497 36.8569097 5.05432984 35.9967161 5.05432984"></polyline>
                        </g>
                    </g>
                </g>
            </g>
        </g>
    </g>
</svg>