<?xml version="1.0" encoding="UTF-8"?>
<svg width="90px" height="90px" viewBox="0 0 90 90" version="1.1" xmlns="http://www.w3.org/2000/svg" xmlns:xlink="http://www.w3.org/1999/xlink">
    <!-- Generator: Sketch 59.1 (86144) - https://sketch.com -->
    <title>руб</title>
    <desc>Created with Sketch.</desc>
    <g id="Artboards" stroke="none" stroke-width="1" fill="none" fill-rule="evenodd">
        <g id="MZ-1920-mian" transform="translate(-594.000000, -581.000000)" fill-rule="nonzero">
            <g id="руб" transform="translate(594.000000, 581.000000)">
                <path d="M45,90 C69.8528137,90 90,69.8528137 90,45 C90,20.1471863 69.8528137,0 45,0 C20.1471863,0 0,20.1471863 0,45 C0,69.8528137 20.1471863,90 45,90 Z M45,88.0851064 C21.2047528,88.0851064 1.91489362,68.7952472 1.91489362,45 C1.91489362,21.2047528 21.2047528,1.91489362 45,1.91489362 C68.7952472,1.91489362 88.0851064,21.2047528 88.0851064,45 C88.0851064,68.7952472 68.7952472,88.0851064 45,88.0851064 Z" id="Oval-Copy-18" fill="#DCDCDC"></path>
                <path d="M51.5445796,25 L51.6804234,25.0112259 C58.4857822,26.1434222 62,30.1047847 62,36.6955773 C62,43.3400595 58.4073285,46.7921513 51.5445796,46.7921513 L51.5445796,46.7921513 L34.1990586,46.7921513 L34.199,52 L52,52 L52,54 L34.199,54 L34.1990586,66 L32.5106637,66 L32.51,54 L28,54 L28,52 L32.51,52 L32.5106637,46.7921513 L28,46.7921513 L28,45.0692829 L32.5106637,45.0692829 L32.5106637,25 L51.5445796,25 Z M51.4755216,26.7228684 L34.1990586,26.7228684 L34.1990586,45.0692829 L51.5445796,45.0692829 C57.4967948,45.0692829 60.3116052,42.3646148 60.3116052,36.6955773 C60.3116052,30.9940901 57.4397781,27.735694 51.4755216,26.7228684 L51.4755216,26.7228684 Z" id="Combined-Shape" fill="#FFFFFF"></path>
            </g>
        </g>
    </g>
</svg>