<?xml version="1.0" encoding="UTF-8"?>
<svg width="90px" height="90px" viewBox="0 0 90 90" version="1.1" xmlns="http://www.w3.org/2000/svg" xmlns:xlink="http://www.w3.org/1999/xlink">
    <!-- Generator: Sketch 59.1 (86144) - https://sketch.com -->
    <title>стетос</title>
    <desc>Created with Sketch.</desc>
    <g id="Artboards" stroke="none" stroke-width="1" fill="none" fill-rule="evenodd">
        <g id="MZ-1920-mian" transform="translate(-594.000000, -461.000000)" fill-rule="nonzero">
            <g id="стетос" transform="translate(594.000000, 461.000000)">
                <path d="M43.3638278,24 L43.3622658,24.5224318 C43.637354,24.2025662 44.0450211,24 44.5,24 C45.3284271,24 46,24.6715729 46,25.5 C46,26.3284271 45.3284271,27 44.5,27 C43.7648876,27 43.1532832,26.4711993 43.024827,25.773238 L39.5840078,25.7730517 C38.2800642,26.999799 37.6384259,28.5074207 37.6384259,30.3479851 C37.6384259,35.138926 41.0799112,46.4339676 43.7786607,47.7629067 C44.8977041,48.3139547 46.3769487,48.7027242 47.9580546,48.924817 C48.3910234,48.0034121 49.3482279,47.3638843 50.4596538,47.3638843 C51.6266207,47.3638843 52.6235673,48.068927 53.0211795,49.0632046 C54.8069169,48.9027005 56.3514439,48.5006014 57.2241826,47.8504508 C59.3792556,46.2450194 62.9644305,34.8273644 63.1536607,30.3120307 C63.2818224,27.2538885 62.6925201,25.8638664 61.7636446,25.7773698 L61.6696392,25.7730517 L57.975173,25.773238 C57.8467168,26.4711993 57.2351124,27 56.5,27 C55.6715729,27 55,26.3284271 55,25.5 C55,24.8891081 55.3651853,24.3635098 55.8891604,24.1296005 L55.8899531,24 L61.6696392,24 C64.074209,24 65.1520438,26.3454677 64.9827981,30.3839395 C64.7733389,35.3819699 61.0509792,47.2365154 58.3402738,49.2558676 C57.1873826,50.1147191 55.2818314,50.6325335 53.1324605,50.8288133 L53.0759215,50.8335259 C52.8476373,51.5257369 52.3346162,52.0947268 51.6702625,52.4112884 L51.6664486,61.2015016 C51.2832673,66.2894925 48.694814,69 44.0912365,69 C39.5163743,69 37.338813,66.3066978 37.7666657,61.3781095 L37.7942416,61.0912911 L37.7942416,55.8831004 C37.3789842,53.674182 35.9276234,52.6342112 33.1609125,52.6342112 C30.4710456,52.6342112 28.7907878,53.6382181 27.9460331,55.7247071 L27.8587128,55.9524052 L27.8590017,58.0664101 C29.7806488,58.404068 31.2378961,60.0329891 31.2378961,61.9915608 C31.2378961,64.194827 29.3937803,65.9809272 27.1189481,65.9809272 C24.8441159,65.9809272 23,64.194827 23,61.9915608 C23,60.1541001 24.2825976,58.6067817 26.0279732,58.1436338 L26.0280693,55.6631541 L26.0741883,55.5278168 C27.1238742,52.4474904 29.5544011,50.8611595 33.1609125,50.8611595 C36.712112,50.8611595 38.9347345,52.4164735 39.5632015,55.4044376 L39.6118779,55.6567483 L39.6248852,55.8056723 L39.6248852,61.1370083 L39.619895,61.2294533 C39.1693954,65.3909143 40.5857193,67.2269483 44.0912365,67.2269483 C47.5869758,67.2269483 49.4361745,65.3756835 49.8137603,61.4229255 L49.8382303,61.1370083 L49.838142,52.6146288 C48.8452699,52.3921219 48.0586107,51.6480845 47.8023875,50.6965399 C45.9821581,50.4490408 44.2703612,49.9940892 42.9489949,49.3434117 C39.4148583,47.6031049 35.8077823,35.7645904 35.8077823,30.3479851 C35.8077823,27.9971126 36.6720682,26.0081447 38.3789962,24.4356101 L38.61698,24.2237599 L38.8770362,24 L43.3638278,24 Z M27.1189481,59.7752462 C25.8551524,59.7752462 24.8306436,60.7675241 24.8306436,61.9915608 C24.8306436,63.2155976 25.8551524,64.2078755 27.1189481,64.2078755 C28.3827437,64.2078755 29.4072526,63.2155976 29.4072526,61.9915608 C29.4072526,60.7675241 28.3827437,59.7752462 27.1189481,59.7752462 Z" id="Combined-Shape" fill="#FFFFFF"></path>
                <path d="M45,90 C69.8528137,90 90,69.8528137 90,45 C90,20.1471863 69.8528137,0 45,0 C20.1471863,0 0,20.1471863 0,45 C0,69.8528137 20.1471863,90 45,90 Z M45,88.0851064 C21.2047528,88.0851064 1.91489362,68.7952472 1.91489362,45 C1.91489362,21.2047528 21.2047528,1.91489362 45,1.91489362 C68.7952472,1.91489362 88.0851064,21.2047528 88.0851064,45 C88.0851064,68.7952472 68.7952472,88.0851064 45,88.0851064 Z" id="Oval" fill="#DCDCDC"></path>
            </g>
        </g>
    </g>
</svg>