<svg width="132" height="46" xmlns="http://www.w3.org/2000/svg"><g transform="translate(1 1)" fill="none" fill-rule="evenodd"><rect stroke="#FFF" width="129.976" height="44" rx="22"/><path d="M28.454 20.993c-.028-3.148 2.577-4.679 2.696-4.75-1.475-2.151-3.762-2.445-4.566-2.469-1.92-.202-3.784 1.15-4.763 1.15-.998 0-2.504-1.13-4.128-1.097-2.09.032-4.045 1.242-5.117 3.121-2.213 3.83-.563 9.46 1.557 12.557 1.06 1.518 2.3 3.21 3.922 3.15 1.587-.064 2.18-1.011 4.095-1.011 1.897 0 2.454 1.011 4.108.972 1.703-.025 2.775-1.522 3.798-3.053 1.226-1.736 1.718-3.45 1.738-3.538-.04-.013-3.307-1.26-3.34-5.032m-3.124-9.256c.853-1.067 1.437-2.52 1.274-3.993-1.235.055-2.78.855-3.67 1.899-.786.92-1.49 2.427-1.308 3.845 1.388.104 2.813-.7 3.703-1.75m26.11 20.7H49.22l-1.215-3.818h-4.222l-1.158 3.818h-2.159l4.185-12.996h2.584l4.203 12.996zm-3.8-5.42l-1.098-3.392c-.116-.347-.335-1.164-.655-2.449h-.04c-.128.553-.334 1.37-.616 2.45l-1.08 3.392h3.49zm14.539.619c0 1.594-.432 2.853-1.298 3.778-.776.823-1.74 1.235-2.889 1.235-1.241 0-2.134-.443-2.676-1.33v4.916h-2.082v-10.09c0-1-.026-2.026-.077-3.08h1.831l.116 1.487h.04c.694-1.12 1.748-1.68 3.162-1.68 1.105 0 2.028.437 2.766 1.311.737.876 1.107 2.026 1.107 3.453zm-2.12.076c0-.912-.206-1.664-.618-2.256-.45-.616-1.054-.925-1.812-.925-.514 0-.98.172-1.398.511a2.362 2.362 0 00-.819 1.341 2.705 2.705 0 00-.097.633v1.564c0 .68.21 1.255.627 1.726.418.469.961.704 1.63.704.783 0 1.394-.304 1.83-.906.438-.605.656-1.402.656-2.392zm12.898-.076c0 1.594-.432 2.853-1.298 3.778-.777.823-1.74 1.235-2.89 1.235-1.24 0-2.133-.443-2.676-1.33v4.916H64.01v-10.09c0-1-.026-2.026-.077-3.08h1.831l.116 1.487h.04c.693-1.12 1.747-1.68 3.161-1.68 1.105 0 2.029.437 2.768 1.311.736.876 1.107 2.026 1.107 3.453zm-2.122.076c0-.912-.206-1.664-.618-2.256-.449-.616-1.052-.925-1.81-.925-.514 0-.98.172-1.4.511-.417.341-.69.787-.818 1.341a2.767 2.767 0 00-.098.633v1.564c0 .68.21 1.255.626 1.726.418.468.961.704 1.631.704.785 0 1.396-.304 1.831-.906.438-.605.656-1.402.656-2.392zm14.173 1.08c0 1.106-.386 2.005-1.156 2.7-.845.757-2.026 1.137-3.54 1.137-1.398 0-2.519-.27-3.365-.81l.482-1.735c.913.54 1.916.81 3.008.81.785 0 1.395-.177 1.83-.53.438-.354.658-.826.658-1.415 0-.529-.182-.972-.541-1.332-.36-.359-.956-.695-1.792-1.001-2.275-.849-3.414-2.091-3.414-3.723 0-1.066.402-1.94 1.204-2.622.803-.682 1.867-1.022 3.191-1.022 1.183 0 2.168.206 2.95.617L84 21.564c-.736-.398-1.567-.598-2.497-.598-.734 0-1.312.181-1.723.54a1.546 1.546 0 00-.523 1.178c0 .513.2.939.6 1.272.345.308.976.643 1.888 1.002 1.12.452 1.94.977 2.468 1.58.53.604.794 1.357.794 2.255m6.901-4.163h-2.295v4.549c0 1.157.404 1.734 1.215 1.734.372 0 .68-.03.925-.096l.057 1.58c-.41.154-.95.231-1.618.231-.823 0-1.465-.252-1.93-.753-.462-.502-.694-1.343-.694-2.526v-4.724h-1.366v-1.562h1.366v-1.716l2.045-.617v2.333h2.295v1.566m10.333 3.046c0 1.44-.41 2.623-1.234 3.548-.86.951-2.005 1.427-3.431 1.427-1.377 0-2.472-.456-3.288-1.369-.817-.912-1.225-2.062-1.225-3.45 0-1.452.423-2.641 1.263-3.566.842-.925 1.976-1.389 3.403-1.389 1.376 0 2.48.458 3.316 1.37.799.885 1.196 2.027 1.196 3.43zm-2.158.048c0-.858-.185-1.595-.557-2.21-.437-.745-1.063-1.116-1.871-1.116-.833 0-1.475.371-1.91 1.115-.373.616-.558 1.365-.558 2.25 0 .86.185 1.598.559 2.21.45.746 1.078 1.118 1.892 1.118.795 0 1.419-.38 1.871-1.135.382-.63.574-1.372.574-2.232zm8.929-2.825a3.625 3.625 0 00-.656-.057c-.733 0-1.3.275-1.698.83-.346.488-.52 1.105-.52 1.85v4.917h-2.081v-6.42a65.9 65.9 0 00-.06-2.95h1.813l.076 1.793h.058c.22-.616.566-1.113 1.04-1.485a2.514 2.514 0 011.505-.502c.193 0 .367.014.52.038l.003 1.986m9.311 2.411c0 .373-.024.687-.076.944h-6.245c.022.926.326 1.635.905 2.123.526.436 1.208.655 2.043.655.925 0 1.769-.147 2.527-.444l.326 1.445c-.886.386-1.934.58-3.141.58-1.453 0-2.594-.428-3.424-1.282-.827-.854-1.243-2.004-1.243-3.441 0-1.412.385-2.589 1.158-3.527.809-1.002 1.902-1.503 3.277-1.503 1.35 0 2.373.5 3.066 1.503.55.794.827 1.778.827 2.947zm-1.985-.54c.014-.618-.122-1.15-.405-1.6-.36-.58-.915-.87-1.658-.87-.681 0-1.235.283-1.657.849-.347.45-.553.992-.616 1.619l4.336.002z" fill="#FFF" fill-rule="nonzero"/><text font-family="Helvetica" font-size="10" fill="#FFF"><tspan x="41" y="14">Доступно в</tspan></text></g></svg>