<svg width="129" height="37" xmlns="http://www.w3.org/2000/svg"><g transform="translate(1)" fill="none"><rect stroke="#FFF" y=".585" width="127" height="35" rx="17.5"/><path d="M34.942 16.425c-.023-2.576 2.112-3.828 2.21-3.887-1.21-1.76-3.084-2-3.742-2.02-1.574-.165-3.101.94-3.903.94-.818 0-2.053-.924-3.383-.896-1.713.026-3.315 1.016-4.193 2.553-1.814 3.135-.461 7.74 1.276 10.274.869 1.242 1.884 2.626 3.214 2.578 1.3-.053 1.786-.828 3.355-.828 1.555 0 2.01.828 3.366.796 1.396-.021 2.275-1.246 3.113-2.499 1.004-1.42 1.408-2.822 1.424-2.894-.032-.01-2.71-1.031-2.737-4.117m-2.561-7.573c.7-.873 1.178-2.062 1.045-3.267-1.012.045-2.278.699-3.007 1.553-.645.753-1.22 1.986-1.072 3.146 1.137.085 2.305-.572 3.034-1.432M52.91 26.429h-1.788l-.98-3.124h-3.406l-.934 3.124h-1.741l3.375-10.633h2.084l3.39 10.633zm-3.064-4.434l-.886-2.776c-.093-.284-.27-.952-.528-2.003H48.4a84.58 84.58 0 01-.498 2.003l-.87 2.776h2.814zm11.728.505c0 1.305-.35 2.335-1.048 3.092-.625.674-1.403 1.01-2.33 1.01-1.001 0-1.721-.362-2.158-1.088v4.023h-1.68v-8.255c0-.82-.02-1.66-.062-2.52h1.477l.094 1.216h.031c.56-.917 1.41-1.375 2.551-1.375.892 0 1.636.357 2.232 1.073.594.716.893 1.657.893 2.825zm-1.711.063c0-.746-.166-1.361-.498-1.846-.363-.504-.85-.757-1.462-.757-.414 0-.79.14-1.127.419a1.937 1.937 0 00-.661 1.097c-.052.21-.078.382-.078.517v1.28c0 .556.169 1.027.506 1.412.337.384.775.576 1.314.576.632 0 1.124-.248 1.477-.741.352-.495.529-1.147.529-1.957zm10.405-.063c0 1.305-.35 2.335-1.048 3.092-.626.674-1.403 1.01-2.33 1.01-1.001 0-1.721-.362-2.16-1.088v4.023h-1.678v-8.255c0-.82-.022-1.66-.063-2.52h1.477l.094 1.216h.032c.559-.917 1.409-1.375 2.55-1.375.891 0 1.636.357 2.232 1.073.594.716.894 1.657.894 2.825zm-1.712.063c0-.746-.166-1.361-.499-1.846-.362-.504-.849-.757-1.46-.757-.414 0-.79.14-1.129.419a1.94 1.94 0 00-.66 1.097c-.051.21-.079.382-.079.517v1.28c0 .556.17 1.027.505 1.412.337.383.775.576 1.316.576.633 0 1.125-.248 1.477-.741.353-.495.529-1.147.529-1.957zm11.432.884c0 .904-.311 1.64-.932 2.208-.682.62-1.634.93-2.855.93-1.128 0-2.033-.22-2.715-.661l.389-1.42a4.63 4.63 0 002.426.663c.633 0 1.125-.145 1.477-.434.353-.29.53-.676.53-1.158 0-.433-.147-.795-.437-1.09-.29-.293-.77-.568-1.445-.82-1.835-.693-2.754-1.71-2.754-3.045 0-.872.325-1.587.971-2.145.648-.558 1.507-.837 2.575-.837.954 0 1.748.169 2.38.505l-.422 1.389c-.594-.326-1.264-.49-2.014-.49-.593 0-1.058.149-1.39.443-.28.263-.422.583-.422.963 0 .42.162.768.484 1.04.279.253.787.527 1.523.821.903.37 1.565.8 1.99 1.293.428.494.641 1.11.641 1.845m5.567-3.407h-1.851v3.722c0 .947.326 1.42.98 1.42.3 0 .549-.026.746-.08l.046 1.294c-.33.125-.766.188-1.305.188-.664 0-1.182-.206-1.557-.616-.373-.41-.56-1.098-.56-2.067v-3.864h-1.102v-1.279h1.102v-1.403l1.65-.505v1.908h1.85v1.282m8.336 2.492c0 1.178-.331 2.146-.995 2.903-.694.778-1.618 1.167-2.768 1.167-1.111 0-1.994-.373-2.653-1.12-.658-.746-.987-1.687-.987-2.822 0-1.188.34-2.161 1.018-2.918.68-.757 1.594-1.136 2.745-1.136 1.11 0 2 .374 2.675 1.12.645.725.965 1.659.965 2.806zm-1.74.04c0-.703-.15-1.306-.45-1.81-.352-.609-.857-.912-1.51-.912-.671 0-1.189.303-1.54.912-.301.504-.45 1.117-.45 1.841 0 .703.149 1.307.45 1.809.364.61.87.914 1.527.914.641 0 1.145-.312 1.51-.928.307-.517.462-1.123.462-1.827zm7.201-2.312a2.884 2.884 0 00-.529-.047c-.59 0-1.048.225-1.369.679-.28.4-.419.904-.419 1.514v4.023h-1.68v-5.253c0-.883-.016-1.689-.048-2.414h1.463l.061 1.467h.047c.178-.504.456-.91.84-1.214a2.01 2.01 0 011.213-.412c.155 0 .295.012.42.032l.001 1.625m7.511 1.972c0 .306-.02.563-.061.773h-5.038c.019.757.264 1.337.73 1.737.425.356.975.535 1.649.535.746 0 1.426-.12 2.038-.363l.263 1.183c-.715.316-1.56.474-2.534.474-1.172 0-2.092-.35-2.762-1.048-.667-.7-1.002-1.64-1.002-2.816 0-1.155.31-2.118.934-2.886.652-.82 1.534-1.23 2.643-1.23 1.09 0 1.914.41 2.473 1.23.444.65.667 1.455.667 2.411zm-1.601-.442c.012-.505-.099-.94-.326-1.309-.29-.475-.738-.711-1.338-.711-.55 0-.996.23-1.337.694-.28.369-.445.812-.497 1.325l3.498.001zm-55.869-9.656h-.879l-.48-1.535H46.36l-.459 1.535h-.855l1.657-5.226h1.023l1.665 5.226zm-1.504-2.179l-.435-1.364a20.15 20.15 0 01-.26-.985h-.016c-.053.225-.13.55-.244.985l-.427 1.364h1.382zm5.646-1.589l-1.405 3.768h-.801l-1.36-3.768h.886l.634 1.993c.107.333.199.651.267.953h.023c.061-.27.152-.589.266-.953l.627-1.993h.863m2.991 3.768l-.061-.434h-.023c-.252.35-.618.52-1.084.52-.664 0-1.137-.473-1.137-1.11 0-.93.793-1.41 2.168-1.41v-.07c0-.496-.26-.744-.771-.744a1.71 1.71 0 00-.97.28l-.167-.551c.344-.218.77-.326 1.275-.326.97 0 1.459.52 1.459 1.559v1.387c0 .38.015.675.053.9h-.742zm-.115-1.877c-.916 0-1.374.226-1.374.76 0 .396.237.59.565.59.42 0 .81-.326.81-.768v-.582zm3.011-2.512c-.483 0-.86-.217-.86-.504 0-.287.39-.496.888-.496.497 0 .9.21.887.496 0 .303-.376.504-.915.504zm-.698.621h1.452v3.768h-1.452V8.366zm2.219-1.729h.825v5.497h-.825zm4.328 5.497l-.062-.434h-.022c-.252.35-.618.52-1.084.52-.664 0-1.137-.473-1.137-1.11 0-.93.793-1.41 2.168-1.41v-.07c0-.496-.26-.744-.771-.744a1.71 1.71 0 00-.97.28l-.168-.552c.344-.217.771-.326 1.275-.326.97 0 1.46.52 1.46 1.559v1.388c0 .38.015.675.052.9h-.74zm-.114-1.877c-.917 0-1.375.226-1.375.76 0 .396.237.59.565.59.42 0 .81-.326.81-.768v-.582zm4.142 1.963c-.526 0-.915-.226-1.167-.667h-.016l-.047.581h-.702c.022-.302.03-.644.03-1.015V6.637h.826v2.28h.015c.244-.418.64-.627 1.183-.627.894 0 1.52.775 1.52 1.907 0 1.17-.696 2.023-1.642 2.023zm-.168-3.273c-.474 0-.908.419-.908 1v.66c0 .519.39.946.894.946.617 0 .985-.512.985-1.326 0-.76-.383-1.28-.97-1.28zm3.03-2.31h.823v5.497h-.823zm5.31 3.815h-2.474c.016.713.48 1.116 1.167 1.116a2.76 2.76 0 001-.178l.129.581c-.35.155-.763.233-1.244.233-1.16 0-1.848-.745-1.848-1.9 0-1.155.704-2.023 1.756-2.023.946 0 1.543.713 1.543 1.791.002.147-.005.279-.029.38zm-.755-.597c0-.582-.29-.993-.818-.993-.473 0-.846.42-.901.993h1.72zm5.752 2.365c-1.084 0-1.786-.822-1.786-1.939 0-1.163.717-1.992 1.848-1.992 1.068 0 1.787.783 1.787 1.93 0 1.179-.741 2-1.849 2zM82.5 8.9c-.596 0-.977.566-.977 1.357 0 .776.39 1.342.969 1.342.58 0 .969-.605.969-1.358 0-.767-.381-1.34-.961-1.34zm6.248 3.234h-.823V9.971c0-.667-.252-1-.749-1-.488 0-.825.426-.825.922v2.241h-.823v-2.69c0-.334-.01-.691-.031-1.079h.725l.039.582h.023c.22-.403.671-.66 1.175-.66.778 0 1.289.606 1.289 1.59v2.257m5.394-3.14h-.907v1.83c0 .466.16.698.48.698.145 0 .268-.016.366-.039l.023.636a1.81 1.81 0 01-.64.094c-.65 0-1.038-.365-1.038-1.319v-1.9h-.54v-.628h.54v-.69l.809-.249v.938h.907v.63m4.366 3.139h-.825V9.987c0-.675-.253-1.016-.748-1.016-.428 0-.824.295-.824.892v2.271h-.825V6.637h.825v2.264h.016c.258-.41.634-.613 1.114-.613.786 0 1.267.62 1.267 1.605v2.241m4.212-1.682h-2.474c.016.713.48 1.116 1.168 1.116.368 0 .703-.063.999-.178l.129.581c-.35.155-.763.233-1.245.233-1.16 0-1.847-.745-1.847-1.9 0-1.155.703-2.023 1.755-2.023.947 0 1.543.713 1.543 1.791.003.147-.005.279-.028.38zm-.756-.597c0-.582-.29-.993-.816-.993-.474 0-.847.42-.902.993h1.718z" fill="#FFF"/></g></svg>