<svg width="64" height="64" xmlns="http://www.w3.org/2000/svg"><g fill="none"><path d="M32 64c17.673 0 32-14.327 32-32C64 14.327 49.673 0 32 0 14.327 0 0 14.327 0 32c0 17.673 14.327 32 32 32zm0-1.362C15.079 62.638 1.362 48.921 1.362 32S15.079 1.362 32 1.362 62.638 15.079 62.638 32 48.921 62.638 32 62.638z" fill="#DCDCDC"/><path d="M31.66 16.34c8.514 0 15.475 6.651 15.971 15.041l3.308-4.013 1.05.867-4.973 6.031-5.73-5.994.984-.941 4.005 4.189c-.426-7.703-6.806-13.818-14.615-13.818-8.085 0-14.639 6.554-14.639 14.638 0 8.085 6.554 14.639 14.639 14.639 3.758 0 7.29-1.422 9.977-3.927l.285-.273.955.971a15.948 15.948 0 01-11.217 4.59c-8.837 0-16-7.163-16-16 0-8.836 7.163-16 16-16zm-3.405 9.378l.576.909c3.022 4.775 4.53 7.99 4.53 9.799a5.106 5.106 0 11-10.212 0c0-1.81 1.508-5.024 4.531-9.8l.575-.908zm0 2.557c-2.494 4.042-3.744 6.8-3.744 8.15a3.745 3.745 0 107.489 0c0-1.35-1.25-4.108-3.745-8.15zm6.157-5.673l.546.864c3.023 4.774 4.531 7.99 4.531 9.798 0 2.848-2.142 5.116-4.938 5.116v-1.362c2.026 0 3.577-1.642 3.577-3.754 0-1.355-1.26-4.13-3.775-8.198l-.042.062-.657.952-.236.34c-.564.813-1 1.426-1.403 1.965l-1.091-.815a68.19 68.19 0 001.61-2.265l.656-.95c.258-.374.451-.653.635-.916l.587-.837z" fill="#FF5252"/></g></svg>