<svg width="64" height="64" xmlns="http://www.w3.org/2000/svg"><g fill="none"><path d="M32 64c17.673 0 32-14.327 32-32C64 14.327 49.673 0 32 0 14.327 0 0 14.327 0 32c0 17.673 14.327 32 32 32zm0-1.362C15.079 62.638 1.362 48.921 1.362 32S15.079 1.362 32 1.362 62.638 15.079 62.638 32 48.921 62.638 32 62.638z" fill="#DCDCDC"/><path d="M39.735 22C42.091 22 44 24.052 44 26.583v2.653L50 26v15l-6-3.149v1.566C44 41.948 42.09 44 39.735 44h-20.47C16.909 44 15 41.948 15 39.417V26.583C15 24.052 16.91 22 19.265 22h20.47zm0 1.833h-20.47c-1.413 0-2.56 1.232-2.56 2.75v12.834c0 1.518 1.147 2.75 2.56 2.75h20.47c1.413 0 2.56-1.232 2.56-2.75V26.583c0-1.518-1.147-2.75-2.56-2.75z" fill="#FF5252"/></g></svg>