<svg width="64" height="64" xmlns="http://www.w3.org/2000/svg" xmlns:xlink="http://www.w3.org/1999/xlink"><defs><path id="a" d="M0 0h36v36H0z"/></defs><g fill="none" fill-rule="evenodd"><path d="M32 64c17.673 0 32-14.327 32-32C64 14.327 49.673 0 32 0 14.327 0 0 14.327 0 32c0 17.673 14.327 32 32 32zm0-1.362C15.079 62.638 1.362 48.921 1.362 32S15.079 1.362 32 1.362 62.638 15.079 62.638 32 48.921 62.638 32 62.638z" fill="#DCDCDC" fill-rule="nonzero"/><path d="M14 14h36v36H14z"/><g transform="translate(14 14)"><mask id="b" fill="#fff"><use xlink:href="#a"/></mask><g mask="url(#b)" fill="#FF5252"><path d="M26.707 3.25a2.43 2.43 0 011.659.688 852.142 852.142 0 013.696 3.696 2.41 2.41 0 01.687 1.66c.022 7.028.022 14.057 0 21.085-.011 1.224-1.063 2.355-2.367 2.367-8.254.026-16.507.026-24.761 0-1.228-.011-2.355-1.063-2.367-2.367-.026-8.254-.026-16.507 0-24.761.011-1.234 1.083-2.355 2.367-2.367 7.028-.022 14.057-.022 21.086 0zM5.637 4.479C5.035 4.48 4.487 5 4.48 5.626c-.026 8.25-.078 16.502 0 24.753.009.592.52 1.134 1.148 1.14 8.25.026 16.502.076 24.753 0 .594-.009 1.134-.525 1.14-1.148.022-7.025.066-14.052 0-21.077a1.175 1.175 0 00-.333-.798c-1.226-1.233-2.45-2.471-3.69-3.69a1.176 1.176 0 00-.8-.328c-7.02-.022-14.042 0-21.062 0z"/><path d="M25.125 3.253a.645.645 0 01.557.611c0 1.772.006 3.543 0 5.314-.011 1.236-1.082 2.355-2.367 2.367-3.542.011-7.085.011-10.628 0-1.225-.012-2.362-1.061-2.366-2.381v-5.3a.647.647 0 01.613-.613H25.07l.056.002zM11.548 4.478c0 1.566-.014 3.133 0 4.7.01.595.52 1.134 1.147 1.14 3.54.011 7.08.033 10.62 0 .595-.01 1.138-.525 1.14-1.156V4.478H11.548zM26.26 16.207c1.23.012 2.362 1.065 2.367 2.381v13.545c-.042.26-.18.504-.424.583-.061.02-.127.02-.19.03H7.99c-.127-.02-.258-.042-.361-.117-.155-.112-.222-.3-.253-.496 0-4.52-.015-9.04 0-13.56.012-1.228 1.066-2.353 2.367-2.366a2576.44 2576.44 0 0116.517 0zm-16.5 1.227c-.6.002-1.15.513-1.157 1.148v12.937H27.4c0-4.315.04-8.63 0-12.945a1.18 1.18 0 00-1.148-1.14c-5.497-.018-10.995 0-16.493 0z"/></g></g></g></svg>