<svg width="64" height="64" xmlns="http://www.w3.org/2000/svg"><g fill="none"><path d="M32 63.97c17.656 0 31.97-14.314 31.97-31.97S49.655.03 32 .03.03 14.345.03 32 14.345 63.97 32 63.97zm0-1.361C15.095 62.609 1.391 48.905 1.391 32S15.095 1.391 32 1.391 62.609 15.095 62.609 32 48.905 62.609 32 62.609z" fill="#DCDCDC"/><g fill="#FF5252"><path d="M20.524 20.402l7.08 7.866 1.017-.916-7.079-7.866z"/><path d="M24.573 29.013a5.478 5.478 0 100-10.957 5.478 5.478 0 000 10.957zm0-1.37a4.109 4.109 0 110-8.217 4.109 4.109 0 010 8.217zm23.014-5.873a7.19 7.19 0 010 10.17L31.608 47.917A7.19 7.19 0 1121.44 37.75l15.979-15.98a7.19 7.19 0 0110.168 0zm-.968.97a5.82 5.82 0 00-8.232 0L22.408 38.717a5.82 5.82 0 108.232 8.232l15.979-15.98a5.82 5.82 0 000-8.23z"/><path d="M32.002 32.666l4.842 4.842-7.747 7.747a3.424 3.424 0 11-4.842-4.842l7.747-7.747zm0 1.936l-6.779 6.78a2.054 2.054 0 102.905 2.905l6.78-6.78-2.906-2.905z"/></g></g></svg>