<svg width="64" height="64" xmlns="http://www.w3.org/2000/svg"><g fill="none"><path d="M32 64c17.673 0 32-14.327 32-32C64 14.327 49.673 0 32 0 14.327 0 0 14.327 0 32c0 17.673 14.327 32 32 32zm0-1.362C15.079 62.638 1.362 48.921 1.362 32S15.079 1.362 32 1.362 62.638 15.079 62.638 32 48.921 62.638 32 62.638z" fill="#DCDCDC"/><g fill="#FF5252"><path d="M49.549 26.144c1.677 0 3.037-1.39 3.037-3.106 0-1.715-1.36-3.106-3.037-3.106-1.678 0-3.038 1.39-3.038 3.106 0 1.715 1.36 3.106 3.038 3.106zm0-1.38c-.932 0-1.688-.773-1.688-1.726s.756-1.726 1.688-1.726c.932 0 1.687.773 1.687 1.726s-.755 1.725-1.687 1.725zM38.75 39.948c1.677 0 3.037-1.39 3.037-3.106s-1.36-3.106-3.037-3.106c-1.678 0-3.038 1.39-3.038 3.106 0 1.715 1.36 3.106 3.038 3.106zm0-1.38c-.932 0-1.688-.773-1.688-1.726s.756-1.726 1.688-1.726c.931 0 1.687.773 1.687 1.726s-.756 1.725-1.687 1.725zm-14.174-7.593c1.677 0 3.037-1.39 3.037-3.106 0-1.715-1.36-3.106-3.037-3.106-1.678 0-3.038 1.39-3.038 3.106s1.36 3.106 3.038 3.106zm0-1.38c-.932 0-1.688-.773-1.688-1.726s.756-1.725 1.688-1.725c.931 0 1.687.772 1.687 1.725 0 .953-.756 1.726-1.687 1.726zM14.451 44.78c1.678 0 3.038-1.391 3.038-3.107 0-1.715-1.36-3.106-3.038-3.106-1.677 0-3.037 1.39-3.037 3.106s1.36 3.106 3.037 3.106zm0-1.381c-.932 0-1.687-.773-1.687-1.726s.755-1.725 1.687-1.725 1.688.772 1.688 1.725c0 .953-.756 1.726-1.688 1.726z"/><path d="M47.748 24.484l-8.259 10.749 1.062.852 8.258-10.748zm-25.039 4.152l-7.17 10.805 1.117.775 7.17-10.805zm3.978.017l10.621 6.207-.67 1.198-10.621-6.206z"/></g></g></svg>