<svg width="90" height="90" xmlns="http://www.w3.org/2000/svg"><g fill="none"><path d="M45 90c24.853 0 45-20.147 45-45S69.853 0 45 0 0 20.147 0 45s20.147 45 45 45zm0-1.915C21.205 88.085 1.915 68.795 1.915 45S21.205 1.915 45 1.915 88.085 21.205 88.085 45 68.795 88.085 45 88.085z" fill="#DCDCDC"/><path d="M51.037 22C54.33 22 57 24.786 57 28.222V36h.955C61.293 36 64 38.754 64 42.152v16.696C64 62.246 61.293 65 57.955 65h-25.91C28.707 65 26 62.246 26 58.848V42.152C26 38.754 28.707 36 32.045 36H34v-7.778C34 24.786 36.67 22 39.963 22h11.074zm6.918 15.758L57 37.757V38H34v-.243h-1.955c-2.384 0-4.318 1.968-4.318 4.395v16.696c0 2.427 1.934 4.394 4.318 4.394h25.91c2.384 0 4.318-1.967 4.318-4.394V42.152c0-2.427-1.934-4.394-4.318-4.394zM45 43c2.761 0 5 2.396 5 5.352 0 1.955-.989 3.719-2.535 4.657-.002.155.006.341.03.878.027.598.037.968.03 1.376C47.485 57.54 46.812 59 45 59c-1.81 0-2.49-1.457-2.546-3.744a21.3 21.3 0 01.018-1.378c.02-.538.025-.73.021-.895C40.97 52.038 40 50.288 40 48.352 40 45.396 42.239 43 45 43zm0 1.784c-1.84 0-3.333 1.597-3.333 3.568 0 1.382.74 2.621 1.883 3.213.485.252.58.624.606 1.264.01.26.007.43-.018 1.118-.02.571-.027.904-.018 1.261.036 1.436.302 2.008.88 2.008.574 0 .833-.564.858-1.987.007-.357-.002-.695-.028-1.256-.032-.713-.037-.855-.03-1.112.02-.654.11-1.025.61-1.275 1.164-.583 1.923-1.835 1.923-3.234 0-1.97-1.492-3.568-3.333-3.568zm6.037-21.006H39.963c-2.352 0-4.26 1.99-4.26 4.444V36h19.593v-7.778c0-2.454-1.907-4.444-4.259-4.444z" fill="#FFF"/></g></svg>