<svg width="190" height="59" xmlns="http://www.w3.org/2000/svg"><path d="M36.615 43c.648 0 1.24.136 1.777.406.536.27.998.662 1.388 1.178.389.514.69 1.147.902 1.9.212.755.318 1.618.318 2.592 0 .889-.12 1.712-.359 2.47a6.059 6.059 0 01-1.024 1.97 4.73 4.73 0 01-1.607 1.305c-.629.312-1.333.469-2.111.469-.664 0-1.23-.103-1.7-.307a4.172 4.172 0 01-1.262-.852V59H30.08V43.22h1.746c.37 0 .613.175.729.523l.231 1.1a6.182 6.182 0 011.655-1.332c.617-.34 1.342-.511 2.174-.511zm-9.358.22v11.896H24.4V48.17c0-.178.009-.372.028-.586.02-.212.045-.425.076-.642a5.666 5.666 0 01-.51.939 6.336 6.336 0 00-.23.318l-.539.76c-.22.31-.468.66-.746 1.048l-.845 1.19c-.67.95-1.43 2.025-2.278 3.222a2.54 2.54 0 01-.422.476.866.866 0 01-.596.232H16.59V43.232h2.858v6.945c0 .178-.01.374-.029.586-.02.212-.044.427-.075.644.17-.38.34-.692.509-.94l.03-.045a207.971 207.971 0 00.728-1.022 413.574 413.574 0 001.59-2.25 753.85 753.85 0 012.29-3.222c.11-.17.252-.33.429-.48a.902.902 0 01.601-.227h1.736zM2.36 43.17c.2 0 .399.043.596.128.196.086.36.255.491.51l2.8 5.008c.123.233.24.477.347.736.108.26.208.521.3.783.093-.262.192-.525.296-.788.104-.262.218-.505.341-.73l2.777-5.01c.139-.26.304-.433.497-.514.192-.082.39-.122.59-.122h2.36v11.918h-2.58v-6.632c0-.27.014-.576.04-.916.028-.34.072-.656.134-.95l-3.494 6.423c-.17.333-.44.499-.81.499h-.3c-.371 0-.64-.166-.81-.499l-3.54-6.457a11.46 11.46 0 01.184 1.9v6.632H0V43.171h2.36zm33.273 2.091c-.595 0-1.1.126-1.516.377a4.59 4.59 0 00-1.18 1.061v5.333c.324.394.676.673 1.059.835a3.16 3.16 0 001.243.244c.432 0 .821-.082 1.168-.244.347-.162.642-.41.885-.742s.43-.752.562-1.257c.13-.507.196-1.104.196-1.792 0-.697-.056-1.285-.167-1.768-.113-.484-.272-.876-.48-1.177a1.91 1.91 0 00-.758-.662 2.368 2.368 0 00-1.012-.208zm76.007-7.182c.28 0 .535.057.763.173.229.116.424.284.587.505.164.22.29.494.38.821.09.326.135.7.135 1.123 0 .378-.05.73-.15 1.057-.1.326-.242.61-.428.848-.186.24-.411.427-.676.563a1.936 1.936 0 01-.896.204c-.293 0-.542-.05-.746-.146a1.925 1.925 0 01-.556-.402V45H109v-6.826h.637c.144 0 .235.069.274.206l.088.538a2.65 2.65 0 01.712-.609 1.83 1.83 0 01.928-.23zm18.276.015c.307 0 .59.051.852.153.261.102.486.252.676.45.189.197.336.44.443.725.105.287.159.612.159.977 0 .168-.018.28-.054.336-.036.057-.102.086-.196.086h-3.207c.013.292.057.544.132.756.075.212.176.39.302.53.125.14.275.245.45.314.174.069.37.103.585.103.206 0 .383-.025.534-.073.15-.049.28-.102.391-.161.111-.058.206-.112.284-.16a.422.422 0 01.215-.073.22.22 0 01.196.1l.3.397c-.125.15-.265.278-.422.381a2.414 2.414 0 01-.5.254 2.727 2.727 0 01-.543.14 3.583 3.583 0 01-.543.043c-.346 0-.667-.059-.962-.178a2.133 2.133 0 01-.769-.525 2.44 2.44 0 01-.51-.859 3.479 3.479 0 01-.183-1.18c0-.355.055-.686.164-.995a2.37 2.37 0 01.47-.803c.204-.228.453-.408.744-.54.292-.132.623-.198.992-.198zm-13.302 0c.306 0 .59.051.852.153.261.102.486.252.675.45.19.197.337.44.443.725.106.287.16.612.16.977 0 .168-.018.28-.055.336-.035.057-.1.086-.195.086h-3.207c.013.292.057.544.132.756.075.212.176.39.301.53.126.14.276.245.45.314.175.069.37.103.586.103.205 0 .383-.025.533-.073.15-.049.281-.102.392-.161.11-.058.206-.112.284-.16a.422.422 0 01.215-.073c.085 0 .15.033.196.1l.3.397c-.125.15-.266.278-.422.381a2.414 2.414 0 01-.5.254 2.727 2.727 0 01-.543.14 3.583 3.583 0 01-.544.043c-.345 0-.667-.059-.962-.178a2.133 2.133 0 01-.768-.525 2.44 2.44 0 01-.51-.859 3.479 3.479 0 01-.183-1.18c0-.355.054-.686.164-.995a2.37 2.37 0 01.47-.803c.204-.228.452-.408.744-.54.292-.132.623-.198.992-.198zm23.01.08v3.21c0 .07-.003.149-.012.235a4.487 4.487 0 01-.032.262c.066-.154.133-.281.201-.382l2.17-3.054a.752.752 0 01.156-.185.325.325 0 01.22-.086h.637v5.123h-1.053v-3.21a3.482 3.482 0 01.04-.487 4.308 4.308 0 01-.096.204 1.13 1.13 0 01-.1.168l-2.17 3.06a.863.863 0 01-.156.183.323.323 0 01-.22.087h-.637v-5.128h1.053zm8.24 0v5.123h-1.003v-2.099h-.289a.914.914 0 00-.235.025.531.531 0 00-.159.07.548.548 0 00-.118.11 1.567 1.567 0 00-.1.147l-.935 1.37a.772.772 0 01-.243.285c-.092.061-.231.092-.418.092h-.725l1.347-1.863a.955.955 0 01.519-.452 1.923 1.923 0 01-.617-.191 1.415 1.415 0 01-.411-.316 1.16 1.16 0 01-.228-.395 1.339 1.339 0 01-.07-.424c0-.184.034-.365.104-.543.07-.177.182-.336.336-.475.153-.138.351-.25.594-.336a2.66 2.66 0 01.88-.128h1.772zm-13.786 0v1.984h2.159v-1.984h1.047v5.123h-1.047v-2.325h-2.16v2.325h-1.052v-5.123h1.053zm-13.303 0v4.31h1.831v-4.31h1.053v4.31h1.831v-4.31h1.048v5.123h-6.816v-5.123h1.053zm-9.488.773a1.3 1.3 0 00-.693.179 1.978 1.978 0 00-.54.51v2.375c.146.195.307.331.481.41.175.079.369.118.58.118.412 0 .733-.154.962-.462.23-.308.346-.767.346-1.376 0-.315-.026-.584-.078-.807a1.584 1.584 0 00-.226-.545.877.877 0 00-.357-.306 1.152 1.152 0 00-.475-.096zm35.574-.06h-.74c-.17 0-.31.026-.425.076a.716.716 0 00-.421.457.974.974 0 00-.045.286c0 .251.088.448.262.592.175.145.41.217.708.217h.66v-1.628zm-30.228-.01c-.382 0-.682.112-.9.337-.22.224-.358.539-.417.944h2.483c0-.18-.025-.35-.077-.505a1.189 1.189 0 00-.222-.406 1.028 1.028 0 00-.365-.272 1.216 1.216 0 00-.502-.098zm13.302 0c-.382 0-.682.112-.9.337-.22.224-.358.539-.417.944h2.483c0-.18-.025-.35-.076-.505a1.189 1.189 0 00-.223-.406 1.028 1.028 0 00-.365-.272 1.216 1.216 0 00-.502-.098zm21.377-12.25v4.31h2.158v-4.31h1.049v4.31h.915v2.225c0 .1-.028.18-.083.238a.283.283 0 01-.216.088h-.65V31.75h-4.227v-5.122h1.054zm-27.721-2.11v2.035c.404.02.771.095 1.101.226.33.13.61.31.842.537.232.228.411.5.539.814.127.315.19.666.19 1.055 0 .388-.063.74-.19 1.054a2.376 2.376 0 01-.539.814 2.534 2.534 0 01-.842.54c-.33.133-.697.209-1.101.229v1.667h-.985v-1.667a3.386 3.386 0 01-1.101-.229 2.531 2.531 0 01-.843-.54 2.376 2.376 0 01-.538-.814 2.79 2.79 0 01-.191-1.054c0-.385.064-.735.191-1.05a2.39 2.39 0 01.538-.814 2.54 2.54 0 01.843-.54c.33-.132.696-.208 1.101-.228v-2.034h.985zm11.897 2.015c.28 0 .535.058.763.174.229.115.425.283.588.504.163.22.29.494.38.821.09.326.134.7.134 1.123 0 .378-.05.73-.15 1.057-.099.326-.242.61-.427.849-.187.24-.412.427-.676.562a1.936 1.936 0 01-.896.204 1.73 1.73 0 01-.747-.146 1.94 1.94 0 01-.556-.402v2.175h-1.052v-6.825h.636c.144 0 .235.068.274.205l.088.538c.209-.252.447-.454.713-.608.266-.154.575-.23.928-.23zm11.746 0c.287 0 .542.047.765.143.224.095.412.23.564.404.151.174.267.382.347.62.08.24.12.505.12.797v3.254h-.47a.445.445 0 01-.23-.047c-.052-.032-.097-.096-.132-.193l-.103-.418a4.591 4.591 0 01-.377.314c-.124.093-.253.17-.384.234a1.831 1.831 0 01-.426.143 2.44 2.44 0 01-.502.048c-.203 0-.391-.029-.566-.086a1.238 1.238 0 01-.452-.258 1.22 1.22 0 01-.302-.43 1.507 1.507 0 01-.11-.603c0-.197.051-.39.154-.577.103-.187.272-.356.51-.505.236-.149.548-.272.935-.37.387-.096.864-.152 1.432-.165v-.341c0-.368-.077-.643-.23-.824-.153-.181-.38-.271-.676-.271-.202 0-.372.025-.51.078a2.27 2.27 0 00-.357.168c-.1.06-.19.116-.269.168a.445.445 0 01-.25.078.297.297 0 01-.183-.058.463.463 0 01-.125-.143l-.191-.352a2.82 2.82 0 012.018-.808zm-17.817.015c.368 0 .702.062 1.001.186.299.123.553.3.764.527.21.228.373.504.487.829.114.325.172.69.172 1.095s-.058.77-.172 1.095a2.373 2.373 0 01-.487.831c-.211.23-.465.406-.764.53a2.592 2.592 0 01-1.001.186c-.372 0-.708-.062-1.007-.186a2.16 2.16 0 01-.766-.53 2.36 2.36 0 01-.49-.83 3.29 3.29 0 01-.17-1.096c0-.405.056-.77.17-1.095a2.35 2.35 0 01.49-.829c.213-.228.468-.404.766-.527a2.605 2.605 0 011.007-.186zm58.453 0c.307 0 .59.051.852.153.261.102.486.252.675.45.19.197.338.44.444.726.106.286.159.611.159.976 0 .168-.018.28-.054.337-.036.057-.101.085-.196.085h-3.207c.013.292.058.544.132.756.075.213.176.39.301.53.126.14.276.245.451.314s.37.103.585.103c.205 0 .383-.024.533-.073.15-.049.281-.102.392-.16a6.05 6.05 0 00.284-.161.415.415 0 01.216-.073c.084 0 .15.033.195.1l.3.397c-.125.15-.265.278-.422.382a2.41 2.41 0 01-.5.253 2.733 2.733 0 01-.543.141 3.576 3.576 0 01-.543.043c-.346 0-.667-.06-.963-.179a2.138 2.138 0 01-.768-.524 2.44 2.44 0 01-.51-.86 3.492 3.492 0 01-.182-1.18c0-.355.054-.686.163-.994.11-.308.266-.576.47-.804a2.2 2.2 0 01.744-.54 2.38 2.38 0 01.992-.198zm-23.785 0c.369 0 .703.062 1.001.186.3.123.553.3.764.527.21.228.373.504.487.829.115.325.171.69.171 1.095s-.056.77-.17 1.095a2.374 2.374 0 01-.488.831c-.21.23-.465.406-.764.53a2.587 2.587 0 01-1.001.186c-.372 0-.707-.062-1.006-.186a2.155 2.155 0 01-.767-.53 2.36 2.36 0 01-.489-.83 3.29 3.29 0 01-.171-1.096c0-.405.057-.77.171-1.095a2.32 2.32 0 01.49-.829c.212-.228.467-.404.766-.527a2.605 2.605 0 011.006-.186zm-6.78.08v3.21c0 .07-.005.15-.013.236a4.549 4.549 0 01-.032.261c.065-.154.132-.281.2-.382l2.17-3.053a.752.752 0 01.157-.187.323.323 0 01.22-.085h.636v5.124h-1.052v-3.21a3.129 3.129 0 01.039-.487 4.021 4.021 0 01-.096.203 1.2 1.2 0 01-.1.168l-2.17 3.06a.824.824 0 01-.156.182.318.318 0 01-.22.088h-.637v-5.128h1.053zm-47.252 0v3.21a4.545 4.545 0 01-.044.497c.065-.154.132-.281.2-.382l2.17-3.053a.765.765 0 01.156-.187.326.326 0 01.22-.085h.637v5.124h-1.053v-3.21a3.468 3.468 0 01.04-.487 4.02 4.02 0 01-.096.203 1.2 1.2 0 01-.1.168l-2.17 3.06a.836.836 0 01-.156.182.32.32 0 01-.22.088H109v-5.128h1.053zm69.557 0v1.95h.97c.346 0 .637.042.876.127.238.086.431.2.578.344.146.144.253.311.318.5a1.808 1.808 0 01-.024 1.24 1.422 1.422 0 01-.36.51 1.638 1.638 0 01-.583.334 2.4 2.4 0 01-.79.118h-1.984v-5.123h1zm-11.04 0v1.984h2.159v-1.984h1.048v5.124h-1.048v-2.326h-2.16v2.326h-1.052v-5.124h1.053zm-29.337-.015c.072 0 .143.017.213.05.07.034.132.1.184.196l1.356 2.38c.045.088.087.182.125.283l.11.301c.036-.1.073-.201.113-.301.039-.101.08-.195.127-.282l1.336-2.381c.05-.1.11-.166.182-.198a.523.523 0 01.215-.048h.857v5.139h-.945v-3.1c0-.107.006-.228.02-.364a5.73 5.73 0 01.048-.38l-1.59 2.934a.39.39 0 01-.128.143.306.306 0 01-.176.053h-.113a.295.295 0 01-.174-.053.405.405 0 01-.125-.143l-1.62-2.948c.02.117.036.245.051.384.015.14.022.263.022.374v3.1h-.95v-5.139h.862zm34.884.015v1.984h2.159v-1.984h1.048v5.124h-1.048v-2.326h-2.16v2.326h-1.052v-5.124h1.053zm10.38 0v5.123h-1.054v-5.123h1.053zm-68.77 0v1.984h2.16v-1.984h1.047v5.124h-1.047v-2.326h-2.16v2.326h-1.052v-5.124h1.052zm32.28 2.883a6.436 6.436 0 00-.95.093c-.258.049-.467.11-.627.186a.824.824 0 00-.345.268.597.597 0 00-.105.342c0 .12.019.224.056.31.038.085.09.155.157.21a.619.619 0 00.235.12c.09.026.188.038.296.038.274 0 .51-.052.707-.158a2.22 2.22 0 00.576-.46v-.949zm-25.366-2.15c-.532.038-.941.214-1.227.53-.285.317-.428.75-.428 1.3 0 .548.143.98.428 1.295.286.315.695.49 1.227.527v-3.651zm.92 0v3.652c.532-.037.94-.212 1.227-.527.285-.315.428-.747.428-1.296 0-.55-.143-.982-.428-1.299-.286-.316-.695-.492-1.227-.53zm11.574.04c-.267 0-.499.06-.692.18a1.98 1.98 0 00-.542.509v2.376c.147.194.308.33.483.41.175.078.368.117.58.117.41 0 .732-.154.962-.462.23-.308.345-.767.345-1.376 0-.315-.026-.584-.078-.807a1.584 1.584 0 00-.225-.544.887.887 0 00-.358-.307 1.152 1.152 0 00-.475-.096zm28.95-.015c-.457 0-.796.158-1.019.47-.221.314-.332.758-.332 1.334 0 .576.11 1.018.332 1.329.223.309.562.464 1.019.464.45 0 .786-.155 1.006-.464.22-.31.33-.753.33-1.329s-.11-1.02-.33-1.334c-.22-.312-.556-.47-1.006-.47zm-34.668 0c-.458 0-.797.158-1.02.47-.22.314-.332.758-.332 1.334 0 .576.111 1.018.333 1.329.222.309.561.464 1.019.464.45 0 .786-.155 1.006-.464.22-.31.33-.753.33-1.329s-.11-1.02-.33-1.334c-.22-.312-.556-.47-1.006-.47zm51.168 1.97h-.975v1.612h.984c.154 0 .288-.02.404-.063a.82.82 0 00.289-.17.667.667 0 00.171-.26.943.943 0 00.057-.331.896.896 0 00-.052-.304.656.656 0 00-.162-.25.77.77 0 00-.286-.172 1.302 1.302 0 00-.43-.063zm7.304-2.025c-.381 0-.682.113-.9.337-.22.224-.358.54-.416.944h2.482c0-.18-.025-.349-.076-.505a1.19 1.19 0 00-.223-.406 1.023 1.023 0 00-.365-.272 1.214 1.214 0 00-.502-.098zm-62.35-12.25v4.31h.916v2.225c0 .1-.029.18-.086.239a.293.293 0 01-.218.088h-.65v-1.738h-3.952v1.43a.346.346 0 01-.071.212c-.048.064-.12.096-.218.096h-.666v-2.517h.151c.115 0 .227-.017.339-.052a.769.769 0 00.318-.214c.101-.107.197-.259.289-.454.091-.197.174-.456.247-.777.073-.321.138-.715.193-1.18.056-.465.1-1.02.132-1.668h3.276zm8.46 0v4.31h2.16v-4.31h1.047v4.31h.916v2.225c0 .1-.028.18-.083.238a.283.283 0 01-.216.088h-.65v-1.738h-4.227v-5.122H134zm18.277-.08c.362 0 .681.06.958.181.275.12.52.291.736.512l-.279.392a.55.55 0 01-.093.1.2.2 0 01-.127.035.311.311 0 01-.174-.06 4.729 4.729 0 00-.215-.133 1.38 1.38 0 00-.742-.193c-.229 0-.429.042-.6.126a1.171 1.171 0 00-.43.358 1.605 1.605 0 00-.26.568 3.01 3.01 0 00-.086.751c0 .288.03.544.093.768.062.225.151.414.266.568.117.154.257.271.422.352.165.08.35.12.556.12.202 0 .367-.025.494-.075a1.52 1.52 0 00.319-.166 3.73 3.73 0 00.217-.166.295.295 0 01.194-.075c.084 0 .15.034.196.1l.298.397a2 2 0 01-.401.382 2.299 2.299 0 01-.975.394 3.336 3.336 0 01-.533.043c-.31 0-.6-.06-.87-.178a2.028 2.028 0 01-.704-.518 2.458 2.458 0 01-.475-.829 3.328 3.328 0 01-.174-1.117c0-.378.052-.73.156-1.052.105-.323.258-.602.458-.837a2.1 2.1 0 01.747-.55 2.51 2.51 0 011.028-.198zm-34.218 0c.307 0 .59.051.852.153.261.103.486.252.676.45.189.197.336.44.442.726.107.286.16.611.16.976 0 .168-.018.28-.054.337-.036.057-.102.085-.196.085h-3.207c.013.292.057.544.132.756.075.213.176.39.301.53.126.14.276.245.45.314.175.069.37.103.586.103.205 0 .383-.024.533-.073.15-.048.281-.102.392-.16.112-.059.206-.113.284-.16a.415.415 0 01.216-.074c.085 0 .15.034.195.1l.3.397c-.125.15-.265.278-.422.382a2.414 2.414 0 01-.5.253 2.727 2.727 0 01-.543.141 3.583 3.583 0 01-.543.043c-.346 0-.667-.06-.962-.178a2.133 2.133 0 01-.769-.525 2.44 2.44 0 01-.51-.86 3.492 3.492 0 01-.183-1.18c0-.355.055-.686.164-.994.11-.308.266-.576.47-.803.205-.229.452-.408.744-.54.293-.133.623-.199.992-.199zm49.768 0c.307 0 .59.051.852.153.26.103.486.252.675.45.19.197.337.44.444.726.105.286.159.611.159.976 0 .168-.018.28-.054.337-.036.057-.102.085-.196.085h-3.207c.013.292.057.544.132.756.075.213.176.39.301.53.126.14.276.245.451.314s.37.103.585.103c.205 0 .383-.024.533-.073.15-.048.281-.102.392-.16a6.13 6.13 0 00.284-.16.415.415 0 01.216-.074c.084 0 .15.034.195.1l.3.397c-.125.15-.265.278-.422.382a2.424 2.424 0 01-.5.253 2.733 2.733 0 01-.543.141 3.576 3.576 0 01-.543.043c-.346 0-.668-.06-.963-.178a2.133 2.133 0 01-.768-.525 2.44 2.44 0 01-.51-.86 3.492 3.492 0 01-.183-1.18c0-.355.054-.686.164-.994.11-.308.266-.576.47-.803a2.2 2.2 0 01.744-.54 2.38 2.38 0 01.992-.199zm-39.501.08v3.21c0 .07-.004.15-.013.236a4.55 4.55 0 01-.032.261 2.38 2.38 0 01.201-.382l2.17-3.053a.765.765 0 01.156-.186.326.326 0 01.22-.085h.637v5.123h-1.053v-3.21a3.128 3.128 0 01.04-.487 4.02 4.02 0 01-.096.203 1.2 1.2 0 01-.1.168l-2.17 3.06a.824.824 0 01-.156.183.318.318 0 01-.22.087h-.637v-5.127h1.053zm27.588 0v2.155h.427a.664.664 0 00.343-.08.665.665 0 00.234-.246l.95-1.537a.599.599 0 01.495-.291h.822l-1.229 1.923c-.077.13-.16.236-.244.317a.873.873 0 01-.314.185c.16.047.293.119.4.214.106.096.201.218.286.37l1.238 2.114h-.724c-.186 0-.33-.032-.434-.096a.777.777 0 01-.261-.281l-.848-1.497a.671.671 0 00-.269-.281.783.783 0 00-.376-.09h-.496v2.25h-1.052V15.08h1.052zm-15.921 0v3.21c0 .07-.004.15-.013.236a4.55 4.55 0 01-.031.261c.065-.154.132-.28.2-.382l2.17-3.053a.752.752 0 01.156-.186.326.326 0 01.22-.085h.637v5.123h-1.053v-3.21a3.129 3.129 0 01.04-.487 4.02 4.02 0 01-.096.203 1.2 1.2 0 01-.1.168l-2.17 3.06a.824.824 0 01-.156.183.318.318 0 01-.22.087h-.637v-5.127h1.053zm21.121 0v3.21a4.546 4.546 0 01-.044.497c.066-.154.132-.28.2-.382l2.17-3.053a.765.765 0 01.157-.186.328.328 0 01.22-.085h.636v5.123H163.4v-3.21a3.467 3.467 0 01.04-.487 4.02 4.02 0 01-.096.203 1.2 1.2 0 01-.1.168l-2.17 3.06a.836.836 0 01-.156.183.32.32 0 01-.22.087h-.637v-5.127h1.053zm-15.447 0v1.985h2.16V15.08h1.048v5.123h-1.048v-2.326h-2.16v2.326h-1.052V15.08h1.052zm-35.804-.014c.072 0 .143.016.213.05.07.033.131.099.184.195l1.356 2.381c.046.087.087.181.125.282l.11.301c.036-.1.073-.201.112-.301.04-.101.082-.195.128-.282l1.336-2.38a.39.39 0 01.182-.199.525.525 0 01.215-.047h.857v5.138h-.945v-3.1c0-.107.006-.228.02-.364a5.73 5.73 0 01.048-.379l-1.591 2.933a.4.4 0 01-.127.144.312.312 0 01-.177.052h-.112a.296.296 0 01-.174-.052.401.401 0 01-.125-.144l-1.62-2.948c.019.117.037.246.051.385.015.139.022.263.022.373v3.1H109v-5.138h.862zm14.659.853h-1.4c-.03.47-.072.89-.126 1.261-.054.372-.116.7-.185.987a5.452 5.452 0 01-.233.738 3.24 3.24 0 01-.265.52h2.209v-3.506zm-6.444-.136c-.382 0-.682.113-.9.337-.219.224-.358.54-.417.944h2.483c0-.18-.025-.349-.076-.505a1.2 1.2 0 00-.223-.406 1.023 1.023 0 00-.365-.272 1.216 1.216 0 00-.502-.098zm49.768 0c-.381 0-.682.113-.9.337-.22.224-.358.54-.417.944h2.483c0-.18-.025-.349-.076-.505a1.19 1.19 0 00-.223-.406 1.023 1.023 0 00-.365-.272 1.214 1.214 0 00-.502-.098zm-95.701-3.507a1.172 1.172 0 00-.279-.847 1.13 1.13 0 00-1.617-.116 1.17 1.17 0 00-.392.8c-.021.311.078.612.279.848a1.133 1.133 0 001.617.116c.231-.205.37-.49.392-.8M85.306 37.59c.304.023.6-.077.833-.284.23-.204.37-.489.39-.8a1.173 1.173 0 00-.277-.848 1.132 1.132 0 00-1.618-.115 1.17 1.17 0 00-.392.8c-.02.311.078.612.28.848.2.235.48.377.784.399M98 27.505C98 12.315 85.912 0 71 0S44 12.314 44 27.505c0 13.186 9.109 24.203 21.266 26.882v-16.62a.321.321 0 00-.091-.226L62.4 34.713a.308.308 0 00-.222-.093h-2.84a.31.31 0 00-.29.207 2.662 2.662 0 01-.724 1.053c-.474.42-1.08.652-1.707.652h-.025a2.59 2.59 0 01-1.874-.856 2.685 2.685 0 01-.706-1.96c.043-.717.36-1.372.892-1.843a2.574 2.574 0 013.677.262c.2.235.357.502.466.794a.31.31 0 00.29.204h3.36c.139 0 .27.056.368.156l3.509 3.575c.098.1.153.233.153.375v17.427c1.157.188 2.34.302 3.543.334V33.287a.321.321 0 00-.091-.225L62.4 25.139a.311.311 0 00-.221-.094h-5.335a.31.31 0 00-.29.206 2.66 2.66 0 01-.725 1.054c-.474.42-1.08.652-1.706.652H54.1a2.593 2.593 0 01-1.877-.856 2.687 2.687 0 01-.705-1.96c.043-.717.36-1.372.891-1.843a2.574 2.574 0 013.677.262c.201.235.358.501.467.793a.31.31 0 00.29.205H61.2a.316.316 0 00.312-.318v-3.174a.319.319 0 00-.204-.297 2.645 2.645 0 01-1.666-2.662 2.656 2.656 0 01.89-1.818 2.573 2.573 0 013.677.262c.456.535.681 1.219.633 1.927a2.657 2.657 0 01-.89 1.818 2.57 2.57 0 01-.78.476.315.315 0 00-.2.296v3.418c0 .084.033.166.091.226l7.028 7.159a.1.1 0 00.114.023.104.104 0 00.064-.098V14.969a.318.318 0 00-.204-.297A2.645 2.645 0 0168.4 12.01a2.656 2.656 0 01.89-1.818 2.572 2.572 0 013.677.261c.456.535.681 1.22.633 1.927a2.657 2.657 0 01-.89 1.818 2.57 2.57 0 01-.78.477.315.315 0 00-.2.296v19.65c0 .066.049.092.064.098a.101.101 0 00.114-.023l7.027-7.16a.322.322 0 00.092-.224V21.34a.319.319 0 00-.204-.298 2.645 2.645 0 01-1.666-2.661 2.658 2.658 0 01.89-1.819 2.573 2.573 0 013.677.262c.456.535.681 1.22.633 1.927a2.656 2.656 0 01-.89 1.819 2.569 2.569 0 01-.78.475.316.316 0 00-.2.296v5.726c0 .175.14.318.312.318h4.365a.31.31 0 00.29-.206c.151-.404.402-.769.724-1.054a2.572 2.572 0 013.677.262c.456.534.681 1.219.633 1.927a2.654 2.654 0 01-.89 1.818 2.565 2.565 0 01-1.891.645 2.624 2.624 0 01-2.25-1.697.315.315 0 00-.291-.208h-5.349a.305.305 0 00-.22.094l-7.776 7.92a.321.321 0 00-.09.225V55a26.614 26.614 0 003.543-.334l.001-14.878c0-.142.054-.275.152-.376l3.51-3.575c.098-.1.23-.155.368-.155h3.58c.139-.489.411-.923.791-1.26a2.575 2.575 0 013.677.261c.456.536.681 1.22.633 1.928a2.653 2.653 0 01-.89 1.818 2.576 2.576 0 01-1.891.645 2.614 2.614 0 01-2.318-1.904h-3.064a.308.308 0 00-.222.093l-2.776 2.828a.322.322 0 00-.092.225v14.07C88.891 51.709 98 40.692 98 27.507m-41.307 5.206a1.132 1.132 0 00-.832.283 1.17 1.17 0 00-.39.8c-.022.311.076.613.278.848a1.13 1.13 0 001.617.116c.231-.205.37-.49.391-.8a1.17 1.17 0 00-.278-.848 1.13 1.13 0 00-.786-.399m31.115-3.418c.304.025.6-.077.833-.283.23-.205.37-.489.39-.8a1.173 1.173 0 00-.277-.848 1.132 1.132 0 00-1.618-.115 1.17 1.17 0 00-.392.8c-.02.311.078.612.28.848.2.235.48.377.784.398m-24.421-11.92a1.172 1.172 0 00-.279-.848 1.13 1.13 0 00-1.617-.115 1.17 1.17 0 00-.391.8c-.022.31.077.612.278.848a1.133 1.133 0 001.618.115c.23-.205.37-.49.39-.8m17.123 2.074c.231-.204.37-.489.391-.8a1.17 1.17 0 00-.278-.848 1.133 1.133 0 00-1.618-.115 1.17 1.17 0 00-.391.8c-.021.311.078.612.28.848a1.13 1.13 0 001.616.115m-25.523 4.087c.2.235.3.536.278.847-.021.312-.16.596-.391.801a1.133 1.133 0 01-1.617-.116 1.171 1.171 0 01-.28-.847c.022-.311.16-.595.392-.8a1.134 1.134 0 011.618.115" fill="#FFF" fill-rule="evenodd"/></svg>