<svg width="173" height="66" xmlns="http://www.w3.org/2000/svg"><defs><linearGradient x1="0%" y1="50%" x2="100%" y2="50%" id="a"><stop stop-color="#F26A35" offset="0%"/><stop stop-color="#EE3048" offset="100%"/></linearGradient></defs><g fill="none"><path d="M98.882 12v15.088h-2.89V18.41c0-.2.005-.418.015-.652 0-.235.028-.475.054-.714L92.308 24.8a1.28 1.28 0 01-.473.548 1.237 1.237 0 01-.674.186h-.444c-.237.005-.47-.06-.674-.186a1.28 1.28 0 01-.473-.548l-3.753-7.777c.018.248.035.49.05.728.011.24.018.46.018.659v8.678H83V12h2.869a.907.907 0 01.286.063.66.66 0 01.236.16c.08.09.147.193.199.305l3.635 7.662c.127.253.253.536.37.819.12.283.237.573.346.868.109-.303.237-.598.345-.889.11-.29.237-.565.384-.828l3.625-7.622a1.24 1.24 0 01.199-.306.658.658 0 01.236-.159.907.907 0 01.286-.063h.374l2.492-.01zm6.447 5.281a5.617 5.617 0 011.995.34 4.363 4.363 0 011.543.973c.44.436.781.96 1.002 1.535.246.65.367 1.34.357 2.034.01.7-.11 1.394-.357 2.05a4.399 4.399 0 01-1.002 1.55 4.375 4.375 0 01-1.543.98 5.981 5.981 0 01-4.001 0 4.445 4.445 0 01-1.559-.98 4.327 4.327 0 01-1.011-1.55 5.594 5.594 0 01-.357-2.05 5.51 5.51 0 01.357-2.034 4.283 4.283 0 011.011-1.535 4.43 4.43 0 011.559-.973 5.672 5.672 0 012.006-.34zm0 7.697c.664 0 1.15-.23 1.461-.692.312-.463.469-1.163.469-2.105s-.157-1.642-.469-2.1c-.312-.46-.798-.69-1.461-.69s-1.176.224-1.493.69c-.317.465-.473 1.158-.473 2.1 0 .942.159 1.642.473 2.105.315.464.814.692 1.493.692zm9.29-2.285c.093.797.337 1.372.734 1.73.421.367.97.56 1.533.537.292.005.583-.035.862-.119a4.56 4.56 0 00.646-.266l.518-.266c.154-.08.325-.12.498-.119a.6.6 0 01.519.246l.836 1.02c-.277.32-.6.595-.96.82a4.972 4.972 0 01-1.058.496c-.354.117-.718.2-1.087.248a8.446 8.446 0 01-1.035.068 5.47 5.47 0 01-1.9-.325 4.369 4.369 0 01-1.549-.969 4.56 4.56 0 01-1.05-1.595 5.91 5.91 0 01-.385-2.22 4.968 4.968 0 01.33-1.807 4.427 4.427 0 012.441-2.515 5.375 5.375 0 013.732-.08c.51.183.973.474 1.359.852.391.39.695.857.89 1.371.223.588.332 1.212.321 1.84a4.09 4.09 0 01-.027.523.834.834 0 01-.104.32.377.377 0 01-.2.165.927.927 0 01-.318.045h-5.546zm3.623-1.651c0-.223-.03-.445-.088-.66a1.483 1.483 0 00-.813-.982 1.817 1.817 0 00-.788-.155 1.735 1.735 0 00-1.282.463 2.401 2.401 0 00-.614 1.343l3.585-.01zM83.457 36.96a5.38 5.38 0 011.87-1.15 6.699 6.699 0 012.407-.423c.67-.01 1.34.088 1.986.29a4.53 4.53 0 011.513.806c.4.323.728.746.96 1.237a3.79 3.79 0 01.334 1.598 4.45 4.45 0 01-.379 1.841 3.334 3.334 0 01-1.191 1.406c.268.159.522.348.758.564.224.202.424.438.594.7.163.251.292.528.383.822.095.3.142.618.14.937a5.353 5.353 0 01-.336 1.913 4.414 4.414 0 01-.977 1.547 4.548 4.548 0 01-1.581 1.039 5.629 5.629 0 01-2.136.386c-.453 0-.904-.048-1.348-.141a7.48 7.48 0 01-2.487-1.015 5.472 5.472 0 01-.967-.791l.893-1.604a.936.936 0 01.28-.29.672.672 0 01.38-.116c.202.006.398.073.57.193.198.13.423.27.675.426.285.17.582.313.889.426a3.83 3.83 0 002.097.086c.241-.06.468-.18.666-.349.183-.166.327-.382.416-.628a2.78 2.78 0 00.141-.945 1.704 1.704 0 00-.165-.77 1.55 1.55 0 00-.464-.564 2.06 2.06 0 00-.714-.34 3.24 3.24 0 00-.915-.1h-1.907v-2.658h1.65c.75 0 1.306-.144 1.67-.433.36-.282.566-.756.545-1.252.01-.443-.178-.862-.5-1.111-.334-.275-.833-.41-1.501-.41a3.204 3.204 0 00-1.013.145c-.263.088-.52.2-.769.332-.217.12-.418.23-.587.329a.941.941 0 01-.469.146.577.577 0 01-.38-.121 1.276 1.276 0 01-.282-.364l-.749-1.594zm22.231 12.19v4.933a.949.949 0 01-.217.659.705.705 0 01-.57.257h-1.76v-3.538h-6.25v2.662c0 .11-.015.219-.045.323a.863.863 0 01-.14.282.673.673 0 01-.239.198.762.762 0 01-.343.073h-1.78v-5.757h.22c.202 0 .403-.025.6-.076a1.23 1.23 0 00.561-.36 2.81 2.81 0 00.496-.833c.187-.483.33-.987.425-1.503a25.27 25.27 0 00.343-2.374c.1-.947.18-2.09.238-3.43h6.72v8.484h1.741zm-4.433.092V43.05h-1.733c-.055.762-.123 1.46-.205 2.092a23.77 23.77 0 01-.275 1.706c-.09.458-.203.91-.34 1.353a8.3 8.3 0 01-.391 1.04h2.944zm10.881-8.575a5.626 5.626 0 011.995.34 4.363 4.363 0 011.543.973c.44.436.781.96 1.002 1.535.246.65.367 1.34.357 2.034a5.609 5.609 0 01-.357 2.05 4.421 4.421 0 01-1.002 1.55c-.439.43-.965.765-1.543.98a5.528 5.528 0 01-1.995.344 5.594 5.594 0 01-2.009-.344 4.454 4.454 0 01-1.556-.98 4.327 4.327 0 01-1.011-1.55 5.539 5.539 0 01-.358-2.05 5.463 5.463 0 01.358-2.034 4.282 4.282 0 011.01-1.535 4.44 4.44 0 011.557-.973 5.693 5.693 0 012.009-.34zm0 7.696c.663 0 1.15-.23 1.461-.69.312-.464.468-1.164.468-2.106s-.156-1.642-.468-2.101c-.312-.459-.798-.69-1.461-.69s-1.179.225-1.493.69c-.315.465-.473 1.159-.473 2.1 0 .943.158 1.643.473 2.106.314.463.812.691 1.493.691zm9.302-6.164a5.32 5.32 0 011.374-1.102 3.718 3.718 0 011.833-.429 3.06 3.06 0 011.49.373c.468.259.872.626 1.182 1.075a5.56 5.56 0 01.78 1.722c.196.753.29 1.53.28 2.31a7.39 7.39 0 01-.322 2.235 5.723 5.723 0 01-.903 1.777 4.21 4.21 0 01-1.39 1.178 3.803 3.803 0 01-1.793.424 3.392 3.392 0 01-1.351-.237 3.702 3.702 0 01-.993-.64V55h-3.079V40.877h1.909a.728.728 0 01.753.538l.23.784zm.187 6.484c.208.242.466.433.755.557.273.11.563.166.855.164.271.003.539-.057.785-.174.25-.13.464-.324.62-.565.196-.307.335-.65.412-1.009a6.581 6.581 0 00.148-1.513 7.198 7.198 0 00-.119-1.427 3.01 3.01 0 00-.332-.936 1.325 1.325 0 00-.51-.504 1.422 1.422 0 00-.667-.154 2.162 2.162 0 00-1.112.252c-.32.198-.603.454-.835.757v4.552zm13.956-8.016a5.626 5.626 0 011.995.34 4.363 4.363 0 011.543.973c.44.436.781.96 1.002 1.535a5.5 5.5 0 01.357 2.034c.01.699-.11 1.394-.357 2.05a4.408 4.408 0 01-1.002 1.55 4.38 4.38 0 01-1.543.98 5.528 5.528 0 01-1.995.344 5.594 5.594 0 01-2.008-.344 4.454 4.454 0 01-1.557-.98 4.327 4.327 0 01-1.01-1.55 5.539 5.539 0 01-.358-2.05 5.463 5.463 0 01.357-2.034 4.282 4.282 0 011.011-1.535 4.44 4.44 0 011.557-.973 5.693 5.693 0 012.008-.34zm0 7.696c.664 0 1.15-.23 1.461-.69.313-.464.469-1.164.469-2.106s-.156-1.642-.469-2.101c-.312-.459-.798-.69-1.46-.69-.664 0-1.18.225-1.494.69-.314.465-.472 1.159-.472 2.1 0 .943.158 1.643.472 2.106.315.463.815.691 1.493.691zm11.009-7.696a8.318 8.318 0 011.843.18c.46.097.898.266 1.292.5.646.38 1.029 1.03 1.013 1.72a2.553 2.553 0 01-.09.656 1.923 1.923 0 01-.313.643 2.208 2.208 0 01-.61.558c-.3.185-.636.321-.99.401.32.066.632.164.928.293.273.118.523.273.742.46.206.184.37.4.485.64.123.261.182.543.176.826.015.468-.112.93-.37 1.337a2.866 2.866 0 01-.966.91 4.697 4.697 0 01-1.387.517 7.62 7.62 0 01-1.595.166h-4.756v-9.807h4.599zm-1.482 1.833v2.164h1.387c.364.013.718-.104.985-.325.255-.218.395-.522.382-.837a1.04 1.04 0 00-.065-.36.762.762 0 00-.222-.32 1.23 1.23 0 00-.424-.23 2.062 2.062 0 00-.656-.09l-1.387-.002zm1.61 6.038c.355.017.704-.09.974-.298a.99.99 0 00.361-.806c0-.134-.017-.268-.049-.399a.696.696 0 00-.191-.33.95.95 0 00-.408-.23 2.36 2.36 0 00-.688-.08h-1.61v2.134l1.61.009zm11.391-4.398a6.887 6.887 0 011.985.25c.495.143.949.38 1.331.692.336.275.592.617.75.997.159.382.239.786.237 1.193a2.91 2.91 0 01-.29 1.3 2.88 2.88 0 01-.84 1.017 4.09 4.09 0 01-1.347.653 6.37 6.37 0 01-1.803.23h-4.796v-9.805h3.131v3.462l1.642.011zm0 4.314c.372.023.737-.095 1.004-.326.235-.236.357-.542.342-.856a1.12 1.12 0 00-.08-.422.986.986 0 00-.246-.358 1.13 1.13 0 00-.423-.247 1.8 1.8 0 00-.597-.09h-1.629v2.308l1.629-.01zm8.696-2.374c.093.796.34 1.37.734 1.729a2.2 2.2 0 001.532.537c.293.005.584-.035.863-.119.222-.071.438-.16.645-.266.188-.099.362-.186.52-.266.154-.08.324-.12.497-.119a.603.603 0 01.52.246l.836 1.02a4.288 4.288 0 01-.962.82 4.87 4.87 0 01-1.058.496c-.353.117-.717.2-1.086.248a8.442 8.442 0 01-1.035.068 5.457 5.457 0 01-1.897-.325 4.377 4.377 0 01-1.553-.969 4.555 4.555 0 01-1.048-1.595 5.872 5.872 0 01-.387-2.22 4.969 4.969 0 01.33-1.808 4.424 4.424 0 012.44-2.514 5.379 5.379 0 013.734-.081c.51.185.972.475 1.358.852.392.39.696.858.892 1.372.221.588.33 1.212.32 1.84.001.174-.008.349-.028.523a.799.799 0 01-.102.32.386.386 0 01-.199.165.931.931 0 01-.321.045h-5.545zm3.623-1.652c0-.223-.03-.445-.089-.66a1.597 1.597 0 00-.29-.573 1.473 1.473 0 00-.522-.41 1.83 1.83 0 00-.79-.154 1.737 1.737 0 00-1.282.463 2.41 2.41 0 00-.611 1.343l3.584-.01z" fill="#FFF"/><rect fill="#FFF" width="66" height="66" rx="15"/><path d="M29.529 54.174c-3.015-3.29-.809-8.67 3.648-8.793h.558c4.503.026 6.813 5.428 3.769 8.752l-.158.173a5.225 5.225 0 01-7.7 0l-.117-.132zM17.565 40.599a285.976 285.976 0 003.566 4.18 1.582 1.582 0 002.04.308 19.586 19.586 0 0120.761-.106 1.585 1.585 0 002.027-.315 378.72 378.72 0 003.567-4.187 1.605 1.605 0 00-.348-2.367 28.152 28.152 0 00-31.273.128 1.6 1.6 0 00-.34 2.359zM10.2 30.906c.792 1.287 1.919 2.846 3.229 4.57a1.59 1.59 0 002.175.327 31.448 31.448 0 0135.885-.12c.695.48 1.642.332 2.159-.337a53.22 53.22 0 003.219-4.584 1.602 1.602 0 00-.461-2.146 40.014 40.014 0 00-45.77.142 1.605 1.605 0 00-.436 2.148zm23.21-16.011a5.03 5.03 0 01-3.387-1.335c-3.907-3.548-9.573-4.654-14.495-2.352-4.826 2.256-7.606 7.165-7.526 12.334a1.6 1.6 0 00.836 1.387 1.591 1.591 0 001.615-.057 43.087 43.087 0 0122.935-6.694h.24a43.13 43.13 0 0122.913 6.525c.492.32 1.12.343 1.633.06A1.6 1.6 0 0059 23.349c0-5.096-2.763-9.914-7.527-12.141-4.922-2.302-10.587-1.203-14.494 2.352a5.049 5.049 0 01-3.404 1.335h-.165z" fill="url(#a)"/></g></svg>