<svg width="90" height="90" xmlns="http://www.w3.org/2000/svg"><g fill="none"><path d="M45 90c24.853 0 45-20.147 45-45S69.853 0 45 0 0 20.147 0 45s20.147 45 45 45zm0-1.915C21.205 88.085 1.915 68.795 1.915 45S21.205 1.915 45 1.915 88.085 21.205 88.085 45 68.795 88.085 45 88.085z" fill="#DCDCDC"/><path d="M55.81 20c2.314 0 4.19 1.897 4.19 4.237v41.526C60 68.103 58.124 70 55.81 70H33.19C30.875 70 29 68.103 29 65.763V24.237C29 21.897 30.876 20 33.19 20h22.62zm0 1.695H33.19c-1.389 0-2.514 1.138-2.514 2.542v41.526c0 1.404 1.125 2.542 2.513 2.542h22.622c1.388 0 2.513-1.138 2.513-2.542V24.237c0-1.404-1.125-2.542-2.513-2.542zM44.5 61a3.5 3.5 0 110 7 3.5 3.5 0 010-7zm0 1.75a1.75 1.75 0 100 3.5 1.75 1.75 0 000-3.5zM52.833 23C55.135 23 57 24.882 57 27.205v28.59C57 58.118 55.135 60 52.833 60H36.167C33.865 60 32 58.118 32 55.795v-28.59C32 24.882 33.865 23 36.167 23h16.666zm0 1.682H36.167c-1.381 0-2.5 1.13-2.5 2.523v28.59c0 1.394 1.119 2.523 2.5 2.523h16.666c1.381 0 2.5-1.13 2.5-2.523v-28.59c0-1.394-1.119-2.523-2.5-2.523z" fill="#FFF"/></g></svg>