<svg width="64" height="64" xmlns="http://www.w3.org/2000/svg"><g fill="none"><path d="M32 64c17.673 0 32-14.327 32-32C64 14.327 49.673 0 32 0 14.327 0 0 14.327 0 32c0 17.673 14.327 32 32 32zm0-1.362C15.079 62.638 1.362 48.921 1.362 32S15.079 1.362 32 1.362 62.638 15.079 62.638 32 48.921 62.638 32 62.638z" fill="#DCDCDC"/><g fill="#FF5252"><path d="M22.873 18H46v23.695C46 44.643 44.882 46 42.551 46H18V26.018h3.855v13.7h1.018V18zM17 25.018V47h25.538C45.481 47 47 45.154 47 41.695V17H21.867v8.018H17z"/><path d="M27.469 32.969A.469.469 0 0127 32.5c0-4.135 3.365-7.5 7.5-7.5 2.003 0 3.887.78 5.303 2.197a.468.468 0 11-.663.663 6.516 6.516 0 00-4.64-1.922 6.57 6.57 0 00-6.563 6.562c0 .259-.21.469-.468.469z"/><path d="M39.89 28.75h-2.578a.469.469 0 110-.938h2.344V25.47a.469.469 0 11.938 0v2.576a.705.705 0 01-.705.705zM34.5 40a7.448 7.448 0 01-5.303-2.197.468.468 0 11.663-.663 6.517 6.517 0 004.64 1.922 6.57 6.57 0 006.563-6.562.469.469 0 11.937 0c0 4.135-3.365 7.5-7.5 7.5z"/><path d="M28.875 40a.469.469 0 01-.469-.469v-2.576c0-.39.316-.705.705-.705h2.576a.469.469 0 110 .938h-2.343v2.343c0 .26-.21.469-.469.469z"/></g></g></svg>