<svg width="64" height="64" xmlns="http://www.w3.org/2000/svg"><g fill="none"><path d="M32.34 48.34c8.837 0 16-7.163 16-16 0-8.836-7.163-16-16-16-8.836 0-16 7.164-16 16 0 8.837 7.164 16 16 16zm0-1.361c-8.084 0-14.638-6.554-14.638-14.639 0-8.084 6.554-14.638 14.638-14.638 8.085 0 14.639 6.554 14.639 14.638 0 8.085-6.554 14.639-14.639 14.639z" fill="#FF5252"/><path d="M32 64c17.673 0 32-14.327 32-32C64 14.327 49.673 0 32 0 14.327 0 0 14.327 0 32c0 17.673 14.327 32 32 32zm0-1.362C15.079 62.638 1.362 48.921 1.362 32S15.079 1.362 32 1.362 62.638 15.079 62.638 32 48.921 62.638 32 62.638z" fill="#DCDCDC"/><path d="M28.406 25.872c-3.25 0-5.255 4.167-2.807 7.156 1.535 1.874 3.716 4.246 6.544 7.119l.48.488.486-.484c3.21-3.206 5.263-5.6 6.175-7.22.77-1.369 1.176-3.008.994-4.322-.235-1.692-1.403-2.737-3.347-2.737-2.087 0-3.603.643-4.455 1.924-1.199-1.27-2.561-1.924-4.07-1.924zm-1.754 6.293c-1.716-2.096-.352-4.931 1.754-4.931 1.342 0 2.558.715 3.677 2.209l.778 1.039.412-1.231c.452-1.347 1.613-2.017 3.658-2.017 1.256 0 1.856.536 1.998 1.562.137.989-.198 2.34-.832 3.466-.79 1.404-2.617 3.56-5.466 6.438-2.567-2.625-4.561-4.805-5.979-6.535z" fill="#FF5252"/></g></svg>