<svg width="64" height="64" xmlns="http://www.w3.org/2000/svg"><g fill="none"><path d="M32 64c17.673 0 32-14.327 32-32C64 14.327 49.673 0 32 0 14.327 0 0 14.327 0 32c0 17.673 14.327 32 32 32zm0-1.362C15.079 62.638 1.362 48.921 1.362 32S15.079 1.362 32 1.362 62.638 15.079 62.638 32 48.921 62.638 32 62.638z" fill="#DCDCDC"/><path d="M36.085 44.89c-.478 2.27-1.812 3.404-4.002 3.404-2.19 0-3.58-1.135-4.168-3.404h8.17zm-4.427-26.553c4.955 0 8.254 2.59 9.778 7.64l.095.326.025.09v9.884l4.086 5.265v2.644h-27.94v-2.652l4.26-5.265v-9.867l.02-.082c1.34-5.274 4.61-7.983 9.676-7.983zm0 1.361c-4.3 0-7.009 2.144-8.25 6.563l-.084.312v10.178l-4.26 5.265v.808H44.28v-.816l-4.085-5.265v-10.16c-1.33-4.635-4.134-6.885-8.537-6.885zM32 16.34c1.23 0 1.936.636 2.12 1.907h-4.254c.193-1.271.904-1.907 2.134-1.907z" fill="#FF5252"/></g></svg>