<svg width="129" height="37" xmlns="http://www.w3.org/2000/svg" xmlns:xlink="http://www.w3.org/1999/xlink"><defs><linearGradient x1="58.592%" y1="9.59%" x2="89.323%" y2="60.851%" id="a"><stop stop-color="#FF177B" offset="0%"/><stop stop-color="#FFEC73" offset="100%"/></linearGradient><linearGradient x1="37.573%" y1="-44.035%" x2="1.822%" y2="101.06%" id="b"><stop stop-color="#064AA2" offset="0%"/><stop stop-color="#63FFD4" offset="100%"/></linearGradient><linearGradient x1="77.601%" y1="50%" x2="4.226%" y2="100%" id="f"><stop stop-color="#FF4521" offset="0%"/><stop stop-color="#8A33DB" offset="100%"/></linearGradient><linearGradient x1="0%" y1="-26.992%" x2="64.224%" y2="101.891%" id="h"><stop stop-color="#00A3B5" offset="0%"/><stop stop-color="#D6FFA1" offset="100%"/></linearGradient><path d="M9.908 9.222L.356 0C.134.053 0 .223 0 .508v17.646c0 .242.096.386.214.435l9.694-9.367z" id="c"/><path d="M.394 9.352l5.521-3.09 2.439-1.376 4.014-2.203L9.696.037.002 9.405c.108.036.298.016.447-.058" id="e"/><path d="M.58.156C.395.056.212.026.064.067l9.56 9.236 2.644-2.55-3.986-2.25-6.026-3.4L.579.155z" id="i"/></defs><g transform="translate(1)" fill="none" fill-rule="evenodd"><rect stroke="#FFF" y=".585" width="127" height="35" rx="17.5"/><path d="M8.566 4.504L.876.163C.449-.077.023.068.023.572v17.682c0 .377.304.54.675.332l7.868-4.442 1.528-.861 2.459-1.387 3.832-2.163c.45-.254.406-.602.027-.802-.38-.2-3.86-2.178-3.86-2.178l-3.986-2.25z" fill="url(#a)" fill-rule="nonzero" transform="translate(16 12.585)"/><path d="M9.908 9.222L.356 0C.134.053 0 .223 0 .508v17.646c0 .242.096.386.214.435l9.694-9.367z" fill="url(#b)" fill-rule="nonzero" transform="translate(16 12.657)"/><g transform="translate(16 12.657)"><mask id="d" fill="#fff"><use xlink:href="#c"/></mask><path d="M12.545 6.68L8.554 4.43C8.54 4.462 1.279.355.855.145.425-.128 0 .02 0 .508v17.718c0 .39.304.553.642.363.403-.228 7.898-4.468 7.912-4.502l3.991-2.25c-.02.03 3.36-1.882 3.778-2.107.482-.283.438-.632.071-.798-.391-.235-3.87-2.216-3.849-2.251" mask="url(#d)"/></g><g transform="translate(16.213 21.843)"><mask id="g" fill="#fff"><use xlink:href="#e"/></mask><path d="M8.34-4.757C8.328-4.724 1.067-8.83.644-9.04c-.43-.273-.856-.126-.856.363V9.04c0 .39.304.553.642.363.404-.228 7.898-4.468 7.912-4.502l3.992-2.25c-.021.03 3.36-1.883 3.777-2.107.482-.284.439-.632.072-.798-.392-.235-3.87-2.216-3.85-2.252l-3.991-2.25z" fill="url(#f)" fill-rule="nonzero" mask="url(#g)"/></g><path d="M.58.156C.395.056.212.026.064.067l9.56 9.236 2.644-2.55-3.986-2.25-6.026-3.4L.579.155z" fill="url(#h)" fill-rule="nonzero" transform="translate(16.284 12.585)"/><g transform="translate(16.284 12.585)"><mask id="j" fill="#fff"><use xlink:href="#i"/></mask><path d="M12.262 6.753L8.27 4.503C8.256 4.534.995.426.572.217.142-.055-.284.09-.284.58v17.718c0 .39.304.553.642.363.404-.229 7.898-4.469 7.912-4.502l3.992-2.251c-.021.031 3.36-1.882 3.777-2.106.482-.284.439-.632.072-.799-.392-.234-3.87-2.215-3.85-2.25" mask="url(#j)"/></g><g fill="#FFF" fill-rule="nonzero"><path d="M82.045 24.217l-.768.756c-.177.102-.353.22-.53.304-.532.252-1.074.316-1.555.316-.513 0-1.316-.035-2.136-.654-1.138-.837-1.636-2.276-1.636-3.53 0-2.596 2.025-3.87 3.676-3.87.577 0 1.17.151 1.652.47.801.553 1.009 1.272 1.124 1.657l-3.771 1.59-1.235.1c.4 2.13 1.779 3.368 3.303 3.368.762 0 1.327-.26 1.846-.527 0 0 .104-.057.03.02zm-2.304-4.27c.302-.117.46-.218.46-.453 0-.673-.717-1.451-1.572-1.451-.634 0-1.823.524-1.823 2.346 0 .284.032.587.048.89l2.887-1.332z"/><path d="M74.175 24.126c0 .65.111.75.636.801.274.034.547.049.817.082l-.591.368h-2.818c.37-.5.433-.55.433-.884v-.373l-.006-9.932h-1.244l1.198-.603h2.286c-.495.3-.644.482-.707 1.067l-.004 9.474"/><path d="M69.804 18.359c.366.315 1.131.985 1.131 2.254 0 1.236-.666 1.82-1.338 2.371-.207.218-.448.453-.448.818 0 .37.241.57.415.72l.577.465c.7.62 1.34 1.187 1.34 2.34 0 1.571-1.454 3.156-4.2 3.156-2.312 0-3.43-1.153-3.43-2.39 0-.6.286-1.452 1.23-2.036.99-.633 2.33-.718 3.048-.767-.224-.303-.48-.62-.48-1.138 0-.283.081-.452.16-.65-.175.016-.35.034-.51.034-1.694 0-2.65-1.321-2.65-2.623 0-.769.334-1.621 1.022-2.239.91-.784 1.995-.919 2.858-.919h3.289l-1.023.604h-.991zm-1.123 7.396c-.132-.018-.211-.018-.37-.018-.147 0-1.016.033-1.69.272-.355.137-1.385.544-1.385 1.752 0 1.205 1.112 2.074 2.831 2.074 1.545 0 2.365-.782 2.365-1.836 0-.867-.53-1.324-1.751-2.244zm.451-3.217c.368-.384.4-.915.4-1.217 0-1.197-.682-3.062-2.003-3.062-.412 0-.859.216-1.112.551-.269.347-.35.797-.35 1.23 0 1.115.621 2.964 1.987 2.964.398 0 .827-.202 1.078-.466zm-9.276 3.055c-2.543 0-3.903-2.082-3.903-3.967 0-2.202 1.71-4.087 4.143-4.087 2.351 0 3.824 1.936 3.824 3.969 0 1.985-1.456 4.085-4.064 4.085zm1.988-1.362c.388-.54.482-1.213.482-1.87 0-1.485-.673-4.318-2.664-4.318-.529 0-1.062.217-1.447.572-.626.59-.738 1.332-.738 2.06 0 1.666.784 4.415 2.729 4.415a2.02 2.02 0 001.638-.859zm-10.51 1.362c-2.544 0-3.903-2.082-3.903-3.967 0-2.202 1.712-4.087 4.144-4.087 2.351 0 3.823 1.936 3.823 3.969 0 1.985-1.454 4.085-4.064 4.085zm1.99-1.362c.385-.54.481-1.213.481-1.87 0-1.485-.676-4.318-2.665-4.318a2.17 2.17 0 00-1.445.572c-.628.59-.74 1.332-.74 2.06 0 1.666.788 4.415 2.73 4.415.628 0 1.268-.32 1.638-.859zm-6.948.864l-2.153.516c-.873.143-1.656.27-2.486.27-4.154 0-5.737-3.194-5.737-5.694 0-3.053 2.243-5.883 6.083-5.883a8.45 8.45 0 012.307.327c1.129.332 1.657.74 1.986.979l-1.25 1.241-.528.124.376-.627c-.51-.52-1.446-1.478-3.223-1.478-2.376 0-4.168 1.886-4.168 4.64 0 2.959 2.046 5.742 5.329 5.742.964 0 1.46-.203 1.912-.392v-2.536l-2.275.128 1.206-.676h3.191l-.39.392c-.105.093-.12.125-.15.25-.015.144-.03.6-.03.76v1.917m40.316-.801v4.247h-.81V17.735h.81v1.23c.529-.795 1.494-1.426 2.615-1.426 2.01 0 3.364 1.587 3.364 4.099 0 2.494-1.354 4.114-3.364 4.114-1.059 0-2.007-.568-2.615-1.458zm5.148-2.592c0-1.913-.952-3.372-2.64-3.372-1.049 0-2.051.863-2.487 1.616v3.495c.436.754 1.438 1.649 2.487 1.649 1.688 0 2.64-1.472 2.64-3.388zm1.94-6.967h.83v10.858h-.83zm9.87 13.058c.173.08.469.13.656.13.496 0 .842-.21 1.152-.956l.591-1.394-3.194-7.89h.905l2.74 6.837 2.712-6.837h.918l-3.896 9.545c-.404.984-1.04 1.457-1.913 1.457a3.09 3.09 0 01-.81-.113l.138-.779m-2.288-2.211a15.133 15.133 0 01-.125-.714c-.025-.2-.04-.405-.04-.613-.279.427-.675.782-1.18 1.062-.507.282-.988.42-1.648.42-.794 0-1.41-.203-1.85-.616-.44-.412-.66-.97-.66-1.676 0-.705.32-1.277.957-1.715.637-.44 1.46-.658 2.48-.658h1.902v-.978c0-.563-.185-1.005-.553-1.326-.37-.322-.889-.484-1.561-.484-.615 0-1.114.148-1.493.438-.377.295-.566.66-.566 1.101h-.835l-.017-.042c-.03-.594.231-1.116.787-1.566.553-.45 1.277-.676 2.17-.676.888 0 1.608.223 2.15.667.541.44.813 1.075.813 1.906v3.88c0 .28.013.549.047.811.034.263.089.525.162.78h-.94zm-2.895-.564c.692 0 1.19-.162 1.698-.482.505-.318.849-.733 1.029-1.236v-1.518h-1.91c-.729 0-1.333.169-1.808.51-.475.339-.716.75-.716 1.228 0 .45.152.811.456 1.085.304.276.72.413 1.251.413z"/></g><path d="M36.003 8.178c0-1.538 1.19-2.528 2.67-2.528.991 0 1.64.455 2.044 1.011l-.724.403a1.662 1.662 0 00-1.32-.651c-1.007 0-1.755.732-1.755 1.765 0 1.018.748 1.766 1.755 1.766.519 0 .976-.227 1.205-.44V8.75h-1.526v-.755h2.41v1.824a2.798 2.798 0 01-2.09.894c-1.48 0-2.67-1.003-2.67-2.535m5.915 2.461V5.724h3.534v.76h-2.63V7.75h2.576v.759h-2.575v1.37h2.629v.759h-3.534m5.937.001V6.484h-1.538v-.76h3.967v.76h-1.538v4.155h-.89m5.601-4.915h.866v4.915h-.866zm3.342 4.915V6.484h-1.539v-.76h3.967v.76h-1.537v4.155h-.891m5.385-2.457c0-1.46 1.088-2.532 2.633-2.532 1.535 0 2.632 1.071 2.632 2.532 0 1.46-1.097 2.531-2.632 2.531-1.545 0-2.633-1.071-2.633-2.531zm4.327-.038c0-1.002-.667-1.75-1.694-1.75-1.036 0-1.695.748-1.695 1.75 0 .995.66 1.75 1.695 1.75 1.027 0 1.694-.755 1.694-1.75zm5.487 2.495l-2.65-3.514v3.514h-.89V5.724h.914l2.595 3.405V5.724h.89v4.915h-.86" fill="#FFF" fill-rule="nonzero"/></g></svg>