<svg width="162" height="46" xmlns="http://www.w3.org/2000/svg" xmlns:xlink="http://www.w3.org/1999/xlink"><defs><linearGradient x1="58.744%" y1="9.59%" x2="90.017%" y2="60.851%" id="a"><stop stop-color="#FF177B" offset="0%"/><stop stop-color="#FFEC73" offset="100%"/></linearGradient><linearGradient x1="37.354%" y1="-44.035%" x2=".971%" y2="101.06%" id="b"><stop stop-color="#064AA2" offset="0%"/><stop stop-color="#63FFD4" offset="100%"/></linearGradient><linearGradient x1="78.089%" y1="50%" x2="3.418%" y2="100%" id="f"><stop stop-color="#FF4521" offset="0%"/><stop stop-color="#8A33DB" offset="100%"/></linearGradient><linearGradient x1="0%" y1="-25.656%" x2="64.224%" y2="100.991%" id="h"><stop stop-color="#00A3B5" offset="0%"/><stop stop-color="#D6FFA1" offset="100%"/></linearGradient><path d="M12.216 11.271L.44 0C.165.064 0 .272 0 .621v21.567c0 .296.118.473.264.532l11.952-11.449z" id="c"/><path d="M.486 11.43l6.807-3.776L10.3 5.97l4.95-2.692L11.954.045.002 11.495c.133.044.368.02.551-.071" id="e"/><path d="M.714.19C.488.069.262.034.08.083L11.867 11.37l3.26-3.116-4.915-2.75-7.43-4.157L.714.191z" id="i"/></defs><g transform="translate(1 1)" fill="none" fill-rule="evenodd"><rect stroke="#FFF" width="160.286" height="44" rx="22"/><path d="M10.562 5.505L1.08.199C.553-.095.029.083.029.7v21.61c0 .46.374.66.832.405l9.701-5.428 1.884-1.054 3.031-1.695s4.17-2.334 4.725-2.643c.554-.31.501-.736.034-.98-.469-.245-4.759-2.662-4.759-2.662l-4.915-2.75z" fill="url(#a)" fill-rule="nonzero" transform="translate(20.653 15.714)"/><path d="M12.216 11.271L.44 0C.165.064 0 .272 0 .621v21.567c0 .296.118.473.264.532l11.952-11.449z" fill="url(#b)" fill-rule="nonzero" transform="translate(20.653 15.803)"/><g transform="translate(20.653 15.803)"><mask id="d" fill="#fff"><use xlink:href="#c"/></mask><path d="M15.468 8.165l-4.922-2.751c-.017.04-8.97-4.98-9.491-5.236C.524-.156 0 .023 0 .62v21.656c0 .476.374.676.791.443.498-.28 9.738-5.461 9.755-5.502l4.922-2.751c-.026.038 4.143-2.3 4.658-2.574.593-.347.54-.773.088-.977-.483-.286-4.772-2.708-4.746-2.75" mask="url(#d)"/></g><g transform="translate(20.915 27.03)"><mask id="g" fill="#fff"><use xlink:href="#e"/></mask><path d="M10.284-5.814c-.017.04-8.97-4.98-9.492-5.236-.53-.334-1.054-.155-1.054.444v21.655c0 .476.374.676.79.444.498-.28 9.739-5.462 9.756-5.503l4.922-2.75c-.026.037 4.143-2.3 4.658-2.575.593-.347.54-.773.087-.976-.482-.287-4.77-2.708-4.745-2.751l-4.922-2.752z" fill="url(#f)" fill-rule="nonzero" mask="url(#g)"/></g><path d="M.714.19C.488.069.262.034.08.083L11.867 11.37l3.26-3.116-4.915-2.75-7.43-4.157L.714.191z" fill="url(#h)" fill-rule="nonzero" transform="translate(21.003 15.714)"/><g transform="translate(21.003 15.714)"><mask id="j" fill="#fff"><use xlink:href="#i"/></mask><path d="M15.118 8.254l-4.921-2.751c-.018.04-8.97-4.98-9.492-5.237C.175-.067-.35.112-.35.71v21.655c0 .476.375.676.791.444.498-.28 9.738-5.462 9.756-5.502l4.921-2.752c-.025.039 4.143-2.3 4.658-2.574.594-.346.54-.773.088-.976-.483-.286-4.771-2.708-4.746-2.751" mask="url(#j)"/></g><g fill="#FFF" fill-rule="nonzero"><path d="M104.081 30.506l-.97.924c-.225.124-.449.268-.671.37-.675.31-1.36.387-1.97.387-.649 0-1.666-.042-2.703-.799-1.441-1.023-2.071-2.782-2.071-4.314 0-3.174 2.563-4.73 4.653-4.73.73 0 1.48.184 2.09.573 1.015.676 1.278 1.555 1.423 2.026l-4.773 1.944-1.563.122c.506 2.602 2.252 4.115 4.182 4.115.963 0 1.679-.317 2.335-.644 0 0 .132-.069.038.026zm-2.916-5.22c.383-.143.582-.266.582-.553 0-.823-.907-1.774-1.99-1.774-.801 0-2.307.641-2.307 2.867 0 .348.04.718.06 1.088l3.655-1.628z"/><path d="M94.12 30.394c0 .794.14.917.805.98.347.04.692.059 1.034.1l-.748.45h-3.567c.468-.613.548-.674.548-1.082v-.455l-.008-12.14H90.61l1.516-.737h2.894c-.627.367-.815.59-.895 1.305l-.005 11.58"/><path d="M88.586 23.346c.464.385 1.432 1.203 1.432 2.754 0 1.512-.843 2.224-1.694 2.899-.261.265-.566.553-.566.999 0 .452.305.697.525.88l.73.568c.887.757 1.696 1.451 1.696 2.86 0 1.92-1.84 3.857-5.315 3.857-2.928 0-4.344-1.409-4.344-2.92 0-.734.363-1.775 1.558-2.489 1.252-.773 2.95-.877 3.858-.937-.284-.37-.608-.758-.608-1.391 0-.346.103-.552.203-.796a6.753 6.753 0 01-.646.043c-2.143 0-3.354-1.615-3.354-3.206 0-.94.423-1.981 1.294-2.736 1.152-.958 2.526-1.123 3.617-1.123h4.164l-1.295.738h-1.255zm-1.421 9.039c-.167-.022-.268-.022-.47-.022-.184 0-1.284.04-2.137.332-.45.169-1.754.666-1.754 2.142 0 1.473 1.407 2.535 3.584 2.535 1.956 0 2.994-.956 2.994-2.244 0-1.06-.672-1.619-2.217-2.743zm.571-3.932c.465-.47.506-1.118.506-1.487 0-1.464-.863-3.743-2.535-3.743-.522 0-1.087.265-1.408.674-.34.424-.442.974-.442 1.503 0 1.363.786 3.623 2.514 3.623.504 0 1.047-.248 1.365-.57zm-11.742 3.734c-3.219 0-4.941-2.544-4.941-4.848 0-2.692 2.165-4.995 5.244-4.995 2.977 0 4.841 2.366 4.841 4.85 0 2.426-1.843 4.993-5.144 4.993zm2.517-1.664c.49-.66.61-1.483.61-2.286 0-1.815-.852-5.278-3.372-5.278a2.81 2.81 0 00-1.832.7c-.793.721-.935 1.628-.935 2.517 0 2.037.992 5.396 3.455 5.396.795 0 1.606-.39 2.074-1.049zm-13.305 1.664c-3.22 0-4.94-2.544-4.94-4.848 0-2.692 2.166-4.995 5.246-4.995 2.976 0 4.84 2.366 4.84 4.85 0 2.426-1.842 4.993-5.146 4.993zm2.519-1.664c.488-.66.61-1.483.61-2.286 0-1.815-.856-5.278-3.375-5.278a2.8 2.8 0 00-1.828.7c-.796.721-.937 1.628-.937 2.517 0 2.037.997 5.396 3.457 5.396.793 0 1.603-.39 2.073-1.049zm-8.795 1.056l-2.725.63c-1.105.175-2.097.33-3.147.33-5.258 0-7.262-3.904-7.262-6.96 0-3.73 2.839-7.19 7.7-7.19 1.03 0 2.019.153 2.92.4 1.429.405 2.097.904 2.515 1.197l-1.584 1.517-.667.15.476-.765c-.645-.635-1.83-1.807-4.08-1.807-3.008 0-5.276 2.306-5.276 5.672 0 3.616 2.59 7.017 6.745 7.017 1.221 0 1.85-.248 2.42-.479v-3.1l-2.878.157 1.525-.827h4.04l-.494.48c-.133.114-.151.153-.189.306-.02.175-.038.732-.038.928v2.344m51.034-.979v5.19h-1.027V22.582h1.027v1.505c.668-.973 1.89-1.743 3.309-1.743 2.545 0 4.259 1.939 4.259 5.009 0 3.049-1.714 5.028-4.26 5.028-1.339 0-2.539-.694-3.308-1.781zm6.515-3.168c0-2.338-1.205-4.121-3.342-4.121-1.327 0-2.596 1.054-3.147 1.974v4.272c.551.922 1.82 2.015 3.147 2.015 2.137 0 3.342-1.799 3.342-4.14zm2.456-8.516h1.052v13.271h-1.052zm12.494 15.96c.22.099.594.16.831.16.628 0 1.065-.259 1.458-1.17l.748-1.703-4.043-9.643h1.145l3.468 8.356 3.435-8.356h1.16l-4.93 11.666c-.512 1.202-1.317 1.78-2.423 1.78-.332 0-.77-.06-1.025-.138l.176-.952m-2.897-2.702a18.74 18.74 0 01-.159-.873 5.878 5.878 0 01-.05-.75c-.353.523-.854.957-1.495 1.299-.64.344-1.25.513-2.085.513-1.005 0-1.786-.249-2.343-.753-.555-.503-.834-1.185-.834-2.048 0-.862.404-1.561 1.211-2.096.807-.538 1.85-.805 3.14-.805h2.407v-1.194c0-.689-.234-1.23-.7-1.622-.468-.393-1.125-.591-1.976-.591-.778 0-1.41.181-1.89.535-.477.36-.717.807-.717 1.346h-1.056l-.022-.052c-.038-.726.293-1.363.996-1.913.7-.55 1.618-.826 2.747-.826 1.125 0 2.035.272 2.722.815.685.537 1.03 1.314 1.03 2.33v4.742a6.313 6.313 0 00.264 1.943h-1.19zm-3.664-.69c.876 0 1.505-.198 2.149-.59.639-.388 1.074-.895 1.302-1.51V27.53h-2.417c-.923 0-1.687.206-2.289.623-.602.415-.907.917-.907 1.501 0 .552.193.992.578 1.326.385.338.912.505 1.584.505z"/></g><text font-family="Helvetica" font-size="10" fill="#FFF"><tspan x="46" y="12">Доступно в</tspan></text></g></svg>