<svg width="90" height="90" xmlns="http://www.w3.org/2000/svg"><g fill="none"><path d="M45 90c24.853 0 45-20.147 45-45S69.853 0 45 0 0 20.147 0 45s20.147 45 45 45zm0-1.915C21.205 88.085 1.915 68.795 1.915 45S21.205 1.915 45 1.915 88.085 21.205 88.085 45 68.795 88.085 45 88.085z" fill="#DCDCDC"/><path d="M51.545 25l.135.011C58.486 26.143 62 30.105 62 36.696c0 6.644-3.593 10.096-10.455 10.096H34.199V52H52v2H34.199v12h-1.688l-.001-12H28v-2h4.51v-5.208H28V45.07h4.51V25h19.035zm-.07 1.723H34.2v18.346h17.346c5.952 0 8.767-2.704 8.767-8.373 0-5.702-2.872-8.96-8.836-9.973z" fill="#FFF"/></g></svg>