<svg width="90" height="90" xmlns="http://www.w3.org/2000/svg"><g fill="none"><path d="M43.364 24l-.002.522a1.5 1.5 0 11-.337 1.25l-3.441.001c-1.304 1.227-1.946 2.734-1.946 4.575 0 4.79 3.442 16.086 6.14 17.415 1.12.551 2.599.94 4.18 1.162a2.753 2.753 0 012.502-1.561c1.167 0 2.164.705 2.561 1.7 1.786-.161 3.33-.563 4.203-1.214 2.155-1.605 5.74-13.023 5.93-17.538.128-3.058-.461-4.448-1.39-4.535l-.094-.004h-3.695a1.5 1.5 0 11-2.086-1.643l.001-.13h5.78c2.404 0 3.482 2.345 3.313 6.384-.21 4.998-3.932 16.853-6.643 18.872-1.153.859-3.058 1.377-5.208 1.573l-.056.005a2.694 2.694 0 01-1.406 1.577l-.004 8.79C51.283 66.29 48.695 69 44.091 69c-4.575 0-6.752-2.693-6.324-7.622l.027-.287v-5.208c-.415-2.209-1.866-3.249-4.633-3.249-2.69 0-4.37 1.004-5.215 3.09l-.087.228v2.114c1.922.338 3.379 1.967 3.379 3.926 0 2.203-1.844 3.989-4.12 3.989-2.274 0-4.118-1.786-4.118-3.99 0-1.837 1.283-3.384 3.028-3.847v-2.48l.046-.136c1.05-3.08 3.48-4.667 7.087-4.667 3.551 0 5.774 1.555 6.402 4.543l.049.253.013.149v5.331l-.005.092c-.45 4.162.966 5.998 4.471 5.998 3.496 0 5.345-1.851 5.723-5.804l.024-.286v-8.522c-.993-.223-1.78-.967-2.036-1.918-1.82-.248-3.532-.703-4.853-1.354-3.534-1.74-7.141-13.578-7.141-18.995 0-2.35.864-4.34 2.571-5.912l.238-.212.26-.224h4.487zM27.119 59.775c-1.264 0-2.288.993-2.288 2.217 0 1.224 1.024 2.216 2.288 2.216 1.264 0 2.288-.992 2.288-2.216 0-1.224-1.024-2.217-2.288-2.217z" fill="#FFF"/><path d="M45 90c24.853 0 45-20.147 45-45S69.853 0 45 0 0 20.147 0 45s20.147 45 45 45zm0-1.915C21.205 88.085 1.915 68.795 1.915 45S21.205 1.915 45 1.915 88.085 21.205 88.085 45 68.795 88.085 45 88.085z" fill="#DCDCDC"/></g></svg>